SplineFontDB: 3.0
FontName: Asap-Symbol
FullName: Asap Symbol
FamilyName: Asap Symbol
Weight: Medium
Copyright: Copyright (c) 2014, Omnibus-Type (www.omnibus-type.com omnibus.type@gmail.com) with Reserved Font Name 'Asap'
Version: 001.000
ItalicAngle: 0
UnderlinePosition: -50
UnderlineWidth: 50
Ascent: 800
Descent: 200
InvalidEm: 0
sfntRevision: 0x00010000
LayerCount: 2
Layer: 0 0 "Back" 1
Layer: 1 0 "Fore" 0
XUID: [1021 191 1600663927 14903418]
FSType: 8
OS2Version: 3
OS2_WeightWidthSlopeOnly: 0
OS2_UseTypoMetrics: 1
CreationTime: 1416602058
ModificationTime: 1416631760
PfmFamily: 33
TTFWeight: 500
TTFWidth: 5
LineGap: 0
VLineGap: 0
Panose: 2 15 6 4 3 2 2 6 2 3
OS2TypoAscent: 940
OS2TypoAOffset: 0
OS2TypoDescent: -212
OS2TypoDOffset: 0
OS2TypoLinegap: 48
OS2WinAscent: 988
OS2WinAOffset: 0
OS2WinDescent: 212
OS2WinDOffset: 0
HheadAscent: 988
HheadAOffset: 0
HheadDescent: -212
HheadDOffset: 0
OS2SubXSize: 650
OS2SubYSize: 600
OS2SubXOff: 0
OS2SubYOff: 75
OS2SupXSize: 650
OS2SupYSize: 600
OS2SupXOff: 0
OS2SupYOff: 350
OS2StrikeYSize: 50
OS2StrikeYPos: 313
OS2CapHeight: 0
OS2XHeight: 0
OS2Vendor: 'OMNI'
OS2CodePages: 20000001.00000000
OS2UnicodeRanges: 00000003.00000000.00000000.00000000
Lookup: 1 0 0 "'aalt' Access All Alternates lookup 0" { "'aalt' Access All Alternates lookup 0 subtable"  } ['aalt' ('DFLT' <'dflt' > 'grek' <'dflt' > 'latn' <'dflt' > ) ]
Lookup: 3 0 0 "'aalt' Access All Alternates lookup 1" { "'aalt' Access All Alternates lookup 1 subtable"  } ['aalt' ('DFLT' <'dflt' > 'grek' <'dflt' > 'latn' <'dflt' > ) ]
Lookup: 1 0 0 "'sups' Superscript lookup 2" { "'sups' Superscript lookup 2 subtable" ("superior") } ['sups' ('DFLT' <'dflt' > 'grek' <'dflt' > 'latn' <'dflt' > ) ]
Lookup: 4 0 0 "'frac' Diagonal Fractions lookup 3" { "'frac' Diagonal Fractions lookup 3 subtable"  } ['frac' ('DFLT' <'dflt' > 'grek' <'dflt' > 'latn' <'dflt' > ) ]

StartChar: .notdef
Encoding: 65536 -1 0
Width: 514
Flags: MW
HStem: 0 50<87 427 87 507> 650 50<86 426 86 86>
VStem: 7 49<95 95 95 605> 456 51<95 605 605 605>
LayerCount: 2
Back
Fore
SplineSet
7 700 m 1
 507 700 l 1
 507 0 l 1
 7 0 l 1
 7 700 l 1
426 650 m 1
 86 650 l 1
 257 395 l 1
 426 650 l 1
56 95 m 1
 227 350 l 1
 56 605 l 1
 56 95 l 1
456 95 m 1
 456 605 l 1
 287 350 l 1
 456 95 l 1
427 50 m 1
 256 305 l 1
 87 50 l 1
 427 50 l 1
EndSplineSet
EndChar

StartChar: A
Encoding: 65 65 2
Width: 613
Flags: MW
HStem: 162 100<205 405 205 439 170 405> 569 133<305 305 305 308>
VStem: 7 599<11 19.5>
LayerCount: 2
Back
Fore
SplineSet
326 702 m 2
 350 702 369 698 374 684 c 2
 603 32 l 2
 605 26 606 22 606 17 c 0
 606 5 593 -2 560 -2 c 2
 537 -2 l 2
 513 -2 494 2 490 16 c 2
 439 162 l 1
 170 162 l 1
 121 16 l 2
 116 3 100 -2 78 -2 c 2
 58 -2 l 2
 23 -2 7 5 7 17 c 0
 7 22 8 26 10 33 c 2
 240 684 l 2
 245 698 264 702 287 702 c 2
 326 702 l 2
305 569 m 2
 304.759765625 567.8203125 304.529296875 566.649414062 304.2890625 565.469726562 c 0
 300.51953125 546.540039062 296.58984375 526.8203125 290 508 c 2
 205 262 l 1
 405 262 l 1
 321 508 l 2
 315 527 311 549 308 569 c 1
 305 569 l 2
EndSplineSet
Substitution2: "Single Substitution lookup 13 subtable" ordfeminine
Substitution2: "'ss06' Style Set 6 lookup 12 subtable" one.ss01
Substitution2: "'ss05' Style Set 5 lookup 11 subtable" A.ss05
Substitution2: "'ss04' Style Set 4 lookup 10 subtable" A.ss04
Substitution2: "'ss03' Style Set 3 lookup 9 subtable" A.ss03
Substitution2: "'ss02' Style Set 2 lookup 8 subtable" A.ss02
Substitution2: "'ss01' Style Set 1 lookup 7 subtable" A.ss01
Substitution2: "'salt' Stylistic Alternatives lookup 6 subtable" A.ss01
AlternateSubs2: "'aalt' Access All Alternates lookup 1 subtable" ordfeminine A.ss01 A.ss02 A.ss03 A.ss04 A.ss05
Position2: "'cpsp' Capital Spacing lookup 1 subtable" dx=5 dy=0 dh=10 dv=0
EndChar

StartChar: Aacute
Encoding: 193 193 3
Width: 613
Flags: MW
HStem: 162 100
VStem: 7.00999 599
LayerCount: 2
Back
Fore
SplineSet
387 910 m 0
 423 910 440.009765625 906.998046875 440.009765625 895.998046875 c 0
 440.009765625 887.23828125 434.939453125 881.658203125 387.529296875 829.358398438 c 0
 375.359375 815.928710938 360.389648438 799.428710938 342 778.999023438 c 0
 331 766.999023438 313 757.999023438 280 757.999023438 c 0
 261 757.999023438 254 760.999023438 254 769.999023438 c 0
 254 777.7890625 263.120117188 793.489257812 288.940429688 837.939453125 c 0
 296.23046875 850.509765625 304.860351562 865.370117188 315 883 c 0
 326 903 352 910 387 910 c 0
326.009765625 701.998046875 m 2
 350.009765625 701.998046875 369.009765625 697.998046875 374.009765625 683.998046875 c 2
 603.009765625 31.998046875 l 2
 605.009765625 25.998046875 606.009765625 21.998046875 606.009765625 16.998046875 c 0
 606.009765625 4.998046875 593.009765625 -2.001953125 560.009765625 -2.001953125 c 2
 537.009765625 -2.001953125 l 2
 513.009765625 -2.001953125 494.009765625 1.998046875 490.009765625 15.998046875 c 2
 439.009765625 161.998046875 l 1
 170.009765625 161.998046875 l 1
 121.009765625 15.998046875 l 2
 116.009765625 2.998046875 100.009765625 -2.001953125 78.009765625 -2.001953125 c 2
 58.009765625 -2.001953125 l 2
 23.009765625 -2.001953125 7.009765625 4.998046875 7.009765625 16.998046875 c 0
 7.009765625 21.998046875 8.009765625 25.998046875 10.009765625 32.998046875 c 2
 240.009765625 683.998046875 l 2
 245.009765625 697.998046875 264.009765625 701.998046875 287.009765625 701.998046875 c 2
 326.009765625 701.998046875 l 2
305.009765625 568.998046875 m 2
 304.76953125 567.818359375 304.5390625 566.647460938 304.298828125 565.467773438 c 0
 300.529296875 546.538085938 296.599609375 526.818359375 290.009765625 507.998046875 c 2
 205.009765625 261.998046875 l 1
 405.009765625 261.998046875 l 1
 321.009765625 507.998046875 l 2
 315.009765625 526.998046875 311.009765625 548.998046875 308.009765625 568.998046875 c 1
 305.009765625 568.998046875 l 2
EndSplineSet
Position2: "'cpsp' Capital Spacing lookup 1 subtable" dx=5 dy=0 dh=10 dv=0
EndChar

StartChar: Acircumflex
Encoding: 194 194 4
Width: 613
Flags: MW
HStem: 162 100<205 405 205 439 170 405> 751 144<193.5 316 201 316 297 402 297 413>
VStem: 7 599<11 19.5>
LayerCount: 2
Back
Fore
SplineSet
316 895 m 2
 340 895 358 891 369 874 c 2
 429 780 l 2
 433 774 435 769 435 764 c 0
 435 756 428 751 413 751 c 2
 402 751 l 2
 382 751 365 756 354 769 c 2
 306 828 l 1
 260 769 l 2
 248 755 232 751 211 751 c 2
 201 751 l 2
 186 751 179 755 179 764 c 0
 179 768 181 774 185 780 c 2
 245 874 l 2
 255 891 274 895 297 895 c 2
 316 895 l 2
326 702 m 2
 350 702 369 698 374 684 c 2
 603 32 l 2
 605 26 606 22 606 17 c 0
 606 5 593 -2 560 -2 c 2
 537 -2 l 2
 513 -2 494 2 490 16 c 2
 439 162 l 1
 170 162 l 1
 121 16 l 2
 116 3 100 -2 78 -2 c 2
 58 -2 l 2
 23 -2 7 5 7 17 c 0
 7 22 8 26 10 33 c 2
 240 684 l 2
 245 698 264 702 287 702 c 2
 326 702 l 2
305 569 m 2
 304.759765625 567.8203125 304.529296875 566.649414062 304.2890625 565.469726562 c 0
 300.51953125 546.540039062 296.58984375 526.8203125 290 508 c 2
 205 262 l 1
 405 262 l 1
 321 508 l 2
 315 527 311 549 308 569 c 1
 305 569 l 2
EndSplineSet
Position2: "'cpsp' Capital Spacing lookup 1 subtable" dx=5 dy=0 dh=10 dv=0
EndChar

StartChar: Adieresis
Encoding: 196 196 5
Width: 613
Flags: MW
HStem: 162 100<205 405 205 439 170 405> 771 108<210 244 370 404>
VStem: 177 100<798 853 789.5 861> 337 100<798 853 789.5 861>
LayerCount: 2
Back
Fore
SplineSet
228 879 m 0
 262 879 277 870 277 853 c 2
 277 798 l 2
 277 781 262 771 226 771 c 0
 192 771 177 781 177 798 c 2
 177 853 l 2
 177 869 192 879 228 879 c 0
388 879 m 0
 422 879 437 870 437 853 c 2
 437 798 l 2
 437 781 422 771 386 771 c 0
 352 771 337 781 337 798 c 2
 337 853 l 2
 337 869 352 879 388 879 c 0
326 702 m 2
 350 702 369 698 374 684 c 2
 603 32 l 2
 605 26 606 22 606 17 c 0
 606 5 593 -2 560 -2 c 2
 537 -2 l 2
 513 -2 494 2 490 16 c 2
 439 162 l 1
 170 162 l 1
 121 16 l 2
 116 3 100 -2 78 -2 c 2
 58 -2 l 2
 23 -2 7 5 7 17 c 0
 7 22 8 26 10 33 c 2
 240 684 l 2
 245 698 264 702 287 702 c 2
 326 702 l 2
305 569 m 2
 304.759765625 567.8203125 304.529296875 566.649414062 304.2890625 565.469726562 c 0
 300.51953125 546.540039062 296.58984375 526.8203125 290 508 c 2
 205 262 l 1
 405 262 l 1
 321 508 l 2
 315 527 311 549 308 569 c 1
 305 569 l 2
EndSplineSet
Position2: "'cpsp' Capital Spacing lookup 1 subtable" dx=5 dy=0 dh=10 dv=0
EndChar

StartChar: Agrave
Encoding: 192 192 6
Width: 613
Flags: MW
HStem: 161.99 100
VStem: 7 599
LayerCount: 2
Back
Fore
SplineSet
235 910 m 0
 271 910 296.000976562 902.990234375 307.000976562 882.990234375 c 0
 317.130859375 865.360351562 325.760742188 850.5 333.060546875 837.940429688 c 0
 358.870117188 793.490234375 367.990234375 777.790039062 367.990234375 769.990234375 c 0
 367.990234375 760.990234375 360.990234375 757.990234375 341.990234375 757.990234375 c 0
 308.990234375 757.990234375 290.990234375 766.990234375 279.990234375 778.990234375 c 0
 256.400390625 805.5 238.430664062 825.41015625 224.760742188 840.549804688 c 0
 186.860351562 882.530273438 182 887.91015625 182 896 c 0
 182 907 200 910 235 910 c 0
326.000976562 701.990234375 m 2
 350.000976562 701.990234375 369.000976562 697.990234375 374.000976562 683.990234375 c 2
 603.000976562 31.990234375 l 2
 605.000976562 25.990234375 606.000976562 21.990234375 606.000976562 16.990234375 c 0
 606.000976562 4.990234375 593.000976562 -2.009765625 560.000976562 -2.009765625 c 2
 537.000976562 -2.009765625 l 2
 513.000976562 -2.009765625 494.000976562 1.990234375 490.000976562 15.990234375 c 2
 439.000976562 161.990234375 l 1
 170.000976562 161.990234375 l 1
 121.000976562 15.990234375 l 2
 116.000976562 2.990234375 100.000976562 -2.009765625 78.0009765625 -2.009765625 c 2
 58.0009765625 -2.009765625 l 2
 23.0009765625 -2.009765625 7.0009765625 4.990234375 7.0009765625 16.990234375 c 0
 7.0009765625 21.990234375 8.0009765625 25.990234375 10.0009765625 32.990234375 c 2
 240.000976562 683.990234375 l 2
 245.000976562 697.990234375 264.000976562 701.990234375 287.000976562 701.990234375 c 2
 326.000976562 701.990234375 l 2
305.000976562 568.990234375 m 2
 304.760742188 567.8203125 304.530273438 566.639648438 304.290039062 565.459960938 c 0
 300.520507812 546.530273438 296.590820312 526.8203125 290.000976562 507.990234375 c 2
 205.000976562 261.990234375 l 1
 405.000976562 261.990234375 l 1
 321.000976562 507.990234375 l 2
 315.000976562 526.990234375 311.000976562 548.990234375 308.000976562 568.990234375 c 1
 305.000976562 568.990234375 l 2
EndSplineSet
Position2: "'cpsp' Capital Spacing lookup 1 subtable" dx=5 dy=0 dh=10 dv=0
EndChar

StartChar: Aring
Encoding: 197 197 7
Width: 613
Flags: MW
HStem: 162 100<205 405 205 439 170 405> 735 47<294 318.5 294 331> 869 48<294 318.5>
VStem: 215 48<812.5 837.5 812.5 850.5> 351 46<812.5 837.5>
LayerCount: 2
Back
Fore
SplineSet
306 917 m 0
 356 917 397 876 397 825 c 0
 397 775 356 735 306 735 c 0
 255 735 215 775 215 825 c 0
 215 876 255 917 306 917 c 0
306 869 m 0
 282 869 263 850 263 825 c 0
 263 800 282 782 306 782 c 0
 331 782 351 800 351 825 c 0
 351 850 331 869 306 869 c 0
326 702 m 2
 350 702 369 698 374 684 c 2
 603 32 l 2
 605 26 606 22 606 17 c 0
 606 5 593 -2 560 -2 c 2
 537 -2 l 2
 513 -2 494 2 490 16 c 2
 439 162 l 1
 170 162 l 1
 121 16 l 2
 116 3 100 -2 78 -2 c 2
 58 -2 l 2
 23 -2 7 5 7 17 c 0
 7 22 8 26 10 33 c 2
 240 684 l 2
 245 698 264 702 287 702 c 2
 326 702 l 2
305 569 m 2
 304.759765625 567.8203125 304.529296875 566.649414062 304.2890625 565.469726562 c 0
 300.51953125 546.540039062 296.58984375 526.8203125 290 508 c 2
 205 262 l 1
 405 262 l 1
 321 508 l 2
 315 527 311 549 308 569 c 1
 305 569 l 2
EndSplineSet
Position2: "'cpsp' Capital Spacing lookup 1 subtable" dx=5 dy=0 dh=10 dv=0
EndChar

StartChar: Atilde
Encoding: 195 195 8
Width: 613
Flags: MW
HStem: 162 100<205.009 405.009 205.009 439.009 170.009 405.009> 763 63<369.255 385 369.255 398.001> 808 63<226.99 238.82>
VStem: 7.00999 599
LayerCount: 2
Back
Fore
SplineSet
378 826 m 0xd0
 392 826 400.008789062 837 413.008789062 858 c 0
 419.668945312 868.66015625 423.668945312 872.66015625 429.149414062 872.66015625 c 0
 431.889648438 872.66015625 435 871.66015625 439 870 c 2
 461 861 l 2
 467.5703125 858.009765625 470.220703125 854.309570312 470.220703125 849.049804688 c 0
 470.220703125 845.5 469.010742188 841.240234375 467.000976562 836 c 0
 448.000976562 783 416.000976562 763 380.000976562 763 c 0xd0
 347.901367188 763 312.731445312 778.330078125 283.451171875 791.08984375 c 0
 262.55078125 800.200195312 244.650390625 808 232.990234375 808 c 0
 220.990234375 808 210.990234375 798 197.990234375 776 c 0
 191.73046875 765.41015625 187.5703125 761.379882812 181.900390625 761.379882812 c 0
 179.110351562 761.379882812 175.950195312 762.349609375 171.990234375 764 c 2
 149.990234375 773 l 2
 143.419921875 775.990234375 140.780273438 779.690429688 140.780273438 784.950195312 c 0
 140.780273438 788.5 141.98046875 792.759765625 144 798 c 0
 165 856 200 871 231 871 c 0xb0
 249.6796875 871 270.099609375 865.41015625 289.889648438 858.169921875 c 0
 326.259765625 844.870117188 360.509765625 826 378 826 c 0xd0
326.008789062 702 m 2
 350.008789062 702 369.008789062 698 374.008789062 684 c 2
 603.008789062 32 l 2
 605.008789062 26 606.008789062 22 606.008789062 17 c 0
 606.008789062 5 593.008789062 -2 560.008789062 -2 c 2
 537.008789062 -2 l 2
 513.008789062 -2 494.008789062 2 490.008789062 16 c 2
 439.008789062 162 l 1
 170.008789062 162 l 1
 121.008789062 16 l 2
 116.008789062 3 100.008789062 -2 78.0087890625 -2 c 2
 58.0087890625 -2 l 2
 23.0087890625 -2 7.0087890625 5 7.0087890625 17 c 0
 7.0087890625 22 8.0087890625 26 10.0087890625 33 c 2
 240.008789062 684 l 2
 245.008789062 698 264.008789062 702 287.008789062 702 c 2
 326.008789062 702 l 2
305.008789062 569 m 2
 304.768554688 567.8203125 304.538085938 566.649414062 304.297851562 565.469726562 c 0
 300.528320312 546.540039062 296.598632812 526.8203125 290.008789062 508 c 2
 205.008789062 262 l 1
 405.008789062 262 l 1
 321.008789062 508 l 2
 315.008789062 527 311.008789062 549 308.008789062 569 c 1
 305.008789062 569 l 2
EndSplineSet
Position2: "'cpsp' Capital Spacing lookup 1 subtable" dx=5 dy=0 dh=10 dv=0
EndChar

StartChar: AE
Encoding: 198 198 9
Width: 915
Flags: MW
HStem: 0 100<500.5 817 578 817 578 817> 162 100<226 428 226 448 176 428> 308 100<535 788 535 535> 600 100<474 816 474 474>
VStem: -6 848<11 39>
LayerCount: 2
Back
Fore
SplineSet
816 700 m 2
 833 700 841 688 841 661 c 2
 841 639 l 2
 841 612 833 600 816 600 c 2
 474 600 l 1
 514 408 l 1
 788 408 l 2
 805 408 812 397 812 369 c 2
 812 347 l 2
 812 320 805 308 788 308 c 2
 535 308 l 1
 578 100 l 1
 817 100 l 2
 834 100 842 88 842 61 c 2
 842 39 l 2
 842 12 834 0 817 0 c 2
 511 0 l 2
 490 0 479 9 475 29 c 2
 448 162 l 1
 176 162 l 1
 105 16 l 2
 98 4 83 -2 62 -2 c 2
 43 -2 l 2
 8 -2 -6 5 -6 17 c 0
 -6 22 -5 28 -2 34 c 2
 319 673 l 2
 329 692 342 700 363 700 c 2
 816 700 l 2
372 578 m 1
 348 510 l 1
 226 262 l 1
 428 262 l 1
 377 509 l 1
 375 578 l 1
 372 578 l 1
EndSplineSet
Position2: "'cpsp' Capital Spacing lookup 1 subtable" dx=5 dy=0 dh=10 dv=0
EndChar

StartChar: B
Encoding: 66 66 10
Width: 593
Flags: MW
HStem: 0 100<107 327 202 309> 308 100<202 297 202 297 297 310> 600 100<202 202 202 296>
VStem: 85 117<100 308 408 600> 416 120<489.5 538.5> 445 120<174.5 240>
LayerCount: 2
Back
Fore
SplineSet
307 700 m 2xf8
 464 700 536 628 536 523 c 0xf8
 536 456 486 391 427 371 c 1
 427 367 l 1
 462 360 565 310 565 202 c 0xf4
 565 67 477 0 309 0 c 2
 119 0 l 2
 95 0 85 10 85 34 c 2
 85 666 l 2
 85 690 95 700 119 700 c 2
 307 700 l 2xf8
202 600 m 1
 202 408 l 1
 297 408 l 2
 369 408 416 452 416 507 c 0
 416 570 379 600 296 600 c 2
 202 600 l 1
202 308 m 1
 202 100 l 1
 327 100 l 2
 403 100 445 141 445 208 c 0xf4
 445 272 399 308 310 308 c 2
 202 308 l 1
EndSplineSet
Substitution2: "'ss06' Style Set 6 lookup 12 subtable" two.ss01
Substitution2: "'ss05' Style Set 5 lookup 11 subtable" B.ss05
Substitution2: "'ss04' Style Set 4 lookup 10 subtable" B.ss04
Substitution2: "'ss03' Style Set 3 lookup 9 subtable" B.ss03
Substitution2: "'ss02' Style Set 2 lookup 8 subtable" B.ss02
Substitution2: "'ss01' Style Set 1 lookup 7 subtable" B.ss01
Substitution2: "'salt' Stylistic Alternatives lookup 6 subtable" B.ss01
AlternateSubs2: "'aalt' Access All Alternates lookup 1 subtable" B.ss01 B.ss02 B.ss03 B.ss04 B.ss05
Position2: "'cpsp' Capital Spacing lookup 1 subtable" dx=5 dy=0 dh=10 dv=0
EndChar

StartChar: C
Encoding: 67 67 11
Width: 619
Flags: MW
HStem: -7 100<307.511 413.396 307.511 427.5> 606 101<309.511 415.471>
VStem: 52 120.01
LayerCount: 2
Back
Fore
SplineSet
380 707 m 0
 475 707 579.010742188 675 579.010742188 641 c 0
 579.010742188 620 550.010742188 568 532.010742188 568 c 0
 528.87109375 568 523.55078125 570.58984375 515.701171875 574.419921875 c 0
 493.470703125 585.259765625 450.930664062 606 380.010742188 606 c 0
 239.010742188 606 172.010742188 526 172.010742188 350 c 0
 172.010742188 176 238.010742188 93 377.010742188 93 c 0
 449.780273438 93 498.720703125 117.360351562 525.37109375 130.620117188 c 0
 535.340820312 135.58984375 542.190429688 139 546 139 c 0
 567 139 591 85 591 70 c 0
 591 29 478 -7 377 -7 c 0
 156 -7 52 106 52 351 c 0
 52 589 163 707 380 707 c 0
EndSplineSet
Substitution2: "'ss06' Style Set 6 lookup 12 subtable" three.ss01
Substitution2: "'ss05' Style Set 5 lookup 11 subtable" C.ss05
Substitution2: "'ss04' Style Set 4 lookup 10 subtable" C.ss04
Substitution2: "'ss03' Style Set 3 lookup 9 subtable" C.ss03
Substitution2: "'ss02' Style Set 2 lookup 8 subtable" C.ss02
Substitution2: "'ss01' Style Set 1 lookup 7 subtable" C.ss01
Substitution2: "'salt' Stylistic Alternatives lookup 6 subtable" C.ss01
AlternateSubs2: "'aalt' Access All Alternates lookup 1 subtable" C.ss01 C.ss02 C.ss03 C.ss04 C.ss05
Position2: "'cpsp' Capital Spacing lookup 1 subtable" dx=5 dy=0 dh=10 dv=0
EndChar

StartChar: Ccedilla
Encoding: 199 199 12
Width: 619
Flags: MW
HStem: -211 60 -6.74001 99.74 606 101<309.511 415.471>
VStem: 52 120 381.01 85
LayerCount: 2
Back
Fore
SplineSet
591 70 m 0
 591 31.01953125 488.913085938 -3.4306640625 392.073242188 -6.740234375 c 1
 382.092773438 -43.1201171875 l 1
 412.462890625 -44.48046875 466.012695312 -58.4306640625 466.012695312 -117.000976562 c 0
 466.012695312 -191.000976562 412.012695312 -211.000976562 349.012695312 -211.000976562 c 0
 299.012695312 -211.000976562 227.012695312 -194.000976562 227.012695312 -165.000976562 c 0
 227.012695312 -143.000976562 240.012695312 -131.000976562 252.012695312 -131.000976562 c 0
 259.762695312 -131.000976562 268.842773438 -134.331054688 279.602539062 -138.271484375 c 0
 295.202148438 -143.991210938 314.33203125 -151.000976562 338.01171875 -151.000976562 c 0
 360.01171875 -151.000976562 381.01171875 -147.000976562 381.01171875 -124.000976562 c 0
 381.01171875 -104.37109375 362.861328125 -97.8212890625 346.361328125 -91.87109375 c 0
 332.611328125 -86.9111328125 320.000976562 -82.37109375 320.000976562 -71.0009765625 c 0
 320.000976562 -64.390625 321.791015625 -58.6708984375 338.840820312 -5.80078125 c 1
 144.010742188 6.8896484375 52.0107421875 120.559570312 52.0107421875 351 c 0
 52.0107421875 589 163.010742188 707 380.010742188 707 c 0
 475.010742188 707 579.010742188 675 579.010742188 641 c 0
 579.010742188 620 550.010742188 568 532.010742188 568 c 0
 528.87109375 568 523.55078125 570.58984375 515.701171875 574.419921875 c 0
 493.470703125 585.259765625 450.930664062 606 380.010742188 606 c 0
 239.010742188 606 172.010742188 526 172.010742188 350 c 0
 172.010742188 176 238.010742188 93 377.010742188 93 c 0
 449.780273438 93 498.720703125 117.360351562 525.37109375 130.620117188 c 0
 535.340820312 135.58984375 542.190429688 139 546 139 c 0
 567 139 591 85 591 70 c 0
EndSplineSet
Position2: "'cpsp' Capital Spacing lookup 1 subtable" dx=5 dy=0 dh=10 dv=0
EndChar

StartChar: D
Encoding: 68 68 13
Width: 695
Flags: MW
HStem: 0 100<107 327 202 327 327 331> 600 100<202 202 202 327>
VStem: 85 117<100 600 100 666 100 678> 524 121<262.5 437>
LayerCount: 2
Back
Fore
SplineSet
331 700 m 2
 518 700 645 595 645 350 c 0
 645 105 518 0 331 0 c 2
 119 0 l 2
 95 0 85 10 85 34 c 2
 85 666 l 2
 85 690 95 700 119 700 c 2
 331 700 l 2
202 600 m 1
 202 100 l 1
 327 100 l 2
 444 100 524 175 524 350 c 0
 524 524 444 600 327 600 c 2
 202 600 l 1
EndSplineSet
Substitution2: "'ss06' Style Set 6 lookup 12 subtable" four.ss01
Substitution2: "'ss05' Style Set 5 lookup 11 subtable" D.ss05
Substitution2: "'ss04' Style Set 4 lookup 10 subtable" D.ss04
Substitution2: "'ss03' Style Set 3 lookup 9 subtable" D.ss03
Substitution2: "'ss02' Style Set 2 lookup 8 subtable" D.ss02
Substitution2: "'ss01' Style Set 1 lookup 7 subtable" D.ss01
Substitution2: "'salt' Stylistic Alternatives lookup 6 subtable" D.ss01
AlternateSubs2: "'aalt' Access All Alternates lookup 1 subtable" D.ss01 D.ss02 D.ss03 D.ss04 D.ss05
Position2: "'cpsp' Capital Spacing lookup 1 subtable" dx=5 dy=0 dh=10 dv=0
EndChar

StartChar: Eth
Encoding: 208 208 14
Width: 696
Flags: MW
HStem: 0 100<101 328 196 328 328 332> 307 100<20.5 79 29 79 196 284> 600 100<196 196 196 328>
VStem: 79 117<100 307 100 307 100 307 407 600> 527 120<262.5 437>
LayerCount: 2
Back
Fore
SplineSet
332 700 m 2
 519 700 647 595 647 350 c 0
 647 105 519 0 332 0 c 2
 113 0 l 2
 89 0 79 10 79 34 c 2
 79 307 l 1
 29 307 l 2
 12 307 5 319 5 346 c 2
 5 368 l 2
 5 395 12 407 29 407 c 2
 79 407 l 1
 79 666 l 2
 79 690 89 700 113 700 c 2
 332 700 l 2
196 600 m 1
 196 407 l 1
 284 407 l 2
 301 407 308 395 308 368 c 2
 308 346 l 2
 308 319 301 307 284 307 c 2
 196 307 l 1
 196 100 l 1
 328 100 l 2
 445 100 527 175 527 350 c 0
 527 524 445 600 328 600 c 2
 196 600 l 1
EndSplineSet
Position2: "'cpsp' Capital Spacing lookup 1 subtable" dx=5 dy=0 dh=10 dv=0
EndChar

StartChar: E
Encoding: 69 69 15
Width: 546
Flags: MW
HStem: 0 100<107 477 202 477 202 477> 308 100<202 447 202 447> 600 100<202 476 202 202>
VStem: 85 117<100 308 408 600>
LayerCount: 2
Back
Fore
SplineSet
476 700 m 2
 493 700 500 688 500 661 c 2
 500 639 l 2
 500 612 493 600 476 600 c 2
 202 600 l 1
 202 408 l 1
 447 408 l 2
 464 408 471 397 471 369 c 2
 471 347 l 2
 471 320 464 308 447 308 c 2
 202 308 l 1
 202 100 l 1
 477 100 l 2
 494 100 501 88 501 61 c 2
 501 39 l 2
 501 12 494 0 477 0 c 2
 119 0 l 2
 95 0 85 10 85 34 c 2
 85 666 l 2
 85 690 95 700 119 700 c 2
 476 700 l 2
EndSplineSet
Substitution2: "'ss06' Style Set 6 lookup 12 subtable" five.ss01
Substitution2: "'ss05' Style Set 5 lookup 11 subtable" E.ss05
Substitution2: "'ss04' Style Set 4 lookup 10 subtable" E.ss04
Substitution2: "'ss03' Style Set 3 lookup 9 subtable" E.ss03
Substitution2: "'ss02' Style Set 2 lookup 8 subtable" E.ss02
Substitution2: "'ss01' Style Set 1 lookup 7 subtable" E.ss01
Substitution2: "'salt' Stylistic Alternatives lookup 6 subtable" E.ss01
AlternateSubs2: "'aalt' Access All Alternates lookup 1 subtable" E.ss01 E.ss02 E.ss03 E.ss04 E.ss05
Position2: "'cpsp' Capital Spacing lookup 1 subtable" dx=5 dy=0 dh=10 dv=0
EndChar

StartChar: Eacute
Encoding: 201 201 16
Width: 546
Flags: MW
HStem: 0 100 308 100 600 100
VStem: 85.01 117
LayerCount: 2
Back
Fore
SplineSet
376 910 m 0
 412 910 429.009765625 906.998046875 429.009765625 895.998046875 c 0
 429.009765625 887.23828125 423.939453125 881.658203125 376.529296875 829.358398438 c 0
 364.359375 815.928710938 349.389648438 799.428710938 331 778.999023438 c 0
 320 766.999023438 302 757.999023438 269 757.999023438 c 0
 250 757.999023438 243 760.999023438 243 769.999023438 c 0
 243 777.7890625 252.120117188 793.489257812 277.940429688 837.939453125 c 0
 285.23046875 850.509765625 293.860351562 865.370117188 304 883 c 0
 315 903 341 910 376 910 c 0
476.009765625 699.998046875 m 2
 493.009765625 699.998046875 500.009765625 687.998046875 500.009765625 660.998046875 c 2
 500.009765625 638.998046875 l 2
 500.009765625 611.998046875 493.009765625 599.998046875 476.009765625 599.998046875 c 2
 202.009765625 599.998046875 l 1
 202.009765625 407.998046875 l 1
 447.009765625 407.998046875 l 2
 464.009765625 407.998046875 471.009765625 396.998046875 471.009765625 368.998046875 c 2
 471.009765625 346.998046875 l 2
 471.009765625 319.998046875 464.009765625 307.998046875 447.009765625 307.998046875 c 2
 202.009765625 307.998046875 l 1
 202.009765625 99.998046875 l 1
 477.009765625 99.998046875 l 2
 494.009765625 99.998046875 501.009765625 87.998046875 501.009765625 60.998046875 c 2
 501.009765625 38.998046875 l 2
 501.009765625 11.998046875 494.009765625 -0.001953125 477.009765625 -0.001953125 c 2
 119.009765625 -0.001953125 l 2
 95.009765625 -0.001953125 85.009765625 9.998046875 85.009765625 33.998046875 c 2
 85.009765625 665.998046875 l 2
 85.009765625 689.998046875 95.009765625 699.998046875 119.009765625 699.998046875 c 2
 476.009765625 699.998046875 l 2
EndSplineSet
Position2: "'cpsp' Capital Spacing lookup 1 subtable" dx=5 dy=0 dh=10 dv=0
EndChar

StartChar: Ecircumflex
Encoding: 202 202 17
Width: 546
Flags: MW
HStem: 0 100<107 477 202 477 202 477> 308 100<202 447 202 447> 600 100<202 476 202 202> 751 144<182.5 305 190 305 286 391 286 402>
VStem: 85 117<100 308 408 600>
LayerCount: 2
Back
Fore
SplineSet
305 895 m 2
 329 895 347 891 358 874 c 2
 418 780 l 2
 422 774 424 769 424 764 c 0
 424 756 417 751 402 751 c 2
 391 751 l 2
 371 751 354 756 343 769 c 2
 295 828 l 1
 249 769 l 2
 237 755 221 751 200 751 c 2
 190 751 l 2
 175 751 168 755 168 764 c 0
 168 768 170 774 174 780 c 2
 234 874 l 2
 244 891 263 895 286 895 c 2
 305 895 l 2
476 700 m 2
 493 700 500 688 500 661 c 2
 500 639 l 2
 500 612 493 600 476 600 c 2
 202 600 l 1
 202 408 l 1
 447 408 l 2
 464 408 471 397 471 369 c 2
 471 347 l 2
 471 320 464 308 447 308 c 2
 202 308 l 1
 202 100 l 1
 477 100 l 2
 494 100 501 88 501 61 c 2
 501 39 l 2
 501 12 494 0 477 0 c 2
 119 0 l 2
 95 0 85 10 85 34 c 2
 85 666 l 2
 85 690 95 700 119 700 c 2
 476 700 l 2
EndSplineSet
Position2: "'cpsp' Capital Spacing lookup 1 subtable" dx=5 dy=0 dh=10 dv=0
EndChar

StartChar: Edieresis
Encoding: 203 203 18
Width: 546
Flags: MW
HStem: 0 100<107 477 202 477 202 477> 308 100<202 447 202 447> 600 100<202 476 202 202> 771 108<199 233 359 393>
VStem: 85 117<100 308 408 600> 166 100<798 853 789.5 861> 326 100<798 853 789.5 861>
LayerCount: 2
Back
Fore
SplineSet
217 879 m 0xf6
 251 879 266 870 266 853 c 2
 266 798 l 2
 266 781 251 771 215 771 c 0
 181 771 166 781 166 798 c 2
 166 853 l 2
 166 869 181 879 217 879 c 0xf6
377 879 m 0
 411 879 426 870 426 853 c 2
 426 798 l 2
 426 781 411 771 375 771 c 0
 341 771 326 781 326 798 c 2
 326 853 l 2
 326 869 341 879 377 879 c 0
476 700 m 2
 493 700 500 688 500 661 c 2
 500 639 l 2
 500 612 493 600 476 600 c 2
 202 600 l 1
 202 408 l 1
 447 408 l 2
 464 408 471 397 471 369 c 2
 471 347 l 2
 471 320 464 308 447 308 c 2
 202 308 l 1
 202 100 l 1
 477 100 l 2
 494 100 501 88 501 61 c 2
 501 39 l 2
 501 12 494 0 477 0 c 2
 119 0 l 2
 95 0 85 10 85 34 c 2
 85 666 l 2
 85 690 95 700 119 700 c 2xea
 476 700 l 2
EndSplineSet
Position2: "'cpsp' Capital Spacing lookup 1 subtable" dx=5 dy=0 dh=10 dv=0
EndChar

StartChar: Egrave
Encoding: 200 200 19
Width: 546
Flags: MW
HStem: 0 100 307.99 100 599.99 100
VStem: 85 117
LayerCount: 2
Back
Fore
SplineSet
224 910 m 0
 260 910 285.000976562 902.990234375 296.000976562 882.990234375 c 0
 306.130859375 865.360351562 314.760742188 850.5 322.060546875 837.940429688 c 0
 347.870117188 793.490234375 356.990234375 777.790039062 356.990234375 769.990234375 c 0
 356.990234375 760.990234375 349.990234375 757.990234375 330.990234375 757.990234375 c 0
 297.990234375 757.990234375 279.990234375 766.990234375 268.990234375 778.990234375 c 0
 245.400390625 805.5 227.430664062 825.41015625 213.760742188 840.549804688 c 0
 175.860351562 882.530273438 171 887.91015625 171 896 c 0
 171 907 189 910 224 910 c 0
476.000976562 699.990234375 m 2
 493.000976562 699.990234375 500.000976562 687.990234375 500.000976562 660.990234375 c 2
 500.000976562 638.990234375 l 2
 500.000976562 611.990234375 493.000976562 599.990234375 476.000976562 599.990234375 c 2
 202.000976562 599.990234375 l 1
 202.000976562 407.990234375 l 1
 447.000976562 407.990234375 l 2
 464.000976562 407.990234375 471.000976562 396.990234375 471.000976562 368.990234375 c 2
 471.000976562 346.990234375 l 2
 471.000976562 319.990234375 464.000976562 307.990234375 447.000976562 307.990234375 c 2
 202.000976562 307.990234375 l 1
 202.000976562 99.990234375 l 1
 477.000976562 99.990234375 l 2
 494.000976562 99.990234375 501.000976562 87.990234375 501.000976562 60.990234375 c 2
 501.000976562 38.990234375 l 2
 501.000976562 11.990234375 494.000976562 -0.009765625 477.000976562 -0.009765625 c 2
 119.000976562 -0.009765625 l 2
 95.0009765625 -0.009765625 85.0009765625 9.990234375 85.0009765625 33.990234375 c 2
 85.0009765625 665.990234375 l 2
 85.0009765625 689.990234375 95.0009765625 699.990234375 119.000976562 699.990234375 c 2
 476.000976562 699.990234375 l 2
EndSplineSet
Position2: "'cpsp' Capital Spacing lookup 1 subtable" dx=5 dy=0 dh=10 dv=0
EndChar

StartChar: F
Encoding: 70 70 20
Width: 503
Flags: MW
HStem: 308 100<202 429 202 429> 600 100<202 443 202 202>
VStem: 85 117<24 308 408 600>
LayerCount: 2
Back
Fore
SplineSet
443 700 m 2
 460 700 467 688 467 661 c 2
 467 639 l 2
 467 612 460 600 443 600 c 2
 202 600 l 1
 202 408 l 1
 429 408 l 2
 447 408 454 396 454 369 c 2
 454 347 l 2
 454 319 447 308 429 308 c 2
 202 308 l 1
 202 24 l 2
 202 7 187 -2 153 -2 c 2
 134 -2 l 2
 100 -2 85 7 85 24 c 2
 85 666 l 2
 85 690 95 700 119 700 c 2
 443 700 l 2
EndSplineSet
Substitution2: "'ss06' Style Set 6 lookup 12 subtable" six.ss01
Substitution2: "'ss05' Style Set 5 lookup 11 subtable" F.ss05
Substitution2: "'ss04' Style Set 4 lookup 10 subtable" F.ss04
Substitution2: "'ss03' Style Set 3 lookup 9 subtable" F.ss03
Substitution2: "'ss02' Style Set 2 lookup 8 subtable" F.ss02
Substitution2: "'ss01' Style Set 1 lookup 7 subtable" F.ss01
Substitution2: "'salt' Stylistic Alternatives lookup 6 subtable" F.ss01
AlternateSubs2: "'aalt' Access All Alternates lookup 1 subtable" F.ss01 F.ss02 F.ss03 F.ss04 F.ss05
Position2: "'cpsp' Capital Spacing lookup 1 subtable" dx=5 dy=0 dh=10 dv=0
EndChar

StartChar: G
Encoding: 71 71 21
Width: 672
Flags: MW
HStem: -7 100<298 394 298 417.5> 273 100<367 563 376 480> 606 101<304.5 415.46>
VStem: 52 120<276 434 276 469.5> 480 117<104 273 273 273>
LayerCount: 2
Back
Fore
SplineSet
380 707 m 0
 475 707 580.999023438 675 580.999023438 641 c 0
 580.999023438 620 551.999023438 568 533.999023438 568 c 0
 530.869140625 568 525.409179688 570.58984375 517.349609375 574.419921875 c 0
 494.559570312 585.259765625 450.919921875 606 380 606 c 0
 229 606 172 516 172 352 c 0
 172 200 223 93 373 93 c 0
 415 93 453 97 480 104 c 1
 480 273 l 1
 376 273 l 2
 358 273 351 284 351 312 c 2
 351 334 l 2
 351 362 358 373 376 373 c 2
 563 373 l 2
 587 373 597 363 597 339 c 2
 597 68 l 2
 597 7 465 -7 370 -7 c 0
 160 -7 52 106 52 347 c 0
 52 592 166 707 380 707 c 0
EndSplineSet
Substitution2: "'ss06' Style Set 6 lookup 12 subtable" seven.ss01
Substitution2: "'ss05' Style Set 5 lookup 11 subtable" G.ss05
Substitution2: "'ss04' Style Set 4 lookup 10 subtable" G.ss04
Substitution2: "'ss03' Style Set 3 lookup 9 subtable" G.ss03
Substitution2: "'ss02' Style Set 2 lookup 8 subtable" G.ss02
Substitution2: "'ss01' Style Set 1 lookup 7 subtable" G.ss01
Substitution2: "'salt' Stylistic Alternatives lookup 6 subtable" G.ss01
AlternateSubs2: "'aalt' Access All Alternates lookup 1 subtable" G.ss01 G.ss02 G.ss03 G.ss04 G.ss05
Position2: "'cpsp' Capital Spacing lookup 1 subtable" dx=5 dy=0 dh=10 dv=0
EndChar

StartChar: H
Encoding: 72 72 22
Width: 733
Flags: MW
HStem: 308 100<208 530 208 530>
VStem: 91 117<24 308 408 676> 530 117<24 308 308 308 408 676>
LayerCount: 2
Back
Fore
SplineSet
599 702 m 2
 633 702 647 693 647 676 c 2
 647 24 l 2
 647 7 633 -2 599 -2 c 2
 579 -2 l 2
 545 -2 530 7 530 24 c 2
 530 308 l 1
 208 308 l 1
 208 24 l 2
 208 7 194 -2 160 -2 c 2
 140 -2 l 2
 106 -2 91 7 91 24 c 2
 91 676 l 2
 91 693 106 702 140 702 c 2
 160 702 l 2
 194 702 208 693 208 676 c 2
 208 408 l 1
 530 408 l 1
 530 676 l 2
 530 693 545 702 579 702 c 2
 599 702 l 2
EndSplineSet
Substitution2: "'ss06' Style Set 6 lookup 12 subtable" eight.ss01
Substitution2: "'ss05' Style Set 5 lookup 11 subtable" H.ss05
Substitution2: "'ss04' Style Set 4 lookup 10 subtable" H.ss04
Substitution2: "'ss02' Style Set 2 lookup 8 subtable" H.ss02
Substitution2: "'ss01' Style Set 1 lookup 7 subtable" H.ss01
Substitution2: "'salt' Stylistic Alternatives lookup 6 subtable" H.ss01
AlternateSubs2: "'aalt' Access All Alternates lookup 1 subtable" H.ss01 H.ss02 H.ss04 H.ss05
Position2: "'cpsp' Capital Spacing lookup 1 subtable" dx=5 dy=0 dh=10 dv=0
EndChar

StartChar: I
Encoding: 73 73 23
Width: 282
Flags: MW
HStem: -2 704<114 151 131 151>
VStem: 82 117<24 676>
LayerCount: 2
Back
Fore
SplineSet
151 702 m 2
 185 702 199 693 199 676 c 2
 199 24 l 2
 199 7 185 -2 151 -2 c 2
 131 -2 l 2
 97 -2 82 7 82 24 c 2
 82 676 l 2
 82 693 97 702 131 702 c 2
 151 702 l 2
EndSplineSet
Substitution2: "'ss06' Style Set 6 lookup 12 subtable" one.ss02
Substitution2: "'ss05' Style Set 5 lookup 11 subtable" I.ss05
Substitution2: "'ss04' Style Set 4 lookup 10 subtable" I.ss04
Substitution2: "'ss02' Style Set 2 lookup 8 subtable" I.ss02
Substitution2: "'ss01' Style Set 1 lookup 7 subtable" I.ss01
Substitution2: "'salt' Stylistic Alternatives lookup 6 subtable" I.ss01
AlternateSubs2: "'aalt' Access All Alternates lookup 1 subtable" I.ss01 I.ss02 I.ss04 I.ss05
Position2: "'cpsp' Capital Spacing lookup 1 subtable" dx=5 dy=0 dh=10 dv=0
EndChar

StartChar: Iacute
Encoding: 205 205 24
Width: 282
Flags: MW
HStem: -2 912
VStem: 82.01 117
LayerCount: 2
Back
Fore
SplineSet
221 910 m 0
 257 910 274.009765625 906.998046875 274.009765625 895.998046875 c 0
 274.009765625 887.23828125 268.939453125 881.658203125 221.529296875 829.358398438 c 0
 209.359375 815.928710938 194.389648438 799.428710938 176 778.999023438 c 0
 165 766.999023438 147 757.999023438 114 757.999023438 c 0
 95 757.999023438 88 760.999023438 88 769.999023438 c 0
 88 777.7890625 97.1201171875 793.489257812 122.940429688 837.939453125 c 0
 130.23046875 850.509765625 138.860351562 865.370117188 149 883 c 0
 160 903 186 910 221 910 c 0
151.009765625 701.998046875 m 2
 185.009765625 701.998046875 199.009765625 692.998046875 199.009765625 675.998046875 c 2
 199.009765625 23.998046875 l 2
 199.009765625 6.998046875 185.009765625 -2.001953125 151.009765625 -2.001953125 c 2
 131.009765625 -2.001953125 l 2
 97.009765625 -2.001953125 82.009765625 6.998046875 82.009765625 23.998046875 c 2
 82.009765625 675.998046875 l 2
 82.009765625 692.998046875 97.009765625 701.998046875 131.009765625 701.998046875 c 2
 151.009765625 701.998046875 l 2
EndSplineSet
Position2: "'cpsp' Capital Spacing lookup 1 subtable" dx=5 dy=0 dh=10 dv=0
EndChar

StartChar: Icircumflex
Encoding: 206 206 25
Width: 282
Flags: MW
HStem: 751 144<27.5 150 35 150 131 236 131 247>
VStem: 82 117<24 676>
LayerCount: 2
Back
Fore
SplineSet
150 895 m 2
 174 895 192 891 203 874 c 2
 263 780 l 2
 267 774 269 769 269 764 c 0
 269 756 262 751 247 751 c 2
 236 751 l 2
 216 751 199 756 188 769 c 2
 140 828 l 1
 94 769 l 2
 82 755 66 751 45 751 c 2
 35 751 l 2
 20 751 13 755 13 764 c 0
 13 768 15 774 19 780 c 2
 79 874 l 2
 89 891 108 895 131 895 c 2
 150 895 l 2
151 702 m 2
 185 702 199 693 199 676 c 2
 199 24 l 2
 199 7 185 -2 151 -2 c 2
 131 -2 l 2
 97 -2 82 7 82 24 c 2
 82 676 l 2
 82 693 97 702 131 702 c 2
 151 702 l 2
EndSplineSet
Position2: "'cpsp' Capital Spacing lookup 1 subtable" dx=5 dy=0 dh=10 dv=0
EndChar

StartChar: Idieresis
Encoding: 207 207 26
Width: 282
Flags: MW
HStem: 771 108<44 78 204 238>
VStem: 11 100<798 853 789.5 861> 82 117<24 676> 171 100<798 853 789.5 861>
LayerCount: 2
Back
Fore
SplineSet
62 879 m 0xd0
 96 879 111 870 111 853 c 2
 111 798 l 2
 111 781 96 771 60 771 c 0
 26 771 11 781 11 798 c 2
 11 853 l 2
 11 869 26 879 62 879 c 0xd0
222 879 m 0
 256 879 271 870 271 853 c 2
 271 798 l 2
 271 781 256 771 220 771 c 0
 186 771 171 781 171 798 c 2
 171 853 l 2
 171 869 186 879 222 879 c 0
151 702 m 2xa0
 185 702 199 693 199 676 c 2
 199 24 l 2
 199 7 185 -2 151 -2 c 2
 131 -2 l 2
 97 -2 82 7 82 24 c 2
 82 676 l 2
 82 693 97 702 131 702 c 2
 151 702 l 2xa0
EndSplineSet
Position2: "'cpsp' Capital Spacing lookup 1 subtable" dx=5 dy=0 dh=10 dv=0
EndChar

StartChar: Igrave
Encoding: 204 204 27
Width: 282
Flags: MW
HStem: -2 912.01
VStem: 82 117
LayerCount: 2
Back
Fore
SplineSet
69 910 m 0
 105 910 130.000976562 902.990234375 141.000976562 882.990234375 c 0
 151.130859375 865.360351562 159.760742188 850.5 167.060546875 837.940429688 c 0
 192.870117188 793.490234375 201.990234375 777.790039062 201.990234375 769.990234375 c 0
 201.990234375 760.990234375 194.990234375 757.990234375 175.990234375 757.990234375 c 0
 142.990234375 757.990234375 124.990234375 766.990234375 113.990234375 778.990234375 c 0
 90.400390625 805.5 72.4306640625 825.41015625 58.7607421875 840.549804688 c 0
 20.8603515625 882.530273438 16 887.91015625 16 896 c 0
 16 907 34 910 69 910 c 0
151.000976562 701.990234375 m 2
 185.000976562 701.990234375 199.000976562 692.990234375 199.000976562 675.990234375 c 2
 199.000976562 23.990234375 l 2
 199.000976562 6.990234375 185.000976562 -2.009765625 151.000976562 -2.009765625 c 2
 131.000976562 -2.009765625 l 2
 97.0009765625 -2.009765625 82.0009765625 6.990234375 82.0009765625 23.990234375 c 2
 82.0009765625 675.990234375 l 2
 82.0009765625 692.990234375 97.0009765625 701.990234375 131.000976562 701.990234375 c 2
 151.000976562 701.990234375 l 2
EndSplineSet
Position2: "'cpsp' Capital Spacing lookup 1 subtable" dx=5 dy=0 dh=10 dv=0
EndChar

StartChar: J
Encoding: 74 74 28
Width: 402
Flags: MW
HStem: -7 101<97.999 134 82.5449 189.999>
VStem: 209 117
LayerCount: 2
Back
Fore
SplineSet
277 702 m 2
 311 702 325.999023438 693 325.999023438 676 c 2
 325.999023438 204 l 2
 325.999023438 77 265.999023438 -7 113.999023438 -7 c 0
 81.9990234375 -7 2.9990234375 -3 2.9990234375 31 c 0
 2.9990234375 41 10.9990234375 102 32.9990234375 103 c 0
 36.119140625 103 40.439453125 101.919921875 46.0791015625 100.509765625 c 0
 56.7294921875 97.83984375 72.08984375 94 93 94 c 0
 175 94 209 129 209 209 c 2
 209 676 l 2
 209 693 223 702 258 702 c 2
 277 702 l 2
EndSplineSet
Substitution2: "'ss06' Style Set 6 lookup 12 subtable" two.ss02
Substitution2: "'ss05' Style Set 5 lookup 11 subtable" J.ss05
Substitution2: "'ss04' Style Set 4 lookup 10 subtable" J.ss04
Substitution2: "'ss02' Style Set 2 lookup 8 subtable" J.ss02
Substitution2: "'ss01' Style Set 1 lookup 7 subtable" J.ss01
Substitution2: "'salt' Stylistic Alternatives lookup 6 subtable" J.ss01
AlternateSubs2: "'aalt' Access All Alternates lookup 1 subtable" J.ss01 J.ss02 J.ss04 J.ss05
Position2: "'cpsp' Capital Spacing lookup 1 subtable" dx=5 dy=0 dh=10 dv=0
EndChar

StartChar: K
Encoding: 75 75 29
Width: 576
Flags: MW
HStem: -2 704<117 154 134 154 494.5 504 504 507 507 519 134 539>
VStem: 85 117<24 327 386 676>
LayerCount: 2
Back
Fore
SplineSet
504 702 m 2
 534 702 548 696 548 688 c 0
 548 683 545 676 539 668 c 2
 313 363 l 1
 580 31 l 2
 586 22 588 17 588 12 c 0
 588 2 574 -2 539 -2 c 2
 507 -2 l 2
 482 -2 460 0 449 14 c 2
 206 328 l 1
 202 327 l 1
 202 24 l 2
 202 7 188 -2 154 -2 c 2
 134 -2 l 2
 100 -2 85 7 85 24 c 2
 85 676 l 2
 85 693 100 702 134 702 c 2
 154 702 l 2
 188 702 202 693 202 676 c 2
 202 386 l 1
 206 386 l 1
 421 686 l 2
 430 699 452 702 477 702 c 2
 504 702 l 2
EndSplineSet
Substitution2: "'ss06' Style Set 6 lookup 12 subtable" three.ss02
Substitution2: "'ss04' Style Set 4 lookup 10 subtable" K.ss04
Substitution2: "'ss02' Style Set 2 lookup 8 subtable" K.ss02
Substitution2: "'ss01' Style Set 1 lookup 7 subtable" K.ss01
Substitution2: "'salt' Stylistic Alternatives lookup 6 subtable" K.ss01
AlternateSubs2: "'aalt' Access All Alternates lookup 1 subtable" K.ss01 K.ss02 K.ss04
Position2: "'cpsp' Capital Spacing lookup 1 subtable" dx=5 dy=0 dh=10 dv=0
EndChar

StartChar: L
Encoding: 76 76 30
Width: 484
Flags: MW
HStem: 0 100<107 454 202 454 202 454>
VStem: 85 117<100 676 100 676 100 684.5>
LayerCount: 2
Back
Fore
SplineSet
153 702 m 2
 187 702 202 693 202 676 c 2
 202 100 l 1
 454 100 l 2
 471 100 478 88 478 61 c 2
 478 39 l 2
 478 12 471 0 454 0 c 2
 119 0 l 2
 95 0 85 10 85 34 c 2
 85 676 l 2
 85 693 100 702 134 702 c 2
 153 702 l 2
EndSplineSet
Substitution2: "'ss06' Style Set 6 lookup 12 subtable" four.ss02
Substitution2: "'ss04' Style Set 4 lookup 10 subtable" L.ss04
Substitution2: "'ss01' Style Set 1 lookup 7 subtable" L.ss01
Substitution2: "'salt' Stylistic Alternatives lookup 6 subtable" L.ss01
AlternateSubs2: "'aalt' Access All Alternates lookup 1 subtable" L.ss01 L.ss04
Position2: "'cpsp' Capital Spacing lookup 1 subtable" dx=5 dy=0 dh=10 dv=0
EndChar

StartChar: Lslash
Encoding: 321 321 31
Width: 486
Flags: MW
HStem: 0 100<101 457 195 457 195 457>
VStem: 79 116<100 327 327 327 388 398 459 676>
LayerCount: 2
Back
Fore
SplineSet
147 702 m 2
 181 702 195 693 195 676 c 2
 195 459 l 1
 294 518 l 2
 299 521 303 523 306 523 c 0
 312 523 316 517 316 507 c 2
 316 495 l 2
 316 478 309 466 294 458 c 2
 195 398 l 1
 195 100 l 1
 457 100 l 2
 474 100 481 88 481 61 c 2
 481 39 l 2
 481 12 474 0 457 0 c 2
 113 0 l 2
 89 0 79 10 79 34 c 2
 79 327 l 1
 32 300 l 2
 27 296 23 295 20 295 c 0
 14 295 10 301 10 312 c 2
 10 324 l 2
 10 341 17 352 32 361 c 2
 79 388 l 1
 79 676 l 2
 79 693 93 702 127 702 c 2
 147 702 l 2
EndSplineSet
Position2: "'cpsp' Capital Spacing lookup 1 subtable" dx=5 dy=0 dh=10 dv=0
EndChar

StartChar: M
Encoding: 77 77 32
Width: 843
Flags: MW
HStem: -2 704<113 173 130 146 680 697 697 714>
VStem: 81 114<24 512> 648 114<24 508 508 508>
LayerCount: 2
Back
Fore
SplineSet
714 702 m 2
 748 702 762 693 762 676 c 2
 762 24 l 2
 762 7 748 -2 714 -2 c 2
 697 -2 l 2
 663 -2 648 7 648 24 c 2
 648 508 l 1
 645 506 l 1
 470 198 l 2
 463 188 455 183 440 183 c 2
 405 183 l 2
 391 183 382 188 375 198 c 2
 198 510 l 1
 195 512 l 1
 195 24 l 2
 195 7 180 -2 146 -2 c 2
 130 -2 l 2
 96 -2 81 7 81 24 c 2
 81 676 l 2
 81 693 96 702 130 702 c 2
 173 702 l 2
 199 702 216 695 224 680 c 2
 404 365 l 1
 422 323 l 1
 441 363 l 1
 621 680 l 2
 629 695 646 702 672 702 c 2
 714 702 l 2
EndSplineSet
Substitution2: "'ss06' Style Set 6 lookup 12 subtable" five.ss02
Substitution2: "'ss04' Style Set 4 lookup 10 subtable" M.ss04
Substitution2: "'ss01' Style Set 1 lookup 7 subtable" M.ss01
Substitution2: "'salt' Stylistic Alternatives lookup 6 subtable" M.ss01
AlternateSubs2: "'aalt' Access All Alternates lookup 1 subtable" M.ss01 M.ss04
Position2: "'cpsp' Capital Spacing lookup 1 subtable" dx=5 dy=0 dh=10 dv=0
EndChar

StartChar: N
Encoding: 78 78 33
Width: 719
Flags: MW
HStem: -2 704<113 160 130 146 130 562 573 590 130 590>
VStem: 81 114<24 506> 524 114<200 676>
LayerCount: 2
Back
Fore
SplineSet
590 702 m 2
 624 702 638 693 638 676 c 2
 638 24 l 2
 638 7 624 -2 590 -2 c 2
 562 -2 l 2
 538 -2 523 3 513 18 c 2
 219 463 l 1
 195 506 l 1
 195 24 l 2
 195 7 180 -2 146 -2 c 2
 130 -2 l 2
 96 -2 81 7 81 24 c 2
 81 676 l 2
 81 693 96 702 130 702 c 2
 160 702 l 2
 185 702 201 697 213 680 c 2
 496 249 l 1
 524 200 l 1
 524 676 l 2
 524 693 539 702 573 702 c 2
 590 702 l 2
EndSplineSet
Substitution2: "'ss06' Style Set 6 lookup 12 subtable" six.ss02
Substitution2: "'ss01' Style Set 1 lookup 7 subtable" N.ss01
Substitution2: "'salt' Stylistic Alternatives lookup 6 subtable" N.ss01
Substitution2: "'aalt' Access All Alternates lookup 0 subtable" N.ss01
Position2: "'cpsp' Capital Spacing lookup 1 subtable" dx=5 dy=0 dh=10 dv=0
EndChar

StartChar: Ntilde
Encoding: 209 209 34
Width: 719
Flags: MW
HStem: 763 63<422.255 438 422.255 451.001> 808 63<279.99 291.82>
VStem: 81.01 114 524.01 114
LayerCount: 2
Back
Fore
SplineSet
431 826 m 0xb0
 445 826 453.008789062 837 466.008789062 858 c 0
 472.668945312 868.66015625 476.668945312 872.66015625 482.149414062 872.66015625 c 0
 484.889648438 872.66015625 488 871.66015625 492 870 c 2
 514 861 l 2
 520.5703125 858.009765625 523.220703125 854.309570312 523.220703125 849.049804688 c 0
 523.220703125 845.5 522.010742188 841.240234375 520.000976562 836 c 0
 501.000976562 783 469.000976562 763 433.000976562 763 c 0xb0
 400.901367188 763 365.731445312 778.330078125 336.451171875 791.08984375 c 0
 315.55078125 800.200195312 297.650390625 808 285.990234375 808 c 0
 273.990234375 808 263.990234375 798 250.990234375 776 c 0
 244.73046875 765.41015625 240.5703125 761.379882812 234.900390625 761.379882812 c 0
 232.110351562 761.379882812 228.950195312 762.349609375 224.990234375 764 c 2
 202.990234375 773 l 2
 196.419921875 775.990234375 193.780273438 779.690429688 193.780273438 784.950195312 c 0
 193.780273438 788.5 194.98046875 792.759765625 197 798 c 0
 218 856 253 871 284 871 c 0x70
 302.6796875 871 323.099609375 865.41015625 342.889648438 858.169921875 c 0
 379.259765625 844.870117188 413.509765625 826 431 826 c 0xb0
590.008789062 702 m 2
 624.008789062 702 638.008789062 693 638.008789062 676 c 2
 638.008789062 24 l 2
 638.008789062 7 624.008789062 -2 590.008789062 -2 c 2
 562.008789062 -2 l 2
 538.008789062 -2 523.008789062 3 513.008789062 18 c 2
 219.008789062 463 l 1
 195.008789062 506 l 1
 195.008789062 24 l 2
 195.008789062 7 180.008789062 -2 146.008789062 -2 c 2
 130.008789062 -2 l 2
 96.0087890625 -2 81.0087890625 7 81.0087890625 24 c 2
 81.0087890625 676 l 2
 81.0087890625 693 96.0087890625 702 130.008789062 702 c 2
 160.008789062 702 l 2
 185.008789062 702 201.008789062 697 213.008789062 680 c 2
 496.008789062 249 l 1
 524.008789062 200 l 1
 524.008789062 676 l 2
 524.008789062 693 539.008789062 702 573.008789062 702 c 2
 590.008789062 702 l 2
EndSplineSet
Position2: "'cpsp' Capital Spacing lookup 1 subtable" dx=5 dy=0 dh=10 dv=0
EndChar

StartChar: O
Encoding: 79 79 35
Width: 731
Flags: MW
HStem: -7 100<302 428.5 302 467.5> 606 101<302 428.5>
VStem: 52 120<267 435 267 467.5> 559 120<267 435>
LayerCount: 2
Back
Fore
SplineSet
366 707 m 0
 569 707 679 584 679 351 c 0
 679 118 569 -7 366 -7 c 0
 163 -7 52 118 52 351 c 0
 52 584 163 707 366 707 c 0
365 606 m 0
 239 606 172 519 172 351 c 0
 172 183 239 93 365 93 c 0
 492 93 559 183 559 351 c 0
 559 519 492 606 365 606 c 0
EndSplineSet
Substitution2: "Single Substitution lookup 13 subtable" ordmasculine
Substitution2: "'ss06' Style Set 6 lookup 12 subtable" seven.ss02
Substitution2: "'ss05' Style Set 5 lookup 11 subtable" O.ss05
Substitution2: "'ss04' Style Set 4 lookup 10 subtable" O.ss04
Substitution2: "'ss01' Style Set 1 lookup 7 subtable" O.ss01
Substitution2: "'salt' Stylistic Alternatives lookup 6 subtable" O.ss01
AlternateSubs2: "'aalt' Access All Alternates lookup 1 subtable" ordmasculine O.ss01 O.ss04 O.ss05
Position2: "'cpsp' Capital Spacing lookup 1 subtable" dx=5 dy=0 dh=10 dv=0
EndChar

StartChar: Oacute
Encoding: 211 211 36
Width: 731
Flags: MW
HStem: -7 100 606 101
VStem: 52 120 559.01 120
LayerCount: 2
Back
Fore
SplineSet
446 910 m 0
 482 910 499.009765625 906.998046875 499.009765625 895.998046875 c 0
 499.009765625 887.23828125 493.939453125 881.658203125 446.529296875 829.358398438 c 0
 434.359375 815.928710938 419.389648438 799.428710938 401 778.999023438 c 0
 390 766.999023438 372 757.999023438 339 757.999023438 c 0
 320 757.999023438 313 760.999023438 313 769.999023438 c 0
 313 777.7890625 322.120117188 793.489257812 347.940429688 837.939453125 c 0
 355.23046875 850.509765625 363.860351562 865.370117188 374 883 c 0
 385 903 411 910 446 910 c 0
366.009765625 706.998046875 m 0
 569.009765625 706.998046875 679.009765625 583.998046875 679.009765625 350.998046875 c 0
 679.009765625 117.998046875 569.009765625 -7.001953125 366.009765625 -7.001953125 c 0
 163.009765625 -7.001953125 52.009765625 117.998046875 52.009765625 350.998046875 c 0
 52.009765625 583.998046875 163.009765625 706.998046875 366.009765625 706.998046875 c 0
365.009765625 605.998046875 m 0
 239.009765625 605.998046875 172.009765625 518.998046875 172.009765625 350.998046875 c 0
 172.009765625 182.998046875 239.009765625 92.998046875 365.009765625 92.998046875 c 0
 492.009765625 92.998046875 559.009765625 182.998046875 559.009765625 350.998046875 c 0
 559.009765625 518.998046875 492.009765625 605.998046875 365.009765625 605.998046875 c 0
EndSplineSet
Position2: "'cpsp' Capital Spacing lookup 1 subtable" dx=5 dy=0 dh=10 dv=0
EndChar

StartChar: Ocircumflex
Encoding: 212 212 37
Width: 731
Flags: MW
HStem: -7 100<302 428.5 302 467.5> 606 101<302 428.5> 751 144<252.5 375 260 375 356 461 356 472>
VStem: 52 120<267 435 267 467.5> 559 120<267 435>
LayerCount: 2
Back
Fore
SplineSet
375 895 m 2
 399 895 417 891 428 874 c 2
 488 780 l 2
 492 774 494 769 494 764 c 0
 494 756 487 751 472 751 c 2
 461 751 l 2
 441 751 424 756 413 769 c 2
 365 828 l 1
 319 769 l 2
 307 755 291 751 270 751 c 2
 260 751 l 2
 245 751 238 755 238 764 c 0
 238 768 240 774 244 780 c 2
 304 874 l 2
 314 891 333 895 356 895 c 2
 375 895 l 2
366 707 m 0
 569 707 679 584 679 351 c 0
 679 118 569 -7 366 -7 c 0
 163 -7 52 118 52 351 c 0
 52 584 163 707 366 707 c 0
365 606 m 0
 239 606 172 519 172 351 c 0
 172 183 239 93 365 93 c 0
 492 93 559 183 559 351 c 0
 559 519 492 606 365 606 c 0
EndSplineSet
Position2: "'cpsp' Capital Spacing lookup 1 subtable" dx=5 dy=0 dh=10 dv=0
EndChar

StartChar: Odieresis
Encoding: 214 214 38
Width: 731
Flags: MW
HStem: -7 100<302 428.5 302 467.5> 606 101<302 428.5> 771 108<269 303 429 463>
VStem: 52 120<267 435 267 467.5> 236 100<798 853 789.5 861> 396 100<798 853 789.5 861> 559 120<267 435>
LayerCount: 2
Back
Fore
SplineSet
287 879 m 0
 321 879 336 870 336 853 c 2
 336 798 l 2
 336 781 321 771 285 771 c 0
 251 771 236 781 236 798 c 2
 236 853 l 2
 236 869 251 879 287 879 c 0
447 879 m 0
 481 879 496 870 496 853 c 2
 496 798 l 2
 496 781 481 771 445 771 c 0
 411 771 396 781 396 798 c 2
 396 853 l 2
 396 869 411 879 447 879 c 0
366 707 m 0
 569 707 679 584 679 351 c 0
 679 118 569 -7 366 -7 c 0
 163 -7 52 118 52 351 c 0
 52 584 163 707 366 707 c 0
365 606 m 0
 239 606 172 519 172 351 c 0
 172 183 239 93 365 93 c 0
 492 93 559 183 559 351 c 0
 559 519 492 606 365 606 c 0
EndSplineSet
Position2: "'cpsp' Capital Spacing lookup 1 subtable" dx=5 dy=0 dh=10 dv=0
EndChar

StartChar: Ograve
Encoding: 210 210 39
Width: 731
Flags: MW
HStem: -7.00999 100 605.99 101
VStem: 52 120 559 120
LayerCount: 2
Back
Fore
SplineSet
294 910 m 0
 330 910 355.000976562 902.990234375 366.000976562 882.990234375 c 0
 376.130859375 865.360351562 384.760742188 850.5 392.060546875 837.940429688 c 0
 417.870117188 793.490234375 426.990234375 777.790039062 426.990234375 769.990234375 c 0
 426.990234375 760.990234375 419.990234375 757.990234375 400.990234375 757.990234375 c 0
 367.990234375 757.990234375 349.990234375 766.990234375 338.990234375 778.990234375 c 0
 315.400390625 805.5 297.430664062 825.41015625 283.760742188 840.549804688 c 0
 245.860351562 882.530273438 241 887.91015625 241 896 c 0
 241 907 259 910 294 910 c 0
366.000976562 706.990234375 m 0
 569.000976562 706.990234375 679.000976562 583.990234375 679.000976562 350.990234375 c 0
 679.000976562 117.990234375 569.000976562 -7.009765625 366.000976562 -7.009765625 c 0
 163.000976562 -7.009765625 52.0009765625 117.990234375 52.0009765625 350.990234375 c 0
 52.0009765625 583.990234375 163.000976562 706.990234375 366.000976562 706.990234375 c 0
365.000976562 605.990234375 m 0
 239.000976562 605.990234375 172.000976562 518.990234375 172.000976562 350.990234375 c 0
 172.000976562 182.990234375 239.000976562 92.990234375 365.000976562 92.990234375 c 0
 492.000976562 92.990234375 559.000976562 182.990234375 559.000976562 350.990234375 c 0
 559.000976562 518.990234375 492.000976562 605.990234375 365.000976562 605.990234375 c 0
EndSplineSet
Position2: "'cpsp' Capital Spacing lookup 1 subtable" dx=5 dy=0 dh=10 dv=0
EndChar

StartChar: Oslash
Encoding: 216 216 40
Width: 731
Flags: MW
HStem: -7 100<333.5 429 333.5 466.5> 606 101<302 392.5>
VStem: 51 121<325 435 325 467.5> 559 120<267 383.5>
LayerCount: 2
Back
Fore
SplineSet
365 707 m 0
 450 707 519 684 570 642 c 1
 623 702 l 2
 629 709 635 712 641 712 c 0
 653 712 674 693 674 680 c 0
 674 675 672 670 666 664 c 2
 610 601 l 1
 655 542 679 458 679 351 c 0
 679 118 568 -7 365 -7 c 0
 268 -7 193 21 141 76 c 1
 78 6 l 2
 72 -1 66 -5 60 -5 c 0
 48 -5 27 14 27 27 c 0
 27 32 29 38 35 44 c 2
 105 122 l 1
 69 180 51 256 51 351 c 0
 51 584 162 707 365 707 c 0
365 606 m 0
 239 606 172 519 172 351 c 0
 172 299 179 255 192 219 c 1
 495 558 l 1
 463 590 420 606 365 606 c 0
219 163 m 1
 251 117 301 93 366 93 c 0
 492 93 559 183 559 351 c 0
 559 416 548 469 528 509 c 1
 219 163 l 1
EndSplineSet
Position2: "'cpsp' Capital Spacing lookup 1 subtable" dx=5 dy=0 dh=10 dv=0
EndChar

StartChar: Otilde
Encoding: 213 213 41
Width: 731
Flags: MW
HStem: -7 100<302.009 428.509 302.009 467.509> 606 101<302.009 428.509> 763 63<428.255 444 428.255 457.001> 808 63<285.99 297.82>
VStem: 52 120 559.01 120
LayerCount: 2
Back
Fore
SplineSet
437 826 m 0xec
 451 826 459.008789062 837 472.008789062 858 c 0
 478.668945312 868.66015625 482.668945312 872.66015625 488.149414062 872.66015625 c 0
 490.889648438 872.66015625 494 871.66015625 498 870 c 2
 520 861 l 2
 526.5703125 858.009765625 529.220703125 854.309570312 529.220703125 849.049804688 c 0
 529.220703125 845.5 528.010742188 841.240234375 526.000976562 836 c 0
 507.000976562 783 475.000976562 763 439.000976562 763 c 0xec
 406.901367188 763 371.731445312 778.330078125 342.451171875 791.08984375 c 0
 321.55078125 800.200195312 303.650390625 808 291.990234375 808 c 0
 279.990234375 808 269.990234375 798 256.990234375 776 c 0
 250.73046875 765.41015625 246.5703125 761.379882812 240.900390625 761.379882812 c 0
 238.110351562 761.379882812 234.950195312 762.349609375 230.990234375 764 c 2
 208.990234375 773 l 2
 202.419921875 775.990234375 199.780273438 779.690429688 199.780273438 784.950195312 c 0
 199.780273438 788.5 200.98046875 792.759765625 203 798 c 0
 224 856 259 871 290 871 c 0xdc
 308.6796875 871 329.099609375 865.41015625 348.889648438 858.169921875 c 0
 385.259765625 844.870117188 419.509765625 826 437 826 c 0xec
366.008789062 707 m 0
 569.008789062 707 679.008789062 584 679.008789062 351 c 0
 679.008789062 118 569.008789062 -7 366.008789062 -7 c 0
 163.008789062 -7 52.0087890625 118 52.0087890625 351 c 0
 52.0087890625 584 163.008789062 707 366.008789062 707 c 0
365.008789062 606 m 0
 239.008789062 606 172.008789062 519 172.008789062 351 c 0
 172.008789062 183 239.008789062 93 365.008789062 93 c 0
 492.008789062 93 559.008789062 183 559.008789062 351 c 0
 559.008789062 519 492.008789062 606 365.008789062 606 c 0
EndSplineSet
Position2: "'cpsp' Capital Spacing lookup 1 subtable" dx=5 dy=0 dh=10 dv=0
EndChar

StartChar: OE
Encoding: 338 338 42
Width: 1021
Flags: MW
HStem: -7 100 0 100 308 100<678 925 678 925> 600 100<678 954 678 678> 606 101
VStem: 52 120 559 119
LayerCount: 2
Back
Fore
SplineSet
955 100 m 2x76
 972 100 978.999023438 88.0009765625 978.999023438 61.0009765625 c 2
 978.999023438 39.0009765625 l 2
 978.999023438 12.0009765625 971.999023438 0.0009765625 954.999023438 0.0009765625 c 2
 595.999023438 0.0009765625 l 2
 571.999023438 0.0009765625 560.999023438 10.0009765625 560.999023438 35.0009765625 c 2x76
 560.999023438 57.6005859375 l 1
 510.189453125 14.3203125 443.319335938 -7 360.999023438 -7 c 0
 160.999023438 -7 51.9990234375 118 51.9990234375 351 c 0
 51.9990234375 584 160.999023438 707 360.999023438 707 c 0
 444.319335938 707 509.9296875 685.599609375 561 642.809570312 c 1xae
 561 667 l 2
 561 690 572 700 596 700 c 2
 954 700 l 2
 971 700 978 688 978 661 c 2
 978 639 l 2
 978 612 971 600 954 600 c 2
 678 600 l 1
 678 408 l 1
 925 408 l 2
 942 408 949 397 949 369 c 2
 949 347 l 2
 949 320 942 308 925 308 c 2
 678 308 l 1
 678 100 l 1
 955 100 l 2x76
364.999023438 93.0009765625 m 0xae
 491.999023438 93.0009765625 558.999023438 183.000976562 558.999023438 351.000976562 c 0
 558.999023438 519.000976562 491.999023438 606.000976562 364.999023438 606.000976562 c 0
 238.999023438 606.000976562 171.999023438 519.000976562 171.999023438 351.000976562 c 0
 171.999023438 183.000976562 238.999023438 93.0009765625 364.999023438 93.0009765625 c 0xae
EndSplineSet
Position2: "'cpsp' Capital Spacing lookup 1 subtable" dx=5 dy=0 dh=10 dv=0
EndChar

StartChar: P
Encoding: 80 80 43
Width: 570
Flags: MW
HStem: 282 101<195 322 322 328 195 322> 600 100<195 195 195 314>
VStem: 78 117<24 282 383 600> 428 120<447.5 537.5>
LayerCount: 2
Back
Fore
SplineSet
318 700 m 2
 406 700 548 673 548 494 c 0
 548 307 381 282 328 282 c 2
 195 282 l 1
 195 24 l 2
 195 7 180 -2 146 -2 c 2
 127 -2 l 2
 93 -2 78 7 78 24 c 2
 78 666 l 2
 78 690 88 700 112 700 c 2
 318 700 l 2
195 600 m 1
 195 383 l 1
 322 383 l 2
 361 383 428 401 428 494 c 0
 428 581 364 600 314 600 c 2
 195 600 l 1
EndSplineSet
Substitution2: "'ss06' Style Set 6 lookup 12 subtable" eight.ss02
Substitution2: "'ss04' Style Set 4 lookup 10 subtable" P.ss04
Substitution2: "'ss01' Style Set 1 lookup 7 subtable" P.ss01
Substitution2: "'salt' Stylistic Alternatives lookup 6 subtable" P.ss01
AlternateSubs2: "'aalt' Access All Alternates lookup 1 subtable" P.ss01 P.ss04
Position2: "'cpsp' Capital Spacing lookup 1 subtable" dx=5 dy=0 dh=10 dv=0
EndChar

StartChar: Thorn
Encoding: 222 222 44
Width: 567
Flags: MW
HStem: 167 100<195 324 324 331 195 195> 485 100<194 321 195 316>
VStem: 78 117<24 167 585 676> 430 121<332.5 422.5>
LayerCount: 2
Back
Fore
SplineSet
146 702 m 2
 180 702 195 693 195 676 c 2
 195 585 l 1
 321 585 l 2
 409 585 551 558 551 379 c 0
 551 191 384 167 331 167 c 2
 195 167 l 1
 195 24 l 2
 195 7 180 -2 146 -2 c 2
 127 -2 l 2
 93 -2 78 7 78 24 c 2
 78 676 l 2
 78 693 93 702 127 702 c 2
 146 702 l 2
194 485 m 1
 194 267 l 1
 324 267 l 2
 363 267 430 286 430 379 c 0
 430 466 366 485 316 485 c 2
 194 485 l 1
EndSplineSet
Position2: "'cpsp' Capital Spacing lookup 1 subtable" dx=5 dy=0 dh=10 dv=0
EndChar

StartChar: Q
Encoding: 81 81 45
Width: 731
Flags: MW
HStem: 606 101
VStem: 52 120 559 120
LayerCount: 2
Back
Fore
SplineSet
366 707 m 0
 569 707 678.999023438 580.999023438 678.999023438 347.999023438 c 0
 678.999023438 171.999023438 614.999023438 58.9990234375 497.999023438 15.9990234375 c 1
 497.999023438 11.9990234375 l 1
 674.999023438 -47.0009765625 l 2
 683.999023438 -50.0009765625 688.999023438 -55.0009765625 688.999023438 -62.0009765625 c 0
 688.999023438 -76.0009765625 668.999023438 -147.000976562 641.999023438 -147.000976562 c 0
 632.779296875 -147.000976562 491.609375 -90.8505859375 331.979492188 -27.3603515625 c 0
 301.069335938 -15.060546875 269.469726562 -2.490234375 238 10 c 0
 115 59 52 172 52 348 c 0
 52 582 163 707 366 707 c 0
364.999023438 605.999023438 m 0
 240.999023438 605.999023438 171.999023438 515.999023438 171.999023438 347.999023438 c 0
 171.999023438 179.999023438 240.999023438 89.9990234375 364.999023438 89.9990234375 c 0
 489.999023438 89.9990234375 558.999023438 180.999023438 558.999023438 347.999023438 c 0
 558.999023438 514.999023438 489.999023438 605.999023438 364.999023438 605.999023438 c 0
EndSplineSet
Substitution2: "'ss06' Style Set 6 lookup 12 subtable" one.ss03
Substitution2: "'ss01' Style Set 1 lookup 7 subtable" Q.ss01
Substitution2: "'salt' Stylistic Alternatives lookup 6 subtable" Q.ss01
Substitution2: "'aalt' Access All Alternates lookup 0 subtable" Q.ss01
Position2: "'cpsp' Capital Spacing lookup 1 subtable" dx=5 dy=0 dh=10 dv=0
EndChar

StartChar: R
Encoding: 82 82 46
Width: 610
Flags: MW
HStem: 293 101<202 270 202 318> 600 100<202 202 202 299 299 311>
VStem: 85 117<24 293 394 600> 424 120<477 534>
LayerCount: 2
Back
Fore
SplineSet
299 700 m 2
 463 700 544 642 544 518 c 0
 544 436 497 381 428 354 c 1
 428 350 l 1
 462 337 488 295 510 239 c 2
 592 32 l 2
 595 25 596 20 596 16 c 0
 596 5 581 -2 546 -2 c 2
 523 -2 l 2
 499 -2 480 4 475 16 c 2
 398 212 l 2
 372 273 342 293 270 293 c 2
 202 293 l 1
 202 24 l 2
 202 7 187 -2 153 -2 c 2
 134 -2 l 2
 100 -2 85 7 85 24 c 2
 85 666 l 2
 85 690 95 700 119 700 c 2
 299 700 l 2
202 600 m 1
 202 394 l 1
 318 394 l 2
 376 394 424 443 424 501 c 0
 424 567 379 600 311 600 c 2
 202 600 l 1
EndSplineSet
Substitution2: "'ss06' Style Set 6 lookup 12 subtable" two.ss03
Substitution2: "'ss01' Style Set 1 lookup 7 subtable" R.ss01
Substitution2: "'salt' Stylistic Alternatives lookup 6 subtable" R.ss01
Substitution2: "'aalt' Access All Alternates lookup 0 subtable" R.ss01
Position2: "'cpsp' Capital Spacing lookup 1 subtable" dx=5 dy=0 dh=10 dv=0
EndChar

StartChar: S
Encoding: 83 83 47
Width: 500
Flags: MW
HStem: -7 100<204.826 268.501 204.826 311.001> 606.01 100.99
VStem: 43 121<487.085 543.51 487.085 576> 353 120
LayerCount: 2
Back
Fore
SplineSet
272 707 m 0
 350 707 441.001953125 677.009765625 441.001953125 642.009765625 c 0
 441.001953125 622.009765625 415.001953125 574.009765625 399.001953125 574.009765625 c 0
 394.76171875 574.009765625 388.681640625 576.950195312 380.201171875 581.049804688 c 0
 360.720703125 590.469726562 328.5703125 606.009765625 277 606.009765625 c 0
 201 606.009765625 164 569.009765625 164 518.009765625 c 0
 164 456.16015625 215.610351562 435.959960938 277.48046875 411.740234375 c 0
 280.630859375 410.509765625 283.80078125 409.259765625 287.000976562 408 c 0
 373.000976562 374 473.000976562 334 473.000976562 198 c 0
 473.000976562 59 373.000976562 -7 249.000976562 -7 c 0
 117.000976562 -7 30.0009765625 43 30.0009765625 73 c 0
 30.0009765625 95 61.0009765625 142 77.0009765625 142 c 0
 81.30078125 142 88.720703125 137.98046875 99.30078125 132.240234375 c 0
 125.661132812 117.940429688 171.651367188 93 238.000976562 93 c 0
 299.000976562 93 353.000976562 125 353.000976562 190 c 0
 353.000976562 254.009765625 291.220703125 279.009765625 222.630859375 306.759765625 c 0
 215.140625 309.790039062 207.5703125 312.849609375 200 316 c 0
 122 349 43 388 43 514 c 0
 43 638 145 707 272 707 c 0
EndSplineSet
Substitution2: "'ss06' Style Set 6 lookup 12 subtable" three.ss03
Substitution2: "'ss01' Style Set 1 lookup 7 subtable" S.ss01
Substitution2: "'salt' Stylistic Alternatives lookup 6 subtable" S.ss01
Substitution2: "'aalt' Access All Alternates lookup 0 subtable" S.ss01
Position2: "'cpsp' Capital Spacing lookup 1 subtable" dx=5 dy=0 dh=10 dv=0
EndChar

StartChar: Scaron
Encoding: 352 352 48
Width: 500
Flags: MW
HStem: -7 100<204.826 268.501 204.826 311.001> 606.01 100.99 755 143<144 240 144 259>
VStem: 43 121<487.085 543.51 487.085 576> 353 120
LayerCount: 2
Back
Fore
SplineSet
356 898 m 2
 371 898 378 894 378 886 c 0
 378 881 376 875 372 869 c 2
 312 775 l 2
 301 759 283 755 259 755 c 2
 240 755 l 2
 217 755 198 759 188 775 c 2
 128 869 l 2
 124 876 122 882 122 886 c 0
 122 894 129 898 144 898 c 2
 154 898 l 2
 175 898 191 894 203 880 c 2
 249 821 l 1
 297 881 l 2
 308 894 325 898 345 898 c 2
 356 898 l 2
272 707 m 0
 350 707 441.001953125 677.009765625 441.001953125 642.009765625 c 0
 441.001953125 622.009765625 415.001953125 574.009765625 399.001953125 574.009765625 c 0
 394.76171875 574.009765625 388.681640625 576.950195312 380.201171875 581.049804688 c 0
 360.720703125 590.469726562 328.5703125 606.009765625 277 606.009765625 c 0
 201 606.009765625 164 569.009765625 164 518.009765625 c 0
 164 456.16015625 215.610351562 435.959960938 277.48046875 411.740234375 c 0
 280.630859375 410.509765625 283.80078125 409.259765625 287.000976562 408 c 0
 373.000976562 374 473.000976562 334 473.000976562 198 c 0
 473.000976562 59 373.000976562 -7 249.000976562 -7 c 0
 117.000976562 -7 30.0009765625 43 30.0009765625 73 c 0
 30.0009765625 95 61.0009765625 142 77.0009765625 142 c 0
 81.30078125 142 88.720703125 137.98046875 99.30078125 132.240234375 c 0
 125.661132812 117.940429688 171.651367188 93 238.000976562 93 c 0
 299.000976562 93 353.000976562 125 353.000976562 190 c 0
 353.000976562 254.009765625 291.220703125 279.009765625 222.630859375 306.759765625 c 0
 215.140625 309.790039062 207.5703125 312.849609375 200 316 c 0
 122 349 43 388 43 514 c 0
 43 638 145 707 272 707 c 0
EndSplineSet
Position2: "'cpsp' Capital Spacing lookup 1 subtable" dx=5 dy=0 dh=10 dv=0
EndChar

StartChar: T
Encoding: 84 84 49
Width: 549
Flags: MW
HStem: 600 100<30.5 510 39 217 334 510 334 334>
VStem: 217 117<24 600>
LayerCount: 2
Back
Fore
SplineSet
510 700 m 2
 527 700 534 688 534 661 c 2
 534 639 l 2
 534 612 527 600 510 600 c 2
 334 600 l 1
 334 24 l 2
 334 7 320 -2 285 -2 c 2
 266 -2 l 2
 232 -2 217 7 217 24 c 2
 217 600 l 1
 39 600 l 2
 22 600 15 612 15 639 c 2
 15 661 l 2
 15 688 22 700 39 700 c 2
 510 700 l 2
EndSplineSet
Substitution2: "'ss06' Style Set 6 lookup 12 subtable" four.ss03
Substitution2: "'ss01' Style Set 1 lookup 7 subtable" T.ss01
Substitution2: "'salt' Stylistic Alternatives lookup 6 subtable" T.ss01
Substitution2: "'aalt' Access All Alternates lookup 0 subtable" T.ss01
Position2: "'cpsp' Capital Spacing lookup 1 subtable" dx=5 dy=0 dh=10 dv=0
EndChar

StartChar: U
Encoding: 85 85 50
Width: 712
Flags: MW
HStem: -7 100<308.5 404 308.5 445.5>
VStem: 76 117<228 231 231 676> 520 117<231 676>
LayerCount: 2
Back
Fore
SplineSet
588 702 m 2
 622 702 637 693 637 676 c 2
 637 228 l 2
 637 80 535 -7 356 -7 c 0
 177 -7 76 80 76 228 c 2
 76 676 l 2
 76 693 91 702 125 702 c 2
 144 702 l 2
 178 702 193 693 193 676 c 2
 193 231 l 2
 193 150 261 93 356 93 c 0
 452 93 520 151 520 231 c 2
 520 676 l 2
 520 693 535 702 569 702 c 2
 588 702 l 2
EndSplineSet
Substitution2: "'ss06' Style Set 6 lookup 12 subtable" five.ss03
Substitution2: "'ss01' Style Set 1 lookup 7 subtable" U.ss01
Substitution2: "'salt' Stylistic Alternatives lookup 6 subtable" U.ss01
Substitution2: "'aalt' Access All Alternates lookup 0 subtable" U.ss01
Position2: "'cpsp' Capital Spacing lookup 1 subtable" dx=5 dy=0 dh=10 dv=0
EndChar

StartChar: Uacute
Encoding: 218 218 51
Width: 712
Flags: MW
HStem: -7 100
VStem: 76.01 117 520.01 117
LayerCount: 2
Back
Fore
SplineSet
436 910 m 0
 472 910 489.009765625 906.998046875 489.009765625 895.998046875 c 0
 489.009765625 887.23828125 483.939453125 881.658203125 436.529296875 829.358398438 c 0
 424.359375 815.928710938 409.389648438 799.428710938 391 778.999023438 c 0
 380 766.999023438 362 757.999023438 329 757.999023438 c 0
 310 757.999023438 303 760.999023438 303 769.999023438 c 0
 303 777.7890625 312.120117188 793.489257812 337.940429688 837.939453125 c 0
 345.23046875 850.509765625 353.860351562 865.370117188 364 883 c 0
 375 903 401 910 436 910 c 0
588.009765625 701.998046875 m 2
 622.009765625 701.998046875 637.009765625 692.998046875 637.009765625 675.998046875 c 2
 637.009765625 227.998046875 l 2
 637.009765625 79.998046875 535.009765625 -7.001953125 356.009765625 -7.001953125 c 0
 177.009765625 -7.001953125 76.009765625 79.998046875 76.009765625 227.998046875 c 2
 76.009765625 675.998046875 l 2
 76.009765625 692.998046875 91.009765625 701.998046875 125.009765625 701.998046875 c 2
 144.009765625 701.998046875 l 2
 178.009765625 701.998046875 193.009765625 692.998046875 193.009765625 675.998046875 c 2
 193.009765625 230.998046875 l 2
 193.009765625 149.998046875 261.009765625 92.998046875 356.009765625 92.998046875 c 0
 452.009765625 92.998046875 520.009765625 150.998046875 520.009765625 230.998046875 c 2
 520.009765625 675.998046875 l 2
 520.009765625 692.998046875 535.009765625 701.998046875 569.009765625 701.998046875 c 2
 588.009765625 701.998046875 l 2
EndSplineSet
Position2: "'cpsp' Capital Spacing lookup 1 subtable" dx=5 dy=0 dh=10 dv=0
EndChar

StartChar: Ucircumflex
Encoding: 219 219 52
Width: 712
Flags: MW
HStem: -7 100<308.5 404 308.5 445.5> 751 144<242.5 365 250 365 346 451 346 462>
VStem: 76 117<228 231 231 676> 520 117<231 676>
LayerCount: 2
Back
Fore
SplineSet
365 895 m 2
 389 895 407 891 418 874 c 2
 478 780 l 2
 482 774 484 769 484 764 c 0
 484 756 477 751 462 751 c 2
 451 751 l 2
 431 751 414 756 403 769 c 2
 355 828 l 1
 309 769 l 2
 297 755 281 751 260 751 c 2
 250 751 l 2
 235 751 228 755 228 764 c 0
 228 768 230 774 234 780 c 2
 294 874 l 2
 304 891 323 895 346 895 c 2
 365 895 l 2
588 702 m 2
 622 702 637 693 637 676 c 2
 637 228 l 2
 637 80 535 -7 356 -7 c 0
 177 -7 76 80 76 228 c 2
 76 676 l 2
 76 693 91 702 125 702 c 2
 144 702 l 2
 178 702 193 693 193 676 c 2
 193 231 l 2
 193 150 261 93 356 93 c 0
 452 93 520 151 520 231 c 2
 520 676 l 2
 520 693 535 702 569 702 c 2
 588 702 l 2
EndSplineSet
Position2: "'cpsp' Capital Spacing lookup 1 subtable" dx=5 dy=0 dh=10 dv=0
EndChar

StartChar: Udieresis
Encoding: 220 220 53
Width: 712
Flags: MW
HStem: -7 100<308.5 404 308.5 445.5> 771 108<259 293 419 453>
VStem: 76 117<228 231 231 676> 226 100<798 853 789.5 861> 386 100<798 853 789.5 861> 520 117<231 676>
LayerCount: 2
Back
Fore
SplineSet
277 879 m 0
 311 879 326 870 326 853 c 2
 326 798 l 2
 326 781 311 771 275 771 c 0
 241 771 226 781 226 798 c 2
 226 853 l 2
 226 869 241 879 277 879 c 0
437 879 m 0
 471 879 486 870 486 853 c 2
 486 798 l 2
 486 781 471 771 435 771 c 0
 401 771 386 781 386 798 c 2
 386 853 l 2
 386 869 401 879 437 879 c 0
588 702 m 2
 622 702 637 693 637 676 c 2
 637 228 l 2
 637 80 535 -7 356 -7 c 0
 177 -7 76 80 76 228 c 2
 76 676 l 2
 76 693 91 702 125 702 c 2
 144 702 l 2
 178 702 193 693 193 676 c 2
 193 231 l 2
 193 150 261 93 356 93 c 0
 452 93 520 151 520 231 c 2
 520 676 l 2
 520 693 535 702 569 702 c 2
 588 702 l 2
EndSplineSet
Position2: "'cpsp' Capital Spacing lookup 1 subtable" dx=5 dy=0 dh=10 dv=0
EndChar

StartChar: Ugrave
Encoding: 217 217 54
Width: 712
Flags: MW
HStem: -7.00999 100
VStem: 76 117 520 117
LayerCount: 2
Back
Fore
SplineSet
284 910 m 0
 320 910 345.000976562 902.990234375 356.000976562 882.990234375 c 0
 366.130859375 865.360351562 374.760742188 850.5 382.060546875 837.940429688 c 0
 407.870117188 793.490234375 416.990234375 777.790039062 416.990234375 769.990234375 c 0
 416.990234375 760.990234375 409.990234375 757.990234375 390.990234375 757.990234375 c 0
 357.990234375 757.990234375 339.990234375 766.990234375 328.990234375 778.990234375 c 0
 305.400390625 805.5 287.430664062 825.41015625 273.760742188 840.549804688 c 0
 235.860351562 882.530273438 231 887.91015625 231 896 c 0
 231 907 249 910 284 910 c 0
588.000976562 701.990234375 m 2
 622.000976562 701.990234375 637.000976562 692.990234375 637.000976562 675.990234375 c 2
 637.000976562 227.990234375 l 2
 637.000976562 79.990234375 535.000976562 -7.009765625 356.000976562 -7.009765625 c 0
 177.000976562 -7.009765625 76.0009765625 79.990234375 76.0009765625 227.990234375 c 2
 76.0009765625 675.990234375 l 2
 76.0009765625 692.990234375 91.0009765625 701.990234375 125.000976562 701.990234375 c 2
 144.000976562 701.990234375 l 2
 178.000976562 701.990234375 193.000976562 692.990234375 193.000976562 675.990234375 c 2
 193.000976562 230.990234375 l 2
 193.000976562 149.990234375 261.000976562 92.990234375 356.000976562 92.990234375 c 0
 452.000976562 92.990234375 520.000976562 150.990234375 520.000976562 230.990234375 c 2
 520.000976562 675.990234375 l 2
 520.000976562 692.990234375 535.000976562 701.990234375 569.000976562 701.990234375 c 2
 588.000976562 701.990234375 l 2
EndSplineSet
Position2: "'cpsp' Capital Spacing lookup 1 subtable" dx=5 dy=0 dh=10 dv=0
EndChar

StartChar: V
Encoding: 86 86 55
Width: 617
Flags: MW
HStem: -2 148<276 310 306 310 306 328> -2 704<65 288 65 328>
VStem: 14 587<680.5 689>
LayerCount: 2
Back
Fore
SplineSet
551 702 m 2x60
 586 702 601 695 601 683 c 0
 601 678 600 674 598 667 c 2
 375 16 l 2
 370 2 352 -2 328 -2 c 2
 288 -2 l 2
 264 -2 245 2 241 16 c 2
 17 668 l 2
 15 674 14 678 14 683 c 0
 14 695 30 702 65 702 c 2
 84 702 l 2
 108 702 127 697 133 680 c 2
 296 190 l 1
 306 146 l 1
 310 146 l 1
 321 191 l 1xa0
 486 680 l 2
 491 696 510 702 534 702 c 2
 551 702 l 2x60
EndSplineSet
Substitution2: "'ss06' Style Set 6 lookup 12 subtable" six.ss03
Position2: "'cpsp' Capital Spacing lookup 1 subtable" dx=5 dy=0 dh=10 dv=0
EndChar

StartChar: W
Encoding: 87 87 56
Width: 882
Flags: MW
HStem: -2 704.01
VStem: 6.99001 869
LayerCount: 2
Back
Fore
SplineSet
824 702 m 2
 860 702 875.98828125 694.000976562 875.98828125 681.000976562 c 0
 875.98828125 679.130859375 875.208007812 676.090820312 874.377929688 672.860351562 c 0
 873.877929688 670.900390625 873.358398438 668.880859375 872.98828125 666.991210938 c 2
 703.98828125 15.9912109375 l 2
 700.98828125 2.9912109375 680.98828125 -2.0087890625 657.98828125 -2.0087890625 c 2
 602.98828125 -2.0087890625 l 2
 578.98828125 -2.0087890625 558.98828125 2.9912109375 555.98828125 15.9912109375 c 2
 458.98828125 396.991210938 l 1
 439.98828125 499.991210938 l 1
 420.98828125 396.991210938 l 1
 322.98828125 15.9912109375 l 2
 318.98828125 2.9912109375 298.98828125 -2.0087890625 275.98828125 -2.0087890625 c 2
 220.98828125 -2.0087890625 l 2
 195.98828125 -2.0087890625 177.98828125 2.9912109375 174.98828125 15.9912109375 c 2
 9.98828125 666.991210938 l 2
 7.98828125 671.991210938 6.98828125 676.991210938 6.98828125 680.991210938 c 0
 6.98828125 693.991210938 22.98828125 701.991210938 57.98828125 701.991210938 c 2
 74.98828125 701.991210938 l 2
 103.98828125 701.991210938 122.98828125 694.991210938 126.98828125 678.991210938 c 2
 230.98828125 261.991210938 l 2
 235.978515625 243.271484375 241.758789062 213.241210938 246.848632812 186.750976562 c 0
 249.918945312 170.810546875 252.739257812 156.140625 254.989257812 146.000976562 c 1
 260.609375 176.170898438 268.189453125 205.350585938 274.979492188 231.48046875 c 0
 277.869140625 242.590820312 280.609375 253.150390625 282.999023438 262.990234375 c 2
 386.999023438 682.990234375 l 2
 390.999023438 697.990234375 407.999023438 701.990234375 432.999023438 701.990234375 c 2
 458.999023438 701.990234375 l 2
 483.999023438 701.990234375 501.999023438 697.990234375 504.999023438 682.990234375 c 2
 608.999023438 260.990234375 l 2
 614.149414062 240.379882812 619.629882812 212.889648438 624.5 188.459960938 c 0
 628.139648438 170.219726562 631.4296875 153.6796875 634 143 c 1
 644 185 654 228 662 263 c 2
 764 679 l 2
 768 695 788 702 816 702 c 2
 824 702 l 2
EndSplineSet
Substitution2: "'ss06' Style Set 6 lookup 12 subtable" seven.ss03
Position2: "'cpsp' Capital Spacing lookup 1 subtable" dx=5 dy=0 dh=10 dv=0
EndChar

StartChar: X
Encoding: 88 88 57
Width: 611
Flags: MW
HStem: -2 704<49.5 118 68 118 505.5 518 518 525 525 544>
VStem: 15 582<10 18.5>
LayerCount: 2
Back
Fore
SplineSet
525 702 m 2
 563 702 579 696 579 684 c 0
 579 679 575 671 570 663 c 2
 375 367 l 1
 589 37 l 2
 594 29 597 22 597 16 c 0
 597 4 582 -2 544 -2 c 2
 518 -2 l 2
 493 -2 476 1 467 15 c 2
 305 264 l 1
 140 14 l 2
 131 0 112 -2 90 -2 c 2
 68 -2 l 2
 31 -2 15 4 15 16 c 0
 15 21 18 28 24 37 c 2
 240 365 l 1
 47 663 l 2
 42 671 39 678 39 684 c 0
 39 695 54 702 92 702 c 2
 118 702 l 2
 143 702 160 699 169 685 c 2
 309 468 l 1
 454 686 l 2
 463 699 482 702 505 702 c 2
 525 702 l 2
EndSplineSet
Substitution2: "'ss06' Style Set 6 lookup 12 subtable" eight.ss03
Substitution2: "'ss05' Style Set 5 lookup 11 subtable" X.ss05
Substitution2: "'aalt' Access All Alternates lookup 0 subtable" X.ss05
Position2: "'cpsp' Capital Spacing lookup 1 subtable" dx=5 dy=0 dh=10 dv=0
EndChar

StartChar: Y
Encoding: 89 89 58
Width: 559
Flags: MW
HStem: -2 704<62 270 62 290>
VStem: 222 116<24 346>
LayerCount: 2
Back
Fore
SplineSet
502 702 m 2
 537 701 551.999023438 695 551.999023438 684 c 0
 551.999023438 678.759765625 548.94921875 672.759765625 545.51953125 666 c 0
 545.01953125 665.009765625 544.509765625 664.009765625 544 663 c 2
 338 346 l 1
 338 24 l 2
 338 7 324 -2 290 -2 c 2
 270 -2 l 2
 236 -2 222 7 222 24 c 2
 222 349 l 1
 17 663 l 2
 11 671 8 678 8 684 c 0
 8 695 23 702 62 702 c 2
 87 702 l 2
 111 702 129 699 137 685 c 2
 283 453 l 1
 431 686 l 2
 439 699 459 702 483 702 c 2
 502 702 l 2
EndSplineSet
Position2: "'cpsp' Capital Spacing lookup 1 subtable" dx=5 dy=0 dh=10 dv=0
EndChar

StartChar: Yacute
Encoding: 221 221 59
Width: 559
Flags: MW
HStem: -2 912
VStem: 222 116
LayerCount: 2
Back
Fore
SplineSet
360 910 m 0
 396 910 413.009765625 906.998046875 413.009765625 895.998046875 c 0
 413.009765625 887.23828125 407.939453125 881.658203125 360.529296875 829.358398438 c 0
 348.359375 815.928710938 333.389648438 799.428710938 315 778.999023438 c 0
 304 766.999023438 286 757.999023438 253 757.999023438 c 0
 234 757.999023438 227 760.999023438 227 769.999023438 c 0
 227 777.7890625 236.120117188 793.489257812 261.940429688 837.939453125 c 0
 269.23046875 850.509765625 277.860351562 865.370117188 288 883 c 0
 299 903 325 910 360 910 c 0
502.009765625 701.998046875 m 2
 537.009765625 700.998046875 552.008789062 694.998046875 552.008789062 683.998046875 c 0
 552.008789062 678.7578125 548.958984375 672.7578125 545.529296875 665.998046875 c 0
 545.029296875 665.0078125 544.51953125 664.0078125 544.009765625 662.998046875 c 2
 338.009765625 345.998046875 l 1
 338.009765625 23.998046875 l 2
 338.009765625 6.998046875 324.009765625 -2.001953125 290.009765625 -2.001953125 c 2
 270.009765625 -2.001953125 l 2
 236.009765625 -2.001953125 222.009765625 6.998046875 222.009765625 23.998046875 c 2
 222.009765625 348.998046875 l 1
 17.009765625 662.998046875 l 2
 11.009765625 670.998046875 8.009765625 677.998046875 8.009765625 683.998046875 c 0
 8.009765625 694.998046875 23.009765625 701.998046875 62.009765625 701.998046875 c 2
 87.009765625 701.998046875 l 2
 111.009765625 701.998046875 129.009765625 698.998046875 137.009765625 684.998046875 c 2
 283.009765625 452.998046875 l 1
 431.009765625 685.998046875 l 2
 439.009765625 698.998046875 459.009765625 701.998046875 483.009765625 701.998046875 c 2
 502.009765625 701.998046875 l 2
EndSplineSet
Position2: "'cpsp' Capital Spacing lookup 1 subtable" dx=5 dy=0 dh=10 dv=0
EndChar

StartChar: Ydieresis
Encoding: 376 376 60
Width: 559
Flags: MW
HStem: 771 108<183 217 343 377>
VStem: 150 100<798 853 789.5 861> 222 116<24 346> 310 100<798 853 789.5 861>
LayerCount: 2
Back
Fore
SplineSet
201 879 m 0xd0
 235 879 250 870 250 853 c 2
 250 798 l 2
 250 781 235 771 199 771 c 0
 165 771 150 781 150 798 c 2
 150 853 l 2
 150 869 165 879 201 879 c 0xd0
361 879 m 0
 395 879 410 870 410 853 c 2
 410 798 l 2
 410 781 395 771 359 771 c 0
 325 771 310 781 310 798 c 2
 310 853 l 2
 310 869 325 879 361 879 c 0
502 702 m 2
 537 701 551.999023438 695 551.999023438 684 c 0
 551.999023438 678.759765625 548.94921875 672.759765625 545.51953125 666 c 0
 545.01953125 665.009765625 544.509765625 664.009765625 544 663 c 2
 338 346 l 1
 338 24 l 2
 338 7 324 -2 290 -2 c 2
 270 -2 l 2
 236 -2 222 7 222 24 c 2
 222 349 l 1xa0
 17 663 l 2
 11 671 8 678 8 684 c 0
 8 695 23 702 62 702 c 2
 87 702 l 2
 111 702 129 699 137 685 c 2
 283 453 l 1
 431 686 l 2
 439 699 459 702 483 702 c 2
 502 702 l 2
EndSplineSet
Position2: "'cpsp' Capital Spacing lookup 1 subtable" dx=5 dy=0 dh=10 dv=0
EndChar

StartChar: Z
Encoding: 90 90 61
Width: 616
Flags: MW
HStem: 0 100<196 549 196 549> 600 100<80.5 546 89 413>
VStem: 33 542
LayerCount: 2
Back
Fore
SplineSet
546 700 m 2
 557 700 575 653 575 630 c 0
 575 625 574 622 573 620 c 2
 196 100 l 1
 549 100 l 2
 566 100 574 88 574 59 c 2
 574 41 l 2
 574 12 566 0 549 0 c 2
 64 0 l 2
 50 0 33 46 33 69 c 0
 33 73 34 77 36 80 c 2
 413 600 l 1
 89 600 l 2
 72 600 64 612 64 641 c 2
 64 659 l 2
 64 688 72 700 89 700 c 2
 546 700 l 2
EndSplineSet
Position2: "'cpsp' Capital Spacing lookup 1 subtable" dx=5 dy=0 dh=10 dv=0
EndChar

StartChar: Zcaron
Encoding: 381 381 62
Width: 616
Flags: MW
HStem: 0 100<196 549 196 549> 600 100<80.5 546 89 413> 755 143<202 298 202 317>
VStem: 33 542
LayerCount: 2
Back
Fore
SplineSet
414 898 m 2
 429 898 436 894 436 886 c 0
 436 881 434 875 430 869 c 2
 370 775 l 2
 359 759 341 755 317 755 c 2
 298 755 l 2
 275 755 256 759 246 775 c 2
 186 869 l 2
 182 876 180 882 180 886 c 0
 180 894 187 898 202 898 c 2
 212 898 l 2
 233 898 249 894 261 880 c 2
 307 821 l 1
 355 881 l 2
 366 894 383 898 403 898 c 2
 414 898 l 2
546 700 m 2
 557 700 575 653 575 630 c 0
 575 625 574 622 573 620 c 2
 196 100 l 1
 549 100 l 2
 566 100 574 88 574 59 c 2
 574 41 l 2
 574 12 566 0 549 0 c 2
 64 0 l 2
 50 0 33 46 33 69 c 0
 33 73 34 77 36 80 c 2
 413 600 l 1
 89 600 l 2
 72 600 64 612 64 641 c 2
 64 659 l 2
 64 688 72 700 89 700 c 2
 546 700 l 2
EndSplineSet
Position2: "'cpsp' Capital Spacing lookup 1 subtable" dx=5 dy=0 dh=10 dv=0
EndChar

StartChar: E.ss04.alt
Encoding: 65537 -1 63
Width: 700
Flags: MW
HStem: -6.03 23 -0.0299988 159 23.97 40 70.97 23 101.97 40 140.97 37 158.97 34 176.97 39 192.97 34 225.97 39 226.97 28 323.98 38.99 329.97 26 520.98 26
VStem: 13 68<329.969 329.969 329.969 355.969> 96 49<16.9688 237.969 237.969 242.469> 182 52<155.969 161.469 189.469 195.469 223.969 229.469> 255 18<155.969 161.469 189.469 195.469 223.969 229.469> 312 38 421 14<135.969 135.969> 438 77<18.9688 27.9688 24.4688 68.4688> 539 20 660 40<285.479 302.479>
LayerCount: 2
Back
Fore
SplineSet
275 559 m 0x242d76
 275 551 280 546.979492188 293 546.979492188 c 2
 312 546.979492188 l 2
 318 546.979492188 326 549.979492188 326 557.979492188 c 0
 326.110351562 559.33984375 326.16015625 560.719726562 326.209960938 562.149414062 c 0
 326.209960938 562.159179688 326.209960938 562.168945312 326.209960938 562.178710938 c 0
 326.610351562 573.369140625 327.100585938 587.2890625 359.000976562 612.989257812 c 0
 365.060546875 616.779296875 369.970703125 621.139648438 375.041015625 625.639648438 c 0
 376.661132812 627.080078125 378.30078125 628.540039062 380.000976562 629.990234375 c 0
 396.000976562 644.990234375 403.000976562 662.990234375 403.000976562 684.990234375 c 0
 403.000976562 705.990234375 396.000976562 721.990234375 381.000976562 734.990234375 c 0
 365.000976562 747.990234375 345.000976562 753.990234375 319.000976562 753.990234375 c 0
 301.000976562 753.990234375 283.000976562 751.990234375 268.000976562 744.990234375 c 0
 253.000976562 739.990234375 231.000976562 726.990234375 231.000976562 715.990234375 c 0
 231.000976562 711.990234375 233.000976562 704.990234375 239.000976562 696.990234375 c 0
 245.000976562 688.990234375 250.000976562 684.990234375 255.000976562 684.990234375 c 0
 260.560546875 687.080078125 268.530273438 690.610351562 275.23046875 693.580078125 c 0
 275.25 693.58984375 275.26953125 693.599609375 275.2890625 693.609375 c 0
 278.208984375 694.899414062 280.87890625 696.08984375 282.999023438 697 c 0
 293.999023438 701 304.999023438 703 313.999023438 703 c 0
 332.999023438 703 341.999023438 695 341.999023438 681 c 0
 341.999023438 665.440429688 321.21875 644.530273438 308.19921875 631.419921875 c 0
 305.319335938 628.509765625 302.809570312 625.990234375 301 624 c 0
 279 600 275 576 275 559 c 0x242d76
269 472.979492188 m 2
 269 463.979492188 277 459.979492188 294 459.979492188 c 2
 306 459.979492188 l 2
 321 459.979492188 329 463.979492188 329 472.979492188 c 2
 329 507.979492188 l 2
 329 516.979492188 321 520.979492188 306 520.979492188 c 2
 294 520.979492188 l 2
 277 520.979492188 269 516.979492188 269 507.979492188 c 2
 269 472.979492188 l 2
537 449.979492188 m 2
 543 450.979492188 544 450.96875 546 450.96875 c 0
 552 450.96875 556 445.96875 556 439.96875 c 2
 556 362.96875 l 1
 627 362.96875 l 2
 668 362.96875 700 332.96875 700 293.96875 c 0
 700 256.96875 668 225.96875 627 225.96875 c 0
 620 225.96875 617 227.96875 616 229.96875 c 0
 614 233.96875 613 238.96875 613 246.96875 c 0
 612.8203125 248.388671875 612.740234375 249.708984375 612.740234375 250.94921875 c 0
 612.740234375 256.6796875 614.530273438 260.509765625 617 262.979492188 c 0
 619 264.979492188 620 264.979492188 627 264.979492188 c 0
 644 264.979492188 660 276.979492188 660 293.979492188 c 0
 660 310.979492188 644 323.979492188 627 323.979492188 c 2
 556 323.979492188 l 1
 556 246.979492188 l 2
 556 240.979492188 552 235.979492188 546 235.979492188 c 0
 544 235.979492188 543 235.979492188 537 236.979492188 c 2
 114 321.979492188 l 2
 101 324.979492188 96 328.979492188 96 335.979492188 c 2
 96 350.979492188 l 2
 96 356.979492188 101 360.979492188 114 363.979492188 c 2x005102
 537 449.979492188 l 2
81 329.96875 m 1x000a
 13 329.96875 l 2
 6 329.96875 0 334.96875 0 342.96875 c 0
 0 349.96875 5 355.96875 13 355.96875 c 2
 81 355.96875 l 1
 81 329.96875 l 1x000a
145 254.96875 m 1x402140
 145 -0.03125 l 1
 113 -0.03125 l 2
 103 -0.03125 96 7.96875 96 16.96875 c 2
 96 237.96875 l 2
 96 246.96875 103 254.96875 113 254.96875 c 2
 145 254.96875 l 1x402140
273 16.96875 m 2
 273 7.96875 266 -0.03125 256 -0.03125 c 2
 182 -0.03125 l 1
 182 254.96875 l 1
 256 254.96875 l 2
 266 254.96875 273 246.96875 273 237.96875 c 2
 273 16.96875 l 2
234 226.96875 m 0x042090
 234 220.96875 238 215.96875 245 215.96875 c 0
 251 215.96875 255 220.96875 255 226.96875 c 0
 255 231.96875 251 236.96875 245 236.96875 c 0
 238 236.96875 234 231.96875 234 226.96875 c 0x042090
557 160.96875 m 2
 558 159.96875 557 156.96875 556 155.96875 c 2
 540 141.96875 l 2
 539 139.96875 537 140.96875 536 141.96875 c 2
 527 154.96875 l 2
 526 155.96875 524 155.96875 523 154.96875 c 2
 514 141.96875 l 2
 512 139.96875 510 140.96875 509 141.96875 c 2
 500 154.96875 l 2
 499 155.96875 497 155.96875 496 154.96875 c 2
 488 142.96875 l 2
 487 141.96875 486 140.96875 485 140.96875 c 0
 483 139.96875 481 140.96875 481 141.96875 c 2
 472 154.96875 l 2
 471 156.96875 469 155.96875 468 154.96875 c 2
 459 142.96875 l 2
 458 141.96875 455 140.96875 454 140.96875 c 2
 435 140.96875 l 1x040010
 435 125.96875 l 2
 434 124.96875 433 124.96875 432 125.96875 c 2
 421 135.96875 l 1
 413 115.96875 393 101.96875 370 101.96875 c 0
 337 101.96875 312 127.96875 312 159.96875 c 0
 313 190.96875 338 215.96875 370 215.96875 c 0
 393 215.96875 413 201.96875 422 181.96875 c 1
 432 191.96875 l 2
 433 192.96875 434 192.96875 435 191.96875 c 2x090030
 435 177.96875 l 1
 541 177.96875 l 2
 543 177.96875 545 176.96875 546 175.96875 c 2
 557 160.96875 l 2
234 192.96875 m 0x0880b0
 234 185.96875 238 181.96875 245 181.96875 c 0
 251 181.96875 255 185.96875 255 192.96875 c 0
 255 197.96875 251 202.96875 245 202.96875 c 0
 238 202.96875 234 197.96875 234 192.96875 c 0x0880b0
350 141.96875 m 0
 360 141.96875 368 149.96875 368 159.96875 c 0x0880b0
 368 168.96875 360 176.96875 350 176.96875 c 0
 341 176.96875 333 168.96875 333 159.96875 c 0x010030
 333 150.96875 341 141.96875 350 141.96875 c 0
234 158.96875 m 0x220088
 234 152.96875 238 147.96875 245 147.96875 c 0
 251 147.96875 255 152.96875 255 158.96875 c 0
 255 163.96875 251 168.96875 245 168.96875 c 0
 238 168.96875 234 163.96875 234 158.96875 c 0x220088
323 59.96875 m 2
 324 61.96875 326 63.96875 328 63.96875 c 2
 438 63.96875 l 1x200008
 438 72.96875 445 87.96875 462 88.96875 c 2
 532 93.96875 l 2x100008
 545 93.96875 554 89.96875 559 78.96875 c 0
 561 74.96875 565 57.96875 565 42.96875 c 0
 565 27.96875 561 12.96875 559 8.96875 c 0
 554 -3.03125 545 -6.03125 532 -6.03125 c 2x900004
 462 -1.03125 l 2x800008
 445 -0.03125 438 13.96875 438 23.96875 c 1
 391 23.96875 l 2
 390 23.96875 387 24.96875 385 25.96875 c 2
 376 37.96875 l 2
 375 38.96875 373 39.96875 372 37.96875 c 2
 362 24.96875 l 2
 361 23.96875 359 22.96875 357 24.96875 c 2
 348 37.96875 l 2
 347 38.96875 345 39.96875 343 37.96875 c 2
 334 24.96875 l 2
 333 23.96875 331 23.96875 329 24.96875 c 2
 313 39.96875 l 2
 312 40.96875 311 42.96875 312 44.96875 c 2
 323 59.96875 l 2
515 27.96875 m 2x100008
 515 20.96875 518 16.96875 522 16.96875 c 2
 533 16.96875 l 2
 537 16.96875 539 20.96875 539 27.96875 c 2
 539 57.96875 l 2x900004
 539 66.96875 537 70.96875 533 70.96875 c 2
 522 70.96875 l 2
 518 70.96875 515 66.96875 515 57.96875 c 2
 515 27.96875 l 2x100008
EndSplineSet
EndChar

StartChar: A.ss01
Encoding: 65538 -1 64
Width: 730
Flags: MW
HStem: 141.98 133
VStem: 167 19<22 393> 315.99 56 564.99 55
LayerCount: 2
Back
Fore
SplineSet
435 14 m 2
 439 4 443.9921875 -0.017578125 452.9921875 -0.017578125 c 0
 459.9921875 -0.017578125 468.9921875 5.982421875 468.9921875 13.982421875 c 0
 468.9921875 17.0126953125 467.041992188 22.8427734375 466.091796875 25.6923828125 c 0
 466.051757812 25.7919921875 466.021484375 25.8916015625 465.991210938 25.9912109375 c 2
 335.991210938 413.991210938 l 2
 332.991210938 422.991210938 325.991210938 428.991210938 313.991210938 428.991210938 c 2
 310.991210938 428.991210938 l 1
 311.651367188 455.651367188 312.541015625 486.991210938 313.430664062 518.321289062 c 0
 315.2109375 580.991210938 316.991210938 643.651367188 316.991210938 668.991210938 c 0
 316.991210938 694.981445312 306.991210938 715.991210938 275.991210938 726.991210938 c 0
 248.991210938 736.991210938 207.991210938 759.991210938 207.991210938 777.991210938 c 2
 207.991210938 795.991210938 l 1
 212.991210938 798.991210938 220.991210938 804.991210938 220.991210938 825.991210938 c 0
 221.510742188 836.880859375 221.951171875 846.020507812 222.311523438 853.670898438 c 0
 223.631835938 881.361328125 224.021484375 889.581054688 224.021484375 890.720703125 c 0
 224.021484375 914.720703125 200.411132812 929.990234375 176.000976562 929.990234375 c 0
 150.541015625 929.990234375 126.970703125 914.740234375 126.970703125 890.540039062 c 0
 126.970703125 888.849609375 127.23046875 883.459960938 128.010742188 867.33984375 c 0
 128.470703125 857.799804688 129.110351562 844.5 129.990234375 826 c 0
 130.990234375 805 138.990234375 799 142.990234375 796 c 1
 142.990234375 778 l 2
 142.990234375 760 102.990234375 737 74.990234375 727 c 0
 43.990234375 716 34.990234375 695 34.990234375 669 c 0
 34.990234375 644.330078125 36.7705078125 582.330078125 38.55078125 520.330078125 c 0
 39.4404296875 489.330078125 40.330078125 458.330078125 41 432 c 0
 42 406 56 393 76 393 c 1
 91 22 l 2
 91 8 103 0 127 0 c 0
 151 0 167 8 167 22 c 2
 167 393 l 1
 186 393 l 1
 186 22 l 2
 186 8 200 0 224 0 c 0
 248 -0 260.490234375 8.6396484375 261 22 c 2
 275 393 l 1
 303 393 l 1
 435 14 l 2
636.9921875 397.982421875 m 0
 638.9921875 397.982421875 639.9921875 396.982421875 639.9921875 392.982421875 c 2
 639.9921875 364.982421875 l 1
 708.9921875 328.982421875 l 2
 714.9921875 325.982421875 717.9921875 323.982421875 717.9921875 319.982421875 c 0
 717.9921875 313.982421875 714.9921875 304.982421875 710.9921875 297.982421875 c 0
 702.9921875 283.982421875 695.9921875 280.982421875 685.9921875 280.982421875 c 2
 642.9921875 280.982421875 l 1
 618.9921875 165.982421875 l 1
 619.9921875 14.982421875 l 2
 619.9921875 4.982421875 612.9921875 -0.017578125 595.9921875 -0.017578125 c 0
 579.9921875 -0.017578125 564.9921875 4.982421875 564.9921875 14.982421875 c 2
 553.9921875 141.982421875 l 1
 496.9921875 141.982421875 l 2
 480.9921875 141.982421875 459.9921875 143.982421875 443.9921875 147.982421875 c 1
 399.9921875 278.982421875 l 1
 540.9921875 270.982421875 l 1
 631.9921875 394.982421875 l 2
 633.591796875 397.3828125 634.591796875 397.982421875 636.9921875 397.982421875 c 0
385.9921875 101.982421875 m 1
 371.9921875 14.9814453125 l 2
 369.9921875 0.9814453125 363.9921875 -0.0185546875 340.9921875 -0.0185546875 c 0
 324.202148438 -0.0185546875 315.9921875 5.1318359375 315.9921875 14.6123046875 c 0
 315.9921875 15.322265625 317.232421875 37.3125 320.7421875 99.642578125 c 0
 322.892578125 137.822265625 325.90234375 191.142578125 329.9921875 263.982421875 c 1
 385.9921875 101.982421875 l 1
EndSplineSet
EndChar

StartChar: B.ss01
Encoding: 65539 -1 65
Width: 730
Flags: HMW
HStem: 0 930
VStem: 82.97 83 126.95 97.07 141.97 67.02 184.97 83.5 394 48.99 601.49 56.5
LayerCount: 2
Back
Fore
SplineSet
291 396 m 0x8e
 287 394 281.97265625 393.008789062 275.97265625 393.008789062 c 1
 260.97265625 22.0087890625 l 2
 259.97265625 7.0087890625 248.97265625 0.0087890625 224.97265625 0.0087890625 c 0
 200.97265625 0.0087890625 184.97265625 8.0087890625 184.97265625 22.0087890625 c 2
 184.97265625 389.008789062 l 1x8e
 165.97265625 389.008789062 l 1
 165.97265625 22.0087890625 l 2
 165.97265625 8.0087890625 149.97265625 0.0087890625 126.97265625 0.0087890625 c 0
 102.97265625 0.0087890625 91.97265625 7.0087890625 90.97265625 22.0087890625 c 2
 74.97265625 393.008789062 l 1
 49.97265625 393.008789062 41.453125 411.989257812 40.97265625 431.008789062 c 0
 38.8828125 513.659179688 37.5029296875 566.26953125 36.5927734375 600.729492188 c 0
 35.29296875 650.079101562 34.97265625 662.19921875 34.97265625 672.008789062 c 0xce
 34.97265625 697.008789062 43.97265625 719.008789062 73.97265625 730.008789062 c 0
 101.97265625 740.008789062 141.97265625 762.008789062 141.97265625 782.008789062 c 2
 141.97265625 797.008789062 l 1
 137.97265625 799.008789062 130.97265625 806.008789062 129.97265625 827.008789062 c 0x96
 129.772460938 831.348632812 129.482421875 837.2890625 129.172851562 843.829101562 c 0
 128.192382812 864.029296875 126.952148438 889.869140625 126.952148438 891.508789062 c 0
 126.952148438 914.668945312 149.551757812 929.999023438 175.981445312 929.999023438 c 0
 201.44140625 929.999023438 224.021484375 914.668945312 224.021484375 891.499023438 c 0
 224.021484375 873.548828125 222.821289062 844.44921875 221.991210938 826.999023438 c 0xa6
 220.991210938 805.999023438 212.991210938 798.999023438 208.991210938 796.999023438 c 1
 208.991210938 781.999023438 l 2
 208.991210938 761.999023438 248.991210938 739.999023438 276.991210938 729.999023438 c 0x96
 305.791015625 719.439453125 317.05078125 698.739257812 317.05078125 674.979492188 c 4
 317.05078125 672.969726562 316.680664062 660.4296875 314.80078125 595.879882812 c 0
 313.741210938 559.700195312 312.201171875 507.169921875 309.991210938 431 c 0
 309.991210938 427 308.991210938 423 307.991210938 419 c 0
 414.250976562 339.879882812 521.100585938 285.290039062 613.990234375 263 c 1
 665.990234375 329 l 2
 667.520507812 330.940429688 669.810546875 332 671.990234375 332 c 0
 674.48046875 332 675.990234375 330.48046875 675.990234375 328 c 2
 675.990234375 301 l 1
 733.990234375 268 l 2
 738.990234375 265 742.990234375 260 742.990234375 256 c 0
 742.990234375 251 740.990234375 245 736.990234375 237 c 0
 731.990234375 227 724.990234375 222 712.990234375 222 c 2
 673.990234375 222 l 1
 657.990234375 146 l 1
 657.990234375 13 l 2
 657.990234375 4 648.990234375 0 632.990234375 0 c 0
 618.990234375 0 606.830078125 3.9404296875 605.990234375 13 c 2
 596.990234375 110 l 1
 549.990234375 110 l 2
 524.990234375 110 491.990234375 116 461.990234375 129 c 1
 442.990234375 13 l 2
 440.990234375 4 431.990234375 0 415.990234375 0 c 0
 402.08984375 0 394 3.9404296875 394 12.810546875 c 0
 393.999927854 12.8181641588 l 0
 393.999927854 13.4065911825 394.983893331 29.2024753593 397.650390625 71.9111328125 c 0
 399.520507812 101.94140625 402.220703125 145.28125 405.990234375 205.991210938 c 1
 391.990234375 211.991210938 379.990234375 230.991210938 379.990234375 244.991210938 c 1
 583.990234375 223.991210938 l 1
 594.990234375 237.991210938 l 1
 548.83984375 249.53125 504.129882812 267.420898438 459.66015625 290.180664062 c 0
 403.860351562 318.740234375 348.440429688 354.98046875 291 396 c 0x8e
EndSplineSet
EndChar

StartChar: C.ss01
Encoding: 65540 -1 66
Width: 540
Flags: MW
HStem: 0 929.99
VStem: 30 497
LayerCount: 2
Back
Fore
SplineSet
427 236 m 2
 424 259 423.000976562 264.000976562 417.000976562 278.000976562 c 2
 326.000976562 457.000976562 l 1
 335.000976562 606.000976562 l 1
 372.000976562 550.000976562 l 2
 382.000976562 537.000976562 390.000976562 533.000976562 408.000976562 528.000976562 c 2
 482.000976562 509.000976562 l 2
 486.000976562 508.000976562 491.000976562 507.000976562 496.000976562 507.000976562 c 0
 512.491210938 507.000976562 527.000976562 523.161132812 527.000976562 542.000976562 c 0
 527.000976562 556.000976562 521.000976562 563.000976562 506.000976562 568.000976562 c 2
 422.000976562 593.000976562 l 1
 351.000976562 716.000976562 l 2
 338.000976562 738.000976562 323.000976562 752.000976562 306.000976562 759.000976562 c 1
 308.000976562 790.000976562 l 1
 320.000976562 794.000976562 327.000976562 804.000976562 329.000976562 818.000976562 c 0
 330.560546875 831.420898438 331.91015625 842.661132812 333.049804688 852.05078125 c 0
 335.580078125 873.060546875 337 884.810546875 337 890.990234375 c 0
 337 911.990234375 314 929.990234375 287 929.990234375 c 0
 260 929.990234375 244 914.990234375 242 890.990234375 c 0
 239.23046875 846.959960938 238 826.690429688 238 825 c 0
 238 810 243 801 252 793 c 1
 252 778 240 769 228 764 c 0
 212 758 192.5 743.650390625 175 721 c 2
 97 620 l 2
 88 608 81 590 79 572 c 0
 75.3603515625 541.440429688 72.5400390625 518.709960938 70.4697265625 502.040039062 c 0
 67.419921875 477.4296875 66 466 66 462 c 0
 66 446 80 430 98 430 c 0
 115 430 126 438 129 462 c 2
 142 572 l 1
 197 624 l 1
 179 451 l 1
 131 225 l 1
 59 106 l 2
 34 65 30 57 30 51 c 0
 30 42 36 34 48 25 c 0
 62 15 70 12 78 12 c 0
 85 12 92 15 96 21 c 2
 178 148 l 2
 195 176 206 195 215 218 c 2
 265 357 l 1
 343 231 l 1
 375 22 l 2
 380 4 394 0 419 0 c 0
 440 0 452 6 452 17 c 0
 452 19 452 20 451 31 c 2
 427 236 l 2
EndSplineSet
EndChar

StartChar: D.ss01
Encoding: 65541 -1 67
Width: 800
Flags: MW
HStem: 0 51 523 68<455.736 585.001 479.001 537.001>
VStem: 158.99 88 207.96 97.07 222.99 67.01 265.99 86.01 503.99 52 537 31.99 620.99 32 634.99 52
LayerCount: 2
Back
Fore
SplineSet
342 22 m 2x4580
 341 7 329.9921875 -0.0009765625 305.9921875 -0.0009765625 c 0
 281.9921875 -0.0009765625 265.9921875 7.9990234375 265.9921875 21.9990234375 c 2
 265.9921875 388.999023438 l 1x4580
 246.9921875 388.999023438 l 1
 246.9921875 21.9990234375 l 2
 246.9921875 7.9990234375 231.9921875 -0.0009765625 207.9921875 -0.0009765625 c 0
 183.9921875 -0.0009765625 169.9921875 6.9990234375 168.9921875 21.9990234375 c 2
 148.9921875 642.999023438 l 1
 99.9921875 606.999023438 l 2x6580
 83.9921875 594.999023438 71.9921875 592.999023438 57.9921875 592.999023438 c 0
 39.47265625 592.999023438 26.4423828125 599.168945312 19.9921875 610.999023438 c 2
 -56.0078125 759.999023438 l 2
 -61.0078125 769.999023438 -64.0078125 775.999023438 -64.0078125 782.999023438 c 0
 -64.0078125 797.999023438 -51.0078125 810.999023438 -36.0078125 810.999023438 c 0
 -24.0078125 810.999023438 -15.0078125 803.999023438 -9.0078125 791.999023438 c 2
 57.9921875 662.999023438 l 1
 87.9921875 691.999023438 134.9921875 724.999023438 169.9921875 734.999023438 c 0
 193.9921875 741.999023438 222.9921875 761.999023438 222.9921875 781.999023438 c 2
 222.9921875 796.999023438 l 1x4980
 218.9921875 798.999023438 212.162109375 806.0390625 210.9921875 826.999023438 c 0
 209.952148438 845.729492188 207.961914062 889.33984375 207.961914062 891.5 c 0
 207.961914062 914.66015625 230.561523438 930 256.991210938 930 c 0
 282.451171875 930 305.03125 914.66015625 305.03125 891.5 c 0
 305.03125 883.540039062 304.000976562 843.459960938 303.000976562 827 c 0x5180
 301.720703125 806.009765625 294.000976562 799 290.000976562 797 c 1
 290.000976562 782 l 2
 290.000976562 762 329.000976562 741 358.000976562 730 c 0
 379.000976562 722 398.000976562 707 411.000976562 691 c 2
 479.000976562 591 l 1
 585.000976562 591 l 2
 612.000976562 591 624.000976562 577 624.000976562 554 c 1
 640.000976562 554 l 2
 649.000976562 554 653.000976562 548 653.000976562 534 c 2
 653.000976562 448 l 1
 663.000976562 448 l 2
 699.000976562 448 730.000976562 419 731.000976562 381 c 0
 732.000976562 349.549804688 733.331054688 309.200195312 734.670898438 268.850585938 c 0
 737.331054688 188.150390625 740.000976562 107.440429688 740.000976562 97.990234375 c 0
 740.000976562 87.990234375 731.000976562 68.990234375 711.000976562 68.990234375 c 2
 479.000976562 68.990234375 l 2
 459.000976562 68.990234375 450.000976562 87.990234375 450.000976562 97.990234375 c 0
 450.000976562 107.440429688 452.661132812 188.150390625 455.331054688 268.850585938 c 0
 456.661132812 309.200195312 458.000976562 349.549804688 459.000976562 381 c 0x4a80
 460.000976562 424 494.000976562 448 537.000976562 448 c 1
 537.000976562 523 l 1
 461.791015625 523 l 2
 449.680664062 523 442.190429688 527.48046875 430 542 c 2
 362 623 l 1
 342 22 l 2x4580
620.9921875 522.999023438 m 1
 568.9921875 522.999023438 l 1
 568.9921875 447.999023438 l 1
 620.9921875 447.999023438 l 1
 620.9921875 522.999023438 l 1
529.9921875 50.9990234375 m 0xc640
 543.9921875 50.9990234375 555.9921875 39.9990234375 555.9921875 24.9990234375 c 0
 555.9921875 10.9990234375 543.9921875 -0.0009765625 529.9921875 -0.0009765625 c 0
 515.9921875 -0.0009765625 503.9921875 10.9990234375 503.9921875 24.9990234375 c 0
 503.9921875 39.9990234375 515.9921875 50.9990234375 529.9921875 50.9990234375 c 0xc640
660.9921875 50.9990234375 m 0
 675.9921875 50.9990234375 686.9921875 39.9990234375 686.9921875 24.9990234375 c 0
 686.9921875 10.9990234375 675.9921875 -0.0009765625 660.9921875 -0.0009765625 c 0
 646.9921875 -0.0009765625 634.9921875 10.9990234375 634.9921875 24.9990234375 c 0
 634.9921875 39.9990234375 646.9921875 50.9990234375 660.9921875 50.9990234375 c 0
EndSplineSet
EndChar

StartChar: E.ss01
Encoding: 65542 -1 68
Width: 700
Flags: MW
HStem: 0 51 523 68
VStem: 95.99 52 129.99 32 213.99 32 226.99 52 431.5 85.5 477.96 97.07 492.99 65.01 536 83.5
LayerCount: 2
Back
Fore
SplineSet
353 542 m 2x5a
 345.940429688 532.169921875 337.990234375 522.999023438 323.990234375 522.999023438 c 2
 245.990234375 522.999023438 l 1
 245.990234375 447.999023438 l 1
 288.990234375 447.999023438 322.990234375 423.999023438 323.990234375 380.999023438 c 0
 324.990234375 349.548828125 326.330078125 309.21875 327.66015625 268.87890625 c 0
 330.330078125 188.21875 332.990234375 107.548828125 332.990234375 97.9990234375 c 0
 332.990234375 87.9990234375 323.990234375 68.9990234375 303.990234375 68.9990234375 c 2
 71.990234375 68.9990234375 l 2
 51.990234375 68.9990234375 42.990234375 87.9990234375 42.990234375 97.9990234375 c 0
 42.990234375 107.548828125 45.66015625 188.21875 48.3203125 268.87890625 c 0
 49.66015625 309.21875 50.990234375 349.548828125 51.990234375 380.999023438 c 0x6a
 52.990234375 418.999023438 83.990234375 447.999023438 119.990234375 447.999023438 c 2
 129.990234375 447.999023438 l 1
 129.990234375 533.999023438 l 2
 129.990234375 547.999023438 133.990234375 553.999023438 142.990234375 553.999023438 c 2
 158.990234375 553.999023438 l 1
 158.990234375 576.999023438 170.990234375 590.999023438 197.990234375 590.999023438 c 2
 303.990234375 590.999023438 l 1
 370.990234375 687.999023438 l 2
 381.080078125 702.598632812 394.040039062 712.258789062 425.990234375 728.999023438 c 0
 466.290039062 749.888671875 492.990234375 765.369140625 492.990234375 781.999023438 c 2
 492.990234375 796.999023438 l 1x5880
 488.990234375 798.999023438 480.990234375 805.999023438 479.990234375 826.999023438 c 0
 479.740234375 832.399414062 477.959960938 873.549804688 477.959960938 891.5 c 0
 477.959960938 914.669921875 500.540039062 930 526 930 c 0
 552.4296875 930 575.029296875 914.669921875 575.029296875 891.509765625 c 0
 575.029296875 873.549804688 573.259765625 832.41015625 573 827 c 0x59
 572 806 562 799 558 797 c 1
 558 782 l 2
 558 762 600 740 628 730 c 0x5880
 658 719 667 697 667 672 c 0
 667 646.450195312 665.219726562 583.560546875 663.439453125 520.670898438 c 0
 662.549804688 489.220703125 661.66015625 457.780273438 661 431 c 0
 660.51953125 411.98046875 652 393 627 393 c 1
 612 22 l 2
 611 7 599 0 575 0 c 0
 552 0 536 8 536 22 c 2
 536 393 l 1x5a40
 517 393 l 1
 517 22 l 2
 517 8 501 0 477 0 c 0
 453 0 442 7 441 22 c 2
 422 638 l 1
 353 542 l 2x5a
213.990234375 447.999023438 m 1
 213.990234375 522.999023438 l 1
 161.990234375 522.999023438 l 1
 161.990234375 447.999023438 l 1
 213.990234375 447.999023438 l 1
121.990234375 50.9990234375 m 0xe6
 135.990234375 50.9990234375 147.990234375 39.9990234375 147.990234375 24.9990234375 c 0
 147.990234375 10.9990234375 135.990234375 -0.0009765625 121.990234375 -0.0009765625 c 0
 106.990234375 -0.0009765625 95.990234375 10.9990234375 95.990234375 24.9990234375 c 0
 95.990234375 39.9990234375 106.990234375 50.9990234375 121.990234375 50.9990234375 c 0xe6
252.990234375 50.9990234375 m 0
 266.990234375 50.9990234375 278.990234375 39.9990234375 278.990234375 24.9990234375 c 0
 278.990234375 10.9990234375 266.990234375 -0.0009765625 252.990234375 -0.0009765625 c 0
 238.990234375 -0.0009765625 226.990234375 10.9990234375 226.990234375 24.9990234375 c 0
 226.990234375 39.9990234375 238.990234375 50.9990234375 252.990234375 50.9990234375 c 0
EndSplineSet
EndChar

StartChar: F.ss01
Encoding: 65543 -1 69
Width: 683
Flags: MW
HStem: 522.99 66
VStem: 426 87 474.01 97 489.01 67 532 83.5
LayerCount: 2
Back
Fore
SplineSet
370 538 m 2xc0
 365 528 359.009765625 522.990234375 339.009765625 522.990234375 c 2xc0
 203.009765625 522.990234375 l 2
 184.009765625 522.990234375 169.009765625 537.990234375 169.009765625 556.990234375 c 0
 169.009765625 572.990234375 183.009765625 588.990234375 202.009765625 588.990234375 c 2
 324.009765625 588.990234375 l 1
 359.009765625 672.990234375 l 2
 371.009765625 699.990234375 395.009765625 723.990234375 445.009765625 740.990234375 c 0
 468.009765625 748.990234375 489.009765625 767.990234375 489.009765625 790.990234375 c 2
 489.009765625 796.990234375 l 2
 486.009765625 798.990234375 478.009765625 805.990234375 477.009765625 826.990234375 c 0x90
 476.6796875 833.990234375 476.229492188 842.100585938 475.7890625 850.2109375 c 0
 474.899414062 866.430664062 474.009765625 882.650390625 474.009765625 889.990234375 c 0
 474.009765625 913.990234375 496.009765625 929.990234375 522.009765625 929.990234375 c 0
 550.009765625 929.990234375 571.009765625 913.990234375 571.009765625 889.990234375 c 0
 571.009765625 882.650390625 570.41015625 866.419921875 569.8203125 850.189453125 c 0
 569.520507812 842.08984375 569.23046875 833.990234375 569.010742188 827 c 0xa0
 568.010742188 806 560.010742188 799 556.010742188 797 c 1
 556.010742188 791 l 2
 556.010742188 770 561.010742188 754 600.010742188 740 c 0x90
 656.010742188 722 664.010742188 700.009765625 664.010742188 665 c 0
 664.010742188 646.33984375 661.930664062 583.25 659.860351562 520.16015625 c 0
 658.8203125 488.58984375 657.780273438 457.009765625 657 431 c 0
 656 414 648 393 623 393 c 1
 608 22 l 2
 607 7 596 0 572 0 c 0
 548 0 532 8 532 22 c 2
 532 389 l 1xc8
 513 389 l 1
 513 22 l 2
 513 8 497 0 474 0 c 0
 450 0 439 7 438 22 c 2
 414 634 l 1
 370 538 l 2xc0
192.009765625 445.990234375 m 2
 197.009765625 434.990234375 200.009765625 424.990234375 200.009765625 417.990234375 c 0
 200.009765625 406.990234375 197.009765625 403.990234375 187.009765625 398.990234375 c 2
 170.009765625 390.990234375 l 2
 166.009765625 388.990234375 162.009765625 387.990234375 159.009765625 387.990234375 c 0
 149.009765625 387.990234375 141.009765625 397.990234375 132.009765625 416.990234375 c 2
 127.009765625 427.990234375 l 2
 121.009765625 440.990234375 119.009765625 448.990234375 119.009765625 453.990234375 c 0
 119.009765625 462.990234375 122.009765625 468.990234375 130.009765625 472.990234375 c 2
 149.009765625 481.990234375 l 2
 154.009765625 483.990234375 157.009765625 483.990234375 161.009765625 483.990234375 c 0
 169.009765625 483.990234375 178.009765625 474.990234375 187.009765625 455.990234375 c 2
 192.009765625 445.990234375 l 2
248.009765625 335.990234375 m 2
 264.009765625 335.990234375 275.020507812 324.990234375 275.020507812 313.990234375 c 0
 275.020507812 300.440429688 265.830078125 223.780273438 256.650390625 147.120117188 c 0
 252.05078125 108.780273438 247.4609375 70.4404296875 244.010742188 39.990234375 c 0
 241.010742188 18.990234375 230.010742188 -1.009765625 201.010742188 -1.009765625 c 2
 98.0107421875 -1.009765625 l 2
 69.0107421875 -1.009765625 58.0107421875 18.990234375 56.0107421875 39.990234375 c 0
 52.4609375 70.4306640625 47.720703125 108.760742188 42.98046875 147.081054688 c 0
 33.5 223.760742188 24.009765625 300.440429688 24.009765625 313.990234375 c 0
 24.009765625 325.990234375 35.009765625 335.990234375 51.009765625 335.990234375 c 2
 248.009765625 335.990234375 l 2
EndSplineSet
EndChar

StartChar: G.ss01
Encoding: 65544 -1 70
Width: 880
Flags: MW
HStem: 393 73<506.99 573.99 506.99 609> 700 29 754 27 849.99 22.01 900 30
VStem: 0 28.99 95.98 26 124.98 26 199.99 30.01 267.99 239 356.99 62 617 83 660.96 97.07 675.99 67.01 719 82.5
LayerCount: 2
Back
Fore
SplineSet
114 700 m 0xcec2
 50 700 0 750 0 815 c 0
 0 879 50 930 114 930 c 0
 179 930 230 879 230 815 c 0
 230 750 179 700 114 700 c 0xcec2
19 393 m 2
 9 393 -0.0087890625 403.000976562 -0.0087890625 422.000976562 c 2
 -0.0087890625 437.000976562 l 2
 -0.0087890625 456.000976562 8.9912109375 466.000976562 18.9912109375 466.000976562 c 2
 267.991210938 466.000976562 l 1
 267.991210938 652.000976562 l 2xcec2
 267.991210938 679.000976562 286.991210938 700.000976562 315.991210938 700.000976562 c 0
 334.991210938 700.000976562 356.991210938 725.000976562 356.991210938 734.000976562 c 2
 356.991210938 747.000976562 l 1
 350.991210938 747.000976562 346.991210938 753.000976562 344.991210938 766.000976562 c 0
 343.880859375 773.560546875 342.390625 783.120117188 340.91015625 792.6796875 c 0
 337.950195312 811.790039062 334.990234375 830.889648438 334.990234375 834 c 0
 334.990234375 862 360.990234375 872 388.990234375 872 c 0
 413.990234375 872 439.990234375 862 439.990234375 834 c 0
 439.990234375 830.889648438 437.330078125 811.779296875 434.66015625 792.668945312 c 0
 433.330078125 783.109375 431.990234375 773.559570312 430.990234375 766 c 0
 428.990234375 753 423.990234375 747 418.990234375 747 c 1
 418.990234375 734 l 2xcea2
 418.990234375 725 430.990234375 700 458.990234375 700 c 0
 487.990234375 700 506.990234375 680 506.990234375 652 c 2
 506.990234375 466 l 1
 573.990234375 466 l 1
 572.33984375 533.75 571.1796875 580.58984375 570.389648438 612.479492188 c 0
 569.319335938 655.329101562 568.9296875 671.19921875 568.9296875 674.529296875 c 0xced2
 568.9296875 698.479492188 579.009765625 719.369140625 607.990234375 729.999023438 c 0
 635.990234375 739.999023438 675.990234375 761.999023438 675.990234375 781.999023438 c 2
 675.990234375 796.999023438 l 1xcec4
 671.990234375 798.999023438 666.400390625 806.138671875 663.990234375 826.999023438 c 0
 661.950195312 844.729492188 660.959960938 889.33984375 660.959960938 891.5 c 0
 660.959960938 914.66015625 683.559570312 930 709.989257812 930 c 0
 735.44921875 930 758.029296875 914.66015625 758.029296875 891.5 c 0
 758.029296875 873.540039062 756.999023438 844.459960938 755.999023438 827 c 0xcec8
 754.798828125 806.009765625 746.999023438 799 742.999023438 797 c 1
 742.999023438 782 l 2
 742.999023438 762 782.999023438 740 810.999023438 730 c 0xcec4
 840.029296875 719.349609375 851.059570312 698.239257812 851.059570312 674.399414062 c 0
 851.059570312 671.099609375 850.869140625 664.599609375 849.62890625 622.76953125 c 0
 848.609375 588.479492188 846.889648438 530.459960938 844 431 c 0
 843 409 833 393 808 393 c 1
 795 22 l 2
 794 7 783 0 759 0 c 0
 735 0 719 8 719 22 c 2
 719 393 l 1xcec2
 700 393 l 1
 700 22 l 2
 700 8 684 0 661 0 c 0
 637 0 626 7 625 22 c 2
 609 393 l 1xced2
 19 393 l 2
113.991210938 729.000976562 m 0
 161.991210938 729.000976562 199.991210938 767.000976562 199.991210938 815.000976562 c 0
 199.991210938 862.000976562 161.991210938 900.000976562 113.991210938 900.000976562 c 0
 66.9912109375 900.000976562 28.9912109375 862.000976562 28.9912109375 815.000976562 c 0
 28.9912109375 767.000976562 66.9912109375 729.000976562 113.991210938 729.000976562 c 0
107.991210938 792.000976562 m 2xddc2
 100.991210938 792.000976562 98.978515625 792.001953125 98.978515625 796.001953125 c 0
 98.978515625 805.631835938 103.778320312 814.021484375 109.978515625 821.001953125 c 0
 111.818359375 823.061523438 113.598632812 824.971679688 115.249023438 826.741210938 c 0
 120.819335938 832.69140625 124.979492188 837.141601562 124.979492188 840.991210938 c 0
 124.979492188 845.991210938 121.979492188 849.991210938 112.979492188 849.991210938 c 0
 106.069335938 849.991210938 100.599609375 847.611328125 97.2099609375 846.130859375 c 0
 95.7001953125 845.470703125 94.6005859375 845.000976562 93.98046875 845.000976562 c 0
 89.98046875 845.000976562 83.98046875 855.000976562 83.98046875 858.000976562 c 0
 83.98046875 868.000976562 101.98046875 872.000976562 114.98046875 872.000976562 c 0
 137.98046875 872.000976562 150.98046875 861.000976562 150.98046875 842.000976562 c 0
 150.98046875 827.380859375 141.760742188 819.600585938 133.291015625 812.4609375 c 0
 127.28125 807.390625 121.651367188 802.640625 119.991210938 796.000976562 c 0
 118.991210938 792.000976562 116.991210938 792.000976562 111.991210938 792.000976562 c 2
 107.991210938 792.000976562 l 2xddc2
111.978515625 781.001953125 m 2
 118.978515625 781.001953125 121.978515625 779.001953125 121.978515625 775.001953125 c 2
 121.978515625 759.001953125 l 2
 121.978515625 756.001953125 118.978515625 754.001953125 111.978515625 754.001953125 c 2
 105.978515625 754.001953125 l 2
 99.978515625 754.001953125 95.978515625 756.001953125 95.978515625 759.001953125 c 2xeec2
 95.978515625 775.001953125 l 2
 95.978515625 779.001953125 99.978515625 781.001953125 105.978515625 781.001953125 c 2
 111.978515625 781.001953125 l 2
EndSplineSet
EndChar

StartChar: H.ss01
Encoding: 65545 -1 71
Width: 310
Flags: MW
HStem: 475 57.99
VStem: 6.00999 46 58 85 103.01 98 120.01 62.99 162 85.5 261.01 43.99
LayerCount: 2
Back
Fore
SplineSet
33 475 m 2xa4
 16 475 6.009765625 493.989257812 6.009765625 516.979492188 c 0
 6.009765625 530.989257812 13.75 578.059570312 23.25 635.889648438 c 0
 26.7001953125 656.859375 30.3798828125 679.249023438 34.009765625 701.989257812 c 0
 37.009765625 722.989257812 47.009765625 739.989257812 76.009765625 743.989257812 c 0
 104.009765625 748.989257812 120.009765625 767.989257812 120.009765625 790.989257812 c 2
 120.009765625 796.989257812 l 2
 117.009765625 798.989257812 107.009765625 805.989257812 106.009765625 826.989257812 c 0xc8
 105.6796875 833.989257812 105.229492188 842.099609375 104.7890625 850.209960938 c 0
 103.899414062 866.4296875 103.009765625 882.649414062 103.009765625 889.989257812 c 0
 103.009765625 913.989257812 126.009765625 929.989257812 152.009765625 929.989257812 c 0
 178.009765625 929.989257812 201.009765625 913.989257812 201.009765625 889.989257812 c 0
 201.009765625 882.649414062 200.120117188 866.4296875 199.23046875 850.209960938 c 0
 198.780273438 842.099609375 198.33984375 833.989257812 198 826.989257812 c 0x90
 197 805.989257812 187 798.989257812 183 796.989257812 c 1
 183 790.989257812 l 2
 183 767.989257812 200 748.989257812 229 743.989257812 c 0
 258 739.989257812 271 722.989257812 276 701.989257812 c 0
 278.309570312 692.869140625 280.44921875 684.409179688 282.4296875 676.559570312 c 0
 299.290039062 609.959960938 305 587.419921875 305 576 c 0
 305 568 304 560 299 551 c 0x8a
 289 532 268 513 257 513 c 1
 238 22 l 2
 237 7 226 0 202 0 c 0
 178 0 162 8 162 22 c 2
 162 389 l 1x84
 143 389 l 1
 143 22 l 2
 143 8 127 0 104 0 c 0
 80 0 69 7 68 22 c 2
 48 475 l 1
 33 475 l 2xa4
204.009765625 612.989257812 m 2xc6
 199.009765625 606.989257812 198.009765625 602.989257812 198.009765625 600.989257812 c 0
 198.009765625 597.989257812 199.009765625 593.989257812 201.009765625 590.989257812 c 2
 111.009765625 590.989257812 l 2
 68.009765625 590.989257812 52.009765625 570.989257812 52.009765625 532.989257812 c 1
 190.009765625 532.989257812 l 2
 195.009765625 532.989257812 201.009765625 534.989257812 206.009765625 539.989257812 c 2
 256.009765625 590.989257812 l 2
 260.009765625 594.989257812 261.009765625 600.989257812 261.009765625 606.989257812 c 0
 261.009765625 620.989257812 248.009765625 632.989257812 234.009765625 632.989257812 c 0
 227.009765625 632.989257812 220.009765625 629.989257812 215.009765625 624.989257812 c 2
 204.009765625 612.989257812 l 2xc6
EndSplineSet
EndChar

StartChar: I.ss01
Encoding: 65546 -1 72
Width: 880
Flags: MW
HStem: 0 78
VStem: 597.99 52 728.99 52
LayerCount: 2
Back
Fore
SplineSet
33 106 m 2
 8 65 3.9873046875 56.990234375 3.9873046875 50.990234375 c 0
 3.9873046875 41.990234375 9.9873046875 33.990234375 21.9873046875 24.990234375 c 0
 35.9873046875 14.990234375 43.9873046875 11.990234375 51.9873046875 11.990234375 c 0
 58.9873046875 11.990234375 65.9873046875 14.990234375 69.9873046875 20.990234375 c 2
 151.987304688 147.990234375 l 2
 168.987304688 175.990234375 179.987304688 194.990234375 188.987304688 217.990234375 c 2
 238.987304688 356.990234375 l 1
 316.987304688 230.990234375 l 1
 348.987304688 21.990234375 l 2
 353.987304688 3.990234375 367.987304688 -0.009765625 392.987304688 -0.009765625 c 0
 413.987304688 -0.009765625 424.987304688 5.990234375 424.987304688 16.990234375 c 0
 424.987304688 18.990234375 424.987304688 19.990234375 423.987304688 30.990234375 c 2
 400.987304688 235.990234375 l 2
 397.987304688 258.990234375 396.987304688 263.990234375 390.987304688 277.990234375 c 2
 302.987304688 457.990234375 l 1
 309.987304688 533.990234375 l 1
 335.987304688 509.990234375 l 2
 343.887695312 502.700195312 351.7578125 499.990234375 364.98828125 499.990234375 c 2
 449.98828125 499.990234375 l 1
 505.98828125 429.990234375 l 1
 551.98828125 147.990234375 l 2
 560.208007812 97.6201171875 589.98828125 77.990234375 641.98828125 77.990234375 c 2
 788.98828125 77.990234375 l 1
 802.98828125 63.990234375 l 2
 811.98828125 54.990234375 820.98828125 52.990234375 843.98828125 52.990234375 c 0
 868.98828125 52.990234375 875.98828125 56.990234375 875.98828125 62.990234375 c 0
 875.98828125 65.990234375 873.80859375 69.7998046875 870.98828125 72.990234375 c 2
 770.98828125 185.990234375 l 2
 758.98828125 198.990234375 744.98828125 203.990234375 725.98828125 203.990234375 c 1
 647.98828125 304.990234375 l 1
 645.98828125 318.990234375 l 1
 652.98828125 321.990234375 660.98828125 327.990234375 661.98828125 344.990234375 c 0
 662.328125 349.990234375 662.768554688 355.990234375 663.21875 361.990234375 c 0
 664.108398438 373.990234375 664.998046875 385.990234375 664.998046875 389.990234375 c 0
 664.998046875 413.990234375 648.998046875 430.990234375 617.998046875 430.990234375 c 0
 590.998046875 430.990234375 578.998046875 418.990234375 572.998046875 400.990234375 c 1
 480.998046875 518.990234375 l 2
 477.517578125 523.450195312 473.998046875 527.990234375 467.998046875 530.990234375 c 1
 467.998046875 547.990234375 454.998046875 560.990234375 438.998046875 560.990234375 c 2
 366.998046875 560.990234375 l 1
 305.998046875 636.990234375 l 1
 305.998046875 670.530273438 296.788085938 699.459960938 283.828125 724.580078125 c 0
 276.658203125 738.490234375 269.98828125 751.41015625 269.98828125 766.990234375 c 2
 268.98828125 793.990234375 l 1
 280.98828125 796.990234375 287.98828125 804.990234375 287.98828125 826.990234375 c 0
 288.098632812 834.009765625 288.249023438 842.029296875 288.399414062 850.0390625 c 0
 288.69921875 866.029296875 288.989257812 881.999023438 288.989257812 889.989257812 c 0
 288.989257812 913.989257812 265.989257812 929.989257812 239.989257812 929.989257812 c 0
 213.989257812 929.989257812 190.989257812 913.989257812 190.989257812 889.989257812 c 0
 190.989257812 881.989257812 191.87890625 865.989257812 192.768554688 849.989257812 c 0
 193.21875 841.989257812 193.659179688 833.989257812 193.999023438 826.989257812 c 0
 194.999023438 805.989257812 204.999023438 798.989257812 207.999023438 796.989257812 c 2
 206.999023438 766.989257812 l 2
 206.69921875 758.069335938 203.149414062 748.569335938 198.969726562 737.369140625 c 0
 197.889648438 734.479492188 196.759765625 731.469726562 195.639648438 728.330078125 c 0
 186.919921875 703.900390625 175.379882812 671.580078125 168 623 c 2
 105 225 l 1
 33 106 l 2
623.987304688 50.990234375 m 0
 637.987304688 50.990234375 649.987304688 39.990234375 649.987304688 24.990234375 c 0
 649.987304688 10.990234375 637.987304688 -0.009765625 623.987304688 -0.009765625 c 0
 609.987304688 -0.009765625 597.987304688 10.990234375 597.987304688 24.990234375 c 0
 597.987304688 39.990234375 609.987304688 50.990234375 623.987304688 50.990234375 c 0
754.987304688 50.990234375 m 0
 769.987304688 50.990234375 780.987304688 39.990234375 780.987304688 24.990234375 c 0
 780.987304688 10.990234375 769.987304688 -0.009765625 754.987304688 -0.009765625 c 0
 740.987304688 -0.009765625 728.987304688 10.990234375 728.987304688 24.990234375 c 0
 728.987304688 39.990234375 740.987304688 50.990234375 754.987304688 50.990234375 c 0
EndSplineSet
EndChar

StartChar: J.ss01
Encoding: 65547 -1 73
Width: 620
Flags: MW
HStem: 378 53
VStem: 83.49 67.5 130.49 57 167.99 68.5 362.49 83.5 406.95 97.07 421.98 67.01 464.99 83
LayerCount: 2
Back
Fore
SplineSet
314 672 m 2x98
 314 697 323.979492188 718.991210938 353.979492188 729.991210938 c 0
 381.979492188 739.991210938 421.979492188 761.991210938 421.979492188 781.991210938 c 2
 421.979492188 796.991210938 l 1x92
 417.979492188 798.991210938 410.909179688 806.05078125 408.979492188 826.991210938 c 0
 407.979492188 837.8515625 406.94921875 884.391601562 406.94921875 891.491210938 c 0
 406.94921875 914.661132812 429.529296875 929.991210938 454.989257812 929.991210938 c 0
 481.418945312 929.991210938 504.018554688 914.661132812 504.018554688 891.500976562 c 0
 504.018554688 883.911132812 502.018554688 844.541015625 500.98828125 827.000976562 c 0x94
 499.7578125 806.03125 492.98828125 799.000976562 488.98828125 797.000976562 c 1
 488.98828125 782.000976562 l 2
 488.98828125 762.000976562 528.98828125 740.000976562 556.98828125 730.000976562 c 0x92
 586.98828125 719.000976562 595.98828125 697.000976562 595.98828125 672.000976562 c 2
 589.98828125 431.000976562 l 2
 588.98828125 412.000976562 580.98828125 393.000976562 555.98828125 393.000976562 c 1
 539.98828125 22.0009765625 l 2
 539.348632812 7.0205078125 527.98828125 0.0009765625 503.98828125 0.0009765625 c 0
 480.98828125 0.0009765625 464.98828125 8.0009765625 464.98828125 22.0009765625 c 2
 464.98828125 389.000976562 l 1x99
 445.98828125 389.000976562 l 1
 445.98828125 22.0009765625 l 2
 445.98828125 8.0009765625 429.98828125 0.0009765625 405.98828125 0.0009765625 c 0
 381.98828125 0.0009765625 370.98828125 7.0009765625 369.98828125 22.0009765625 c 2
 354.98828125 378.000976562 l 1
 310.98828125 378.000976562 l 2
 286.73828125 378.000976562 272.30859375 383.53125 263.98828125 396.000976562 c 2
 240.98828125 427.000976562 l 1
 231.98828125 22.0009765625 l 2
 231.638671875 5.970703125 225.98828125 0.0009765625 200.98828125 0.0009765625 c 0
 177.98828125 0.0009765625 167.98828125 8.0009765625 167.98828125 22.0009765625 c 2
 167.98828125 263.000976562 l 1x98
 150.98828125 263.000976562 l 1
 150.98828125 22.0009765625 l 2
 150.98828125 8.0009765625 140.98828125 0.0009765625 116.98828125 0.0009765625 c 0
 92.98828125 0.0009765625 88.98828125 7.0009765625 87.98828125 22.0009765625 c 2
 78.98828125 286.000976562 l 1
 64.1787109375 286.000976562 53.7587890625 293.7109375 53.7587890625 304.37109375 c 0
 53.7587890625 308.9609375 59.44921875 371.19140625 74.9892578125 516.000976562 c 0xd8
 77.4697265625 539.060546875 95.9892578125 558.000976562 129.989257812 558.000976562 c 1
 130.989257812 581.000976562 l 1
 124.989257812 584.000976562 115.719726562 589.981445312 114.989257812 607.000976562 c 0
 113.088867188 651.37109375 112.928710938 660.30078125 112.928710938 662.23046875 c 0
 112.928710938 679.05078125 124.5390625 700.000976562 158.989257812 700.000976562 c 0
 192.94921875 700.000976562 205.048828125 680.020507812 205.048828125 662.950195312 c 0
 205.048828125 660.83984375 204.838867188 655.41015625 203.029296875 607.740234375 c 0
 203.01953125 607.5 203.009765625 607.25 203 607 c 0
 202 590 194 584 187 581 c 1
 188 558 l 1
 217 558 229 543 247 517 c 2xa8
 307 431 l 1
 320 431 l 1
 314 672 l 2x98
EndSplineSet
EndChar

StartChar: K.ss01
Encoding: 65548 -1 74
Width: 398
Flags: MW
HStem: 0 863<308.5 337.5>
VStem: 95 80 297 33<14 411>
LayerCount: 2
Back
Fore
SplineSet
212 496 m 1
 176 429.000976562 l 1
 175 22.0009765625 l 2
 175 8.0009765625 160 0.0009765625 136 0.0009765625 c 0
 112 0.0009765625 101 7.0009765625 100 22.0009765625 c 2
 90 239.000976562 l 1
 55 362.000976562 l 2
 48 385.000976562 40 422.000976562 40 446.000976562 c 0
 40 466.000976562 47 490.000976562 53 500.000976562 c 2
 160 678.000976562 l 2
 173 700.000976562 188 711.000976562 223 728.000976562 c 0
 234.25 733.62109375 240.33984375 739.220703125 248.169921875 748.990234375 c 2
 257 760 l 2
 256 762 255 764 255 767 c 0
 255 772 257 778 263 788 c 2
 301 848 l 2
 308 858 320 863 332 863 c 0
 343 863 353 861 365 852 c 0
 380 841 388 826 388 810 c 0
 388 802 386 796 382 790 c 2
 335 728 l 2
 330 722 324 720 319 720 c 0
 314 720 306 724 304 725 c 2
 301 720 l 2
 295 711 291 693 290 670 c 0
 289 649 279 621 269 601 c 1
 269 537 l 1
 344 465 l 2
 353 454 354 449 354 442 c 0
 354 431 345 415 330 411 c 1
 330 14 l 2
 330 7 324 0 314 0 c 0
 303 0 297 7 297 14 c 2
 297 420 l 1
 212 496 l 1
EndSplineSet
EndChar

StartChar: L.ss01
Encoding: 65549 -1 75
Width: 530
Flags: MW
HStem: 219 140<255 300 300 313 255 332> 700 29<440.5 488 440.5 496.5> 801 26<460.5 500 478 500 478 500> 900 30<440.5 488>
VStem: 82 99<649 713 639.5 725> 98 62<600 609 609 618 598 618> 350 29<791 838.5 791 847> 451 27<827 866 827 866 858 866 827 869.5> 550 30<791 838.5>
LayerCount: 2
Back
Fore
SplineSet
464 700 m 0xfb80
 400 700 350 750 350 815 c 0
 350 879 400 930 464 930 c 0
 529 930 580 879 580 815 c 0
 580 750 529 700 464 700 c 0xfb80
464 729 m 0
 512 729 550 767 550 815 c 0
 550 862 512 900 464 900 c 0
 417 900 379 862 379 815 c 0
 379 767 417 729 464 729 c 0
514 814 m 0
 514 805 507 801 500 801 c 2
 464 801 l 2
 457 801 451 806 451 814 c 0
 451 827 451 850 451 866 c 0
 451 873 455 880 464 880 c 0
 473 880 478 873 478 866 c 2
 478 827 l 1
 500 827 l 2
 507 827 514 823 514 814 c 0
469.349609375 25.5 m 2
 471.389648438 18.2099609375 473 12.4599609375 473 11 c 0
 473 3 464 0 437 0 c 0
 411 0 401 3 397 14 c 2
 332 219 l 1
 113 219 l 2
 86 219 74 239 71 261 c 2
 47 447 l 2
 44 468 40 501 40 511 c 0
 40 522 51 528 73 528 c 1
 84 548 98 581 98 600 c 2
 98 618 l 1
 94 620 82 628 82 649 c 2
 82 713 l 2
 82 737 106 754 130 754 c 0
 155 754 181 737 181 713 c 2
 181 648 l 2xfb80
 181 631 165 619 160 618 c 1
 160 609 l 2
 160 587 168 575 182 562 c 0
 197 550 213 535 222 498 c 2
 255 359 l 1xf780
 300 359 l 2
 326 359 341 343 341 320 c 1
 349 320 l 2
 372 320 389 313 395 290 c 2
 469.349609375 25.5 l 2
EndSplineSet
EndChar

StartChar: M.ss01
Encoding: 65550 -1 76
Width: 580
Flags: MW
HStem: 388 135<451.99 463.99 463.99 573> 490 66<299.99 414 326 403.99> 542 17<486.49 491.49> 575 18<449.99 454.49 486.49 491.49> 584 32<443 443 460 460> 616 32<443 443 460 460> 629 7 648 31 663 18<368.49 373.49> 679 21
VStem: 120.99 80 370.99 18 410.99 18 434.99 17 443.99 17 488.99 84.01 509.99 17 538.99 18
LayerCount: 2
Back
Fore
SplineSet
573 388 m 1x8001
 463.990234375 388 l 2
 439.990234375 388 430.990234375 399 421.990234375 429 c 2x8048
 403.990234375 490 l 1
 304.990234375 490 l 2
 294.990234375 490 281.990234375 493 274.990234375 500 c 2
 242.990234375 534 l 1
 184.990234375 429 l 1
 200.990234375 245 l 1
 200.990234375 22 l 2
 200.990234375 8 185.990234375 0 161.990234375 0 c 0
 137.990234375 0 126.990234375 7 125.990234375 22 c 2
 115.990234375 239 l 1
 69.990234375 362 l 2
 60.990234375 385 43.990234375 434 43.990234375 465 c 0
 43.990234375 478 46.990234375 490 52.990234375 500 c 2
 165.990234375 678 l 2
 183.990234375 705 196.990234375 715 231.990234375 732 c 0
 243.990234375 738 253.280273438 742.940429688 261.990234375 756 c 2
 267.990234375 765 l 2
 267.120117188 766.75 266.049804688 769.26953125 266.049804688 772.889648438 c 0
 266.049804688 777.540039062 267.809570312 784 274 793 c 2
 313 853 l 2
 320 863 332 868 344 868 c 0
 355 868 365 866 377 857 c 0
 392 846 400 831 400 815 c 0
 400 807 398 801 394 795 c 2
 346 732 l 2
 341 726 335 724 330 724 c 0
 325 724 317 728 315 729 c 2
 312 724 l 2
 306 715 303 698 302 675 c 0
 301 654 293 629 283 609 c 1
 326 556 l 1
 414 556 l 2
 431 556 446 540 446 523 c 1
 573 523 l 1x4021
 573 388 l 1x8001
428.990234375 700 m 0
 428.990234375 695 424.990234375 691 419.990234375 691 c 0
 414.990234375 691 410.990234375 695 410.990234375 700 c 0
 410.990234375 705 414.990234375 709 419.990234375 709 c 0
 424.990234375 709 428.990234375 705 428.990234375 700 c 0
388.990234375 688 m 0x0050
 383.990234375 688 379.990234375 692 379.990234375 696 c 0
 379.990234375 701 383.990234375 705 388.990234375 705 c 0
 393.990234375 705 397.990234375 701 397.990234375 696 c 0
 397.990234375 692 393.990234375 688 388.990234375 688 c 0x0050
451.990234375 679 m 0x0104
 451.990234375 674 447.990234375 670 443.990234375 670 c 0
 438.990234375 670 434.990234375 674 434.990234375 679 c 0
 434.990234375 684 438.990234375 688 443.990234375 688 c 0
 447.990234375 688 451.990234375 684 451.990234375 679 c 0x0104
370.990234375 663 m 0x0090
 365.990234375 663 361.990234375 667 361.990234375 672 c 0
 361.990234375 677 365.990234375 681 370.990234375 681 c 0
 375.990234375 681 379.990234375 677 379.990234375 672 c 0
 379.990234375 667 375.990234375 663 370.990234375 663 c 0x0090
460.990234375 648 m 0x0402
 460.990234375 644 456.990234375 640 451.990234375 640 c 0
 447.990234375 640 443.990234375 644 443.990234375 648 c 0
 443.990234375 654 447.990234375 658 451.990234375 658 c 0
 456.990234375 658 460.990234375 654 460.990234375 648 c 0x0402
526.990234375 636 m 0x020080
 526.990234375 631 522.990234375 627 518.990234375 627 c 0
 513.990234375 627 509.990234375 631 509.990234375 636 c 0
 509.990234375 641 513.990234375 645 518.990234375 645 c 0
 522.990234375 645 526.990234375 641 526.990234375 636 c 0x020080
556.990234375 629 m 0x020040
 556.990234375 624 552.990234375 620 547.990234375 620 c 0
 542.990234375 620 538.990234375 624 538.990234375 629 c 0
 538.990234375 634 542.990234375 638 547.990234375 638 c 0
 552.990234375 638 556.990234375 634 556.990234375 629 c 0x020040
460.990234375 616 m 0x0802
 460.990234375 611 456.990234375 607 451.990234375 607 c 0
 447.990234375 607 443.990234375 611 443.990234375 616 c 0
 443.990234375 621 447.990234375 625 451.990234375 625 c 0
 456.990234375 625 460.990234375 621 460.990234375 616 c 0x0802
506.990234375 613 m 0x0801
 506.990234375 608 502.990234375 604 497.990234375 604 c 0
 492.990234375 604 488.990234375 608 488.990234375 613 c 0
 488.990234375 618 492.990234375 622 497.990234375 622 c 0
 502.990234375 622 506.990234375 618 506.990234375 613 c 0x0801
460.990234375 584 m 0x0802
 460.990234375 579 456.990234375 575 451.990234375 575 c 0
 447.990234375 575 443.990234375 579 443.990234375 584 c 0
 443.990234375 589 447.990234375 593 451.990234375 593 c 0
 456.990234375 593 460.990234375 589 460.990234375 584 c 0x0802
488.990234375 593 m 0x1001
 493.990234375 593 497.990234375 589 497.990234375 584 c 0
 497.990234375 579 493.990234375 575 488.990234375 575 c 0
 483.990234375 575 479.990234375 579 479.990234375 584 c 0
 479.990234375 589 483.990234375 593 488.990234375 593 c 0x1001
488.990234375 542 m 0x2001
 483.990234375 542 479.990234375 546 479.990234375 551 c 0
 479.990234375 555 483.990234375 559 488.990234375 559 c 0
 493.990234375 559 497.990234375 555 497.990234375 551 c 0
 497.990234375 546 493.990234375 542 488.990234375 542 c 0x2001
EndSplineSet
EndChar

StartChar: N.ss01
Encoding: 65551 -1 77
Width: 370
Flags: MW
HStem: 0 930<124 197.725 171.78 246>
VStem: 92 83 135.96 97.07 151 67<782.01 797 772 797.01 772 797.01> 194 83.5
LayerCount: 2
Back
Fore
SplineSet
319 431 m 0x88
 318 414 310 393 285 393 c 1
 270 22 l 2
 269 7 258 0 234 0 c 0
 210 0 194 8 194 22 c 2
 194 389 l 1x88
 175 389 l 1
 175 22 l 2
 175 8 159 0 136 0 c 0
 112 0 101 7 100 22 c 2
 84 393 l 1
 59 393 51 412 50 431 c 0
 49.33984375 457.780273438 48.4501953125 489.560546875 47.560546875 521.340820312 c 0
 45.7802734375 584.900390625 44 648.450195312 44 672.009765625 c 0xc8
 44 697.009765625 53 719.009765625 83 730.009765625 c 0
 111 740.009765625 151 762.009765625 151 782.009765625 c 2
 151 797.009765625 l 1x90
 147 799.009765625 140.299804688 806.049804688 139 827.009765625 c 0
 137.950195312 843.729492188 135.959960938 883.33984375 135.959960938 891.509765625 c 0
 135.959960938 914.669921875 158.559570312 930 185 930 c 0
 210.450195312 930 233.030273438 914.669921875 233.030273438 891.5 c 0
 233.030273438 873.549804688 232.040039062 843.469726562 231 827 c 0xa0
 229.669921875 806.01953125 222 799 218 797 c 1
 218 782 l 2
 218 762 258 740 286 730 c 0x90
 316 719 326 696.959960938 326 672 c 0
 326 636.669921875 321.330078125 511.330078125 319 431 c 0x88
EndSplineSet
EndChar

StartChar: O.ss01
Encoding: 65552 -1 78
Width: 298
Flags: MW
HStem: 0 700
VStem: 69.5 67.5 117.51 56.99 154 67.5
LayerCount: 2
Back
Fore
SplineSet
66 286 m 1xc0
 51.1298828125 286 40.76953125 294.078125 40.76953125 304.48828125 c 0
 40.76953125 306.6484375 41.849609375 317.8984375 62.009765625 515.998046875 c 0xc0
 64.4794921875 540.288085938 83.009765625 557.998046875 117.009765625 557.998046875 c 1
 118.009765625 580.998046875 l 1
 111.009765625 583.998046875 102.669921875 589.98828125 102.009765625 606.998046875 c 0
 100.129882812 655.387695312 99.939453125 660.248046875 99.939453125 662.23828125 c 0
 99.939453125 678.948242188 111.559570312 699.998046875 146 699.998046875 c 0
 180.48046875 699.998046875 192.0703125 678.908203125 192.0703125 662.188476562 c 0
 192.0703125 660.12890625 191.890625 655.659179688 190.090820312 609.279296875 c 0
 190.060546875 608.529296875 190.030273438 607.76953125 190 607 c 0
 189.33984375 589.900390625 180 584 174 581 c 1
 175 558 l 1
 209 558 227.559570312 540.299804688 230 516 c 0
 237.169921875 444.870117188 241.9296875 397.799804688 245.08984375 366.580078125 c 0
 250.66015625 311.440429688 251.23046875 305.780273438 251.23046875 304.33984375 c 0xa0
 251.23046875 293.959960938 240.790039062 286 226 286 c 1
 217 22 l 2
 216 7 212 0 188 0 c 0
 164 0 154 8 154 22 c 2
 154 263 l 1xd0
 137 263 l 1
 137 22 l 2
 137 8 127 0 104 0 c 0
 79 0 74 7 73 22 c 2
 66 286 l 1xc0
EndSplineSet
EndChar

StartChar: P.ss01
Encoding: 65553 -1 79
Width: 620
Flags: HMW
HStem: -8 35 226 140<417 428 428 441 380 469 417 417> 356 36
VStem: 20 35<145.999 233.499 145.999 242> 216 99<641 705 631.5 717> 232 62<592 601 601 610 590 610> 384 36<145.999 197.999>
LayerCount: 2
Back
Fore
SplineSet
206 439 m 2xba
 205.686566022 448.712370954 205.48205679 457.432252074 205.48205679 465.433748451 c 0
 205.48205679 491.885742428 207.7171072 510.486618412 215.640625 531.139648438 c 0
 222.200195312 548.259765625 232 573.799804688 232 592 c 2
 232 610 l 1
 228 612 216 620 216 641 c 2
 216 705 l 2
 216 729 240 746 264 746 c 0
 289 746 315 729 315 705 c 2
 315 640 l 2xda
 315 623 299 611 294 610 c 1
 294 601 l 2
 294 579 302 567 316 554 c 0
 331 542 341 527 350 490 c 2
 380 366 l 1
 428 366 l 2
 454 366 469 350 469 327 c 1
 477 327 l 2
 500 327 513 320 523 297 c 2
 608 101 l 2
 616 82 620 72 620 68 c 0
 620 62 617 59 615 57 c 0
 608 50 583 40 574 40 c 0
 569 40 564 42 562 46 c 2
 469 226 l 1
 417 226 l 1xd6
 419 214 420 204 420 192 c 0
 420 81 330 -8 220 -8 c 0
 110 -8 20 81 20 192 c 0
 20 292 95 382 207 392 c 1
 206 439 l 2xba
207 355.999023438 m 1
 113 344.999023438 55 274.999023438 55 191.999023438 c 0
 55 99.9990234375 128 26.9990234375 220 26.9990234375 c 0
 311 26.9990234375 384 99.9990234375 384 191.999023438 c 0
 384 203.999023438 383 213.999023438 380 225.999023438 c 1
 250 225.999023438 l 2
 223 225.999023438 208 245.999023438 208 267.999023438 c 2xda
 207 355.999023438 l 1
EndSplineSet
EndChar

StartChar: Q.ss01
Encoding: 65554 -1 80
Width: 290
Flags: MW
HStem: 0 930<82 150>
VStem: 46 98<890 902> 63 61<784 793 773 795 773 795> 93.5 77.5
LayerCount: 2
Back
Fore
SplineSet
195 659 m 2xa0
 199 654 201 649 201 643 c 0
 201 637 199 629 193 623 c 1xa0
 241 575 261 551 261 482 c 0
 261 461.6796875 259.709960938 443.080078125 258.540039062 426.200195312 c 0
 257.110351562 405.5 256 339.5703125 256 319 c 0
 256 301 250 294 224 294 c 2
 173 293 l 1
 171 22 l 2
 171 8 162 0 138 0 c 0
 113 0 100 7 99 22 c 2
 88 292 l 1
 60 292 l 2
 42 292 34 301 34 320 c 2
 34 418 l 2
 34 453 49 486 74 522 c 1
 46 653 l 2
 44 662 43 671 43 679 c 0x90
 43 694.419921875 47.009765625 712.040039062 54 733 c 0
 59 748 63 764 63 784 c 2
 63 795 l 1xa0
 59 797 49 804 48 825 c 2
 46 890 l 2
 46 914 69 930 95 930 c 0
 121 930 144 914 144 890 c 2
 142 821 l 2xc0
 142 806.330078125 133.700195312 798.799804688 124 793 c 1
 124 777 l 2
 124 769 129 751 141 734 c 2
 195 659 l 2xa0
EndSplineSet
EndChar

StartChar: R.ss01
Encoding: 65555 -1 81
Width: 893
Flags: MW
HStem: 225 37 261.99 66 328 49<630.01 674.01 630.01 722.01 589.01 674.01>
VStem: 399 98.01 415 67.01 512.01 78.5 750.01 99 770.01 63
LayerCount: 2
Back
Fore
SplineSet
448 795 m 0xb6
 475 795 497.009765625 779 497.009765625 755 c 2
 495.009765625 691 l 2xb6
 494.009765625 670 485.009765625 663 482.009765625 661 c 2
 482.009765625 642 l 2
 482.009765625 622 516.009765625 603 545.009765625 595 c 0
 572.009765625 588 585.009765625 563 585.009765625 537 c 0
 585.009765625 524.33984375 583.819335938 487.689453125 582.639648438 451.0390625 c 0
 582.040039062 432.689453125 581.450195312 414.33984375 581 399 c 1
 541 405 496 408 447 408 c 0
 399 408 354 405 315 399 c 1
 314.669921875 414.330078125 314.219726562 432.669921875 313.779296875 451 c 0
 312.889648438 487.669921875 312 524.330078125 312 537 c 0
 312 563 325 587 352 595 c 0
 380 603 415 622 415 642 c 2
 415 661 l 1xae
 411 663 402 670 401 691 c 2
 399 755 l 2
 399 779 421 795 448 795 c 0xb6
512.009765625 262 m 1xa6
 626.009765625 269 712.009765625 296 722.009765625 328 c 1
 589.009765625 328 l 1
 589.009765625 352 607.009765625 377 630.009765625 377 c 2
 674.009765625 377 l 1
 708.009765625 508 l 2
 715.009765625 539 726.009765625 553 747.009765625 572 c 0xa5
 762.009765625 587 770.009765625 598 770.009765625 619 c 2
 770.009765625 625 l 1
 756.700195312 631.299804688 750.009765625 641.08984375 750.009765625 654.990234375 c 2
 750.009765625 722.990234375 l 2
 750.009765625 746.990234375 775.009765625 762.990234375 800.009765625 762.990234375 c 0
 825.009765625 762.990234375 849.009765625 746.990234375 849.009765625 722.990234375 c 2
 849.009765625 656.990234375 l 2
 849.009765625 634.990234375 837.009765625 626.990234375 833.009765625 624.990234375 c 1
 833.009765625 610.990234375 l 2
 833.009765625 591.280273438 847.259765625 557.770507812 858.009765625 537.990234375 c 1
 877.009765625 537.990234375 883.009765625 532.990234375 883.009765625 520.990234375 c 0
 883.009765625 511.830078125 876.379882812 430.580078125 870.129882812 354.009765625 c 0
 867.51953125 321.979492188 864.969726562 290.76953125 863.009765625 266 c 0
 861.1796875 242.98046875 844.009765625 225 818.009765625 225 c 2
 595.009765625 225 l 1
 586.009765625 14 l 2
 585.620117188 4.9501953125 578.009765625 0 551.009765625 0 c 0
 521.009765625 0 512.009765625 4 512.009765625 16 c 2
 512.009765625 262 l 1xa6
381.009765625 262 m 1x46
 267.009765625 269 181.009765625 295.990234375 171.009765625 327.990234375 c 1
 304.009765625 327.990234375 l 1
 304.009765625 351.990234375 285.009765625 376.990234375 263.009765625 376.990234375 c 2
 219.009765625 376.990234375 l 1
 186.009765625 507.990234375 l 2
 178.009765625 538.990234375 167.009765625 552.990234375 146.009765625 571.990234375 c 0
 131.009765625 586.990234375 123.009765625 597.990234375 123.009765625 618.990234375 c 2
 123.009765625 624.990234375 l 1
 137.08984375 630.509765625 144.009765625 641.16015625 144.009765625 654.990234375 c 2
 143.009765625 722.990234375 l 2
 143.009765625 746.990234375 118.009765625 762.990234375 93.009765625 762.990234375 c 0
 68.009765625 762.990234375 44.009765625 746.990234375 44.009765625 722.990234375 c 2
 44.009765625 656.990234375 l 2
 44.009765625 634.990234375 56.009765625 626.990234375 60.009765625 624.990234375 c 1
 60.009765625 610.990234375 l 2
 60.009765625 591.280273438 45.759765625 557.770507812 35.009765625 537.990234375 c 1
 16.009765625 537.990234375 10.009765625 532.990234375 10.009765625 520.990234375 c 0
 10.009765625 511.830078125 16.6396484375 430.580078125 22.8798828125 354.009765625 c 0
 25.5 321.979492188 28.0400390625 290.76953125 30.009765625 266 c 0
 31.83984375 242.950195312 49.009765625 225 75.009765625 225 c 2
 298.009765625 225 l 1
 308.009765625 16 l 2
 308.540039062 4.9697265625 320.009765625 0 346.009765625 0 c 0
 369.009765625 0 381.009765625 5 381.009765625 16 c 2
 381.009765625 262 l 1x46
EndSplineSet
EndChar

StartChar: S.ss01
Encoding: 65556 -1 82
Width: 853
Flags: MW
HStem: 30.01 106 169 111 320.01 161
VStem: 37 111
LayerCount: 2
Back
Fore
SplineSet
626 305 m 1
 565 276 532.01171875 224.010742188 532.01171875 156.010742188 c 0
 532.01171875 59.0107421875 608.01171875 -7.9892578125 695.01171875 -7.9892578125 c 0
 782.01171875 -7.9892578125 859.01171875 59.0107421875 859.01171875 156.010742188 c 0
 859.01171875 243.010742188 791.01171875 320.010742188 695.01171875 320.010742188 c 0
 685.01171875 320.010742188 667.01171875 318.010742188 655.01171875 315.010742188 c 1
 593.01171875 503.010742188 l 2
 589.01171875 517.010742188 585.01171875 523.010742188 573.01171875 523.010742188 c 2
 556.01171875 523.010742188 l 1
 556.01171875 536.010742188 544.01171875 548.010742188 525.01171875 548.010742188 c 2
 431.01171875 548.010742188 l 1
 383.01171875 692.010742188 l 2
 380.69140625 698.3203125 379.03125 704.5703125 379.03125 710.620117188 c 0
 379.03125 718.370117188 380.831054688 725.419921875 383.010742188 730.009765625 c 0
 399.010742188 734.009765625 412.30078125 747.969726562 414.010742188 762.009765625 c 0
 414.600585938 766.870117188 415.16015625 771.490234375 415.690429688 775.860351562 c 0
 419.690429688 808.709960938 422 827.709960938 422 835 c 0
 422 856 399 874 372 874 c 0
 345 874 328.66015625 859.030273438 327 835 c 0
 324.9296875 804.9296875 323 771.01953125 323 769 c 0
 323 761 324 755 327 749 c 2
 327 740 l 2
 327 731.620117188 319.419921875 724.990234375 309.219726562 716.080078125 c 0
 296.299804688 704.790039062 279.1796875 689.830078125 268 663 c 2
 191 462 l 2
 187 451 186 441 186 433 c 0
 187 393 220 375 244 366 c 1
 216 308 l 1
 200 314 178 317 162 317 c 0
 75 317 0 246 0 155 c 0
 0 62 75 -8 162 -8 c 0
 256 -8 319 70 324 136 c 1
 363 136 l 1
 359 117 l 2
 358.299804688 113.259765625 357.870117188 109.950195312 357.870117188 107.009765625 c 0
 357.870117188 97.419921875 362.450195312 91.830078125 377 88 c 0
 388 85 404 82 407 82 c 0
 422 82 427 86 431 107 c 2
 445 180 l 1
 607 362 l 1
 626 305 l 1
456.01171875 240.010742188 m 1
 476.012695312 337.010742188 l 2
 476.072265625 337.30078125 476.131835938 337.590820312 476.19140625 337.890625 c 0
 477.681640625 345.081054688 480.01171875 356.37109375 480.01171875 365.010742188 c 0
 480.01171875 374.010742188 474.01171875 383.010742188 465.01171875 388.010742188 c 2
 335.01171875 462.010742188 l 1
 354.01171875 558.010742188 l 1
 393.01171875 491.010742188 l 2
 397.662109375 483.010742188 402.921875 481.010742188 431.01171875 481.010742188 c 2
 567.01171875 481.010742188 l 1
 595.01171875 397.010742188 l 1
 456.01171875 240.010742188 l 1
369.012695312 169.010742188 m 1
 324.012695312 169.010742188 l 1
 320.012695312 218.010742188 289.012695312 272.010742188 244.012695312 294.010742188 c 1
 273.012695312 355.010742188 l 1
 398.012695312 317.010742188 l 1
 369.012695312 169.010742188 l 1
821.012695312 156.010742188 m 0
 821.012695312 89.0107421875 762.012695312 30.0107421875 695.012695312 30.0107421875 c 0
 627.012695312 30.0107421875 569.012695312 89.0107421875 569.012695312 156.010742188 c 0
 569.012695312 204.010742188 597.012695312 249.010742188 638.012695312 269.010742188 c 1
 676.012695312 156.010742188 l 2
 681.012695312 141.010742188 686.012695312 137.010742188 694.012695312 137.010742188 c 0
 702.012695312 137.010742188 709.012695312 143.010742188 709.012695312 152.010742188 c 0
 709.012695312 156.010742188 708.012695312 159.010742188 705.012695312 167.010742188 c 2
 667.012695312 279.010742188 l 1
 678.012695312 281.010742188 687.012695312 282.010742188 695.012695312 282.010742188 c 0
 763.012695312 282.010742188 821.012695312 226.010742188 821.012695312 156.010742188 c 0
162.012695312 280.010742188 m 0
 175.012695312 280.010742188 190.012695312 278.010742188 201.012695312 274.010742188 c 1
 152.012695312 165.010742188 l 2
 149.47265625 159.350585938 148.012695312 154.010742188 148.012695312 150.010742188 c 0
 148.012695312 142.010742188 152.012695312 136.010742188 162.012695312 136.010742188 c 2
 286.012695312 136.010742188 l 1
 281.012695312 86.0107421875 231.012695312 30.0107421875 162.012695312 30.0107421875 c 0
 95.0126953125 30.0107421875 37.0126953125 88.0107421875 37.0126953125 155.010742188 c 0
 37.0126953125 224.010742188 95.0126953125 280.010742188 162.012695312 280.010742188 c 0
229.012695312 260.010742188 m 1
 259.012695312 243.010742188 284.012695312 205.010742188 287.012695312 169.010742188 c 1
 188.012695312 169.010742188 l 1
 229.012695312 260.010742188 l 1
EndSplineSet
EndChar

StartChar: T.ss01
Encoding: 65557 -1 83
Width: 610
Flags: MW
HStem: 279 20<460.695 485>
VStem: 39.99 580.01
LayerCount: 2
Back
Fore
SplineSet
375 370 m 1
 390.01953125 322.76953125 433.389648438 299 488 299 c 1
 509 354 l 1
 572 354 l 2
 591 354 602 362 610 378 c 0
 616 391 620 401 620 409 c 0
 620 416.690429688 613 423 605 428 c 2
 513 481 l 1
 513 524 l 2
 513 527 510 530 506 530 c 0
 503 530 500.08984375 528.959960938 497 525 c 2
 375 370 l 1
485 279 m 1
 419.129882812 279 380.418945312 303.219726562 358.989257812 358 c 1
 39.9892578125 391 l 1
 39.9892578125 369 58.9892578125 338 81.9892578125 329 c 1
 79.76953125 294.780273438 76.8095703125 252.180664062 73.849609375 209.5703125 c 0
 67.919921875 124.3203125 62 39.0703125 62 21 c 0
 62 6 75 0 98 0 c 0
 123 0 138.540039062 5.830078125 141 21 c 2
 171 206 l 1
 219 185 272 176 312 176 c 2
 387 176 l 1
 401 21 l 2
 402.349609375 5.9697265625 422 0 444 0 c 0
 470 0 484 6 484 21 c 2
 485 279 l 1
EndSplineSet
EndChar

StartChar: U.ss01
Encoding: 65558 -1 84
Width: 389
Flags: MW
HStem: 224 179.99 224 180<128 232.395 224 232.395 224 259>
VStem: 132.5 122 146.92 93.17 164 58.5
LayerCount: 2
Back
Fore
SplineSet
128 224 m 1x60
 137.000976562 306.991210938 l 1
 81.0009765625 255.991210938 l 2
 73.640625 249.291015625 66.0009765625 244.991210938 59.0009765625 244.991210938 c 0
 51.0009765625 244.991210938 43.0009765625 248.991210938 36.0009765625 255.991210938 c 0
 30.0009765625 262.991210938 27.0009765625 269.991210938 27.0009765625 277.991210938 c 0
 27.0009765625 285.991210938 31.0009765625 293.991210938 38.0009765625 300.991210938 c 2x60
 118.000976562 380.991210938 l 2
 127.4609375 390.880859375 146.2109375 403.991210938 163.000976562 403.991210938 c 1
 165.000976562 421.991210938 l 1x88
 158.000976562 423.991210938 150.000976562 431.991210938 149.000976562 448.991210938 c 0
 147.111328125 490.80078125 146.920898438 495.600585938 146.920898438 497.680664062 c 0
 146.920898438 514.7109375 159.991210938 535.000976562 194.000976562 535.000976562 c 0
 227.491210938 535.000976562 240.090820312 514.510742188 240.090820312 497.430664062 c 0
 240.090820312 495.000976562 239.670898438 488.850585938 238.270507812 468.030273438 c 0
 237.91015625 462.709960938 237.490234375 456.419921875 237 449 c 0x90
 236 432 228 424 221 422 c 1
 224 404 l 1
 240.790039062 404 259.540039062 390.889648438 269 381 c 2x48
 350 300 l 2
 357 293 362 284 362 276 c 0
 362 268 359 261 353 255 c 0
 346 248 337 243 329 243 c 0
 322 243 315 247 308 254 c 2
 250 307 l 1
 259 224 l 1
 128 224 l 1x60
57.0009765625 125.991210938 m 2
 52.0009765625 119.991210938 49.0009765625 112.991210938 49.0009765625 104.991210938 c 0
 49.0009765625 99.9912109375 50.0009765625 92.9912109375 55.0009765625 86.9912109375 c 2
 113.000976562 11.9912109375 l 2
 119.000976562 4.9912109375 124.000976562 -0.0087890625 132.000976562 -0.0087890625 c 0
 136.000976562 -0.0087890625 141.000976562 0.9912109375 146.000976562 4.9912109375 c 0
 163.000976562 17.9912109375 171.000976562 24.9912109375 171.000976562 32.9912109375 c 0
 171.000976562 35.9912109375 170.000976562 37.9912109375 166.000976562 43.9912109375 c 2
 131.000976562 92.9912109375 l 1
 181.000976562 139.991210938 l 1
 124.000976562 196.991210938 l 1
 57.0009765625 125.991210938 l 2
330.000976562 125.991210938 m 2
 335.000976562 119.991210938 339.000976562 112.991210938 339.000976562 105.991210938 c 0
 339.000976562 99.9912109375 337.000976562 93.9912109375 332.000976562 86.9912109375 c 2
 273.000976562 11.9912109375 l 2
 268.000976562 4.9912109375 263.000976562 -0.0087890625 255.000976562 -0.0087890625 c 0
 251.000976562 -0.0087890625 246.000976562 1.9912109375 241.000976562 4.9912109375 c 0
 224.000976562 16.9912109375 216.000976562 24.9912109375 216.000976562 32.9912109375 c 0
 216.000976562 35.9912109375 217.000976562 37.9912109375 219.000976562 40.9912109375 c 2
 256.000976562 92.9912109375 l 1
 206.000976562 139.991210938 l 1
 263.000976562 196.991210938 l 1
 330.000976562 125.991210938 l 2
EndSplineSet
EndChar

StartChar: A.ss02
Encoding: 65559 -1 85
Width: 720
Flags: MW
HStem: 0 81 30.99 82
VStem: 213 134 312 97<690 734 690 746> 346.99 27
LayerCount: 2
Back
Fore
SplineSet
361 638 m 1x88
 185 546 l 1
 185 592 l 2
 185 605 192 606 213 606 c 1
 213 672 l 2
 213 687 226 690 253 690 c 2xa0
 312 690 l 1
 312 734 l 2x88
 312 758 335 763 361 763 c 0
 386 763 409 758 409 734 c 2
 409 690 l 1
 468 690 l 2
 495 690 509 687 509 672 c 2
 509 606 l 1x90
 529 606 536 605 536 592 c 2
 536 546 l 1
 361 638 l 1x88
347 114 m 1x88
 328.219726562 116.290039062 314.459960938 122.990234375 300.950195312 129.5703125 c 0x88
 284.959960938 137.360351562 269.299804688 145 246 145 c 0
 238 145 231 144 224 143 c 1
 179 331 l 2
 161.379882812 396.83984375 149.780273438 416.240234375 135.419921875 440.25 c 0
 130.01953125 449.290039062 123 463.9296875 123 471 c 0
 123 480 129 487 144 495 c 2
 347 602 l 1xa0
 347 114 l 1x88
597.990234375 471 m 0
 597.990234375 480 592.030273438 487.069335938 576.990234375 494.989257812 c 2
 373.990234375 601.989257812 l 1
 373.990234375 113.989257812 l 1
 393.520507812 116.319335938 407.640625 123.1796875 421.390625 129.859375 c 0
 437.200195312 137.549804688 452.520507812 144.990234375 474.990234375 144.990234375 c 0
 482.990234375 144.990234375 490.990234375 143.990234375 496.990234375 142.990234375 c 1
 542.990234375 330.990234375 l 2
 557.009765625 386.280273438 567.990234375 408.830078125 579.25 428.849609375 c 0
 580.370117188 430.83984375 581.469726562 432.780273438 582.540039062 434.669921875 c 0
 591.169921875 449.879882812 597.990234375 461.91015625 597.990234375 471 c 0
18.990234375 30.9892578125 m 0x48
 5.990234375 30.9892578125 -0.009765625 40.9892578125 -0.009765625 64.9892578125 c 2
 -0.009765625 77.9892578125 l 2
 -0.009765625 98.9892578125 3.990234375 112.989257812 18.990234375 112.989257812 c 0x48
 45.490234375 112.989257812 60.490234375 104.989257812 75.490234375 96.9892578125 c 0
 90.490234375 88.9892578125 105.490234375 80.9892578125 131.990234375 80.9892578125 c 0x88
 159.430664062 80.9892578125 176.690429688 89.5693359375 193.330078125 97.8388671875 c 0
 208.830078125 105.548828125 223.810546875 112.989257812 245.990234375 112.989257812 c 0x48
 267.900390625 112.989257812 283.880859375 105.409179688 300.291015625 97.619140625 c 0
 317.581054688 89.4189453125 335.340820312 80.9892578125 361.000976562 80.9892578125 c 0x88
 385.880859375 80.9892578125 403.291015625 89.2490234375 420.420898438 97.369140625 c 0
 437.020507812 105.239257812 453.360351562 112.989257812 475.990234375 112.989257812 c 0x48
 498.180664062 112.989257812 513.150390625 105.548828125 528.66015625 97.8388671875 c 0
 545.299804688 89.5693359375 562.549804688 80.9892578125 589.990234375 80.9892578125 c 0x88
 616.75 80.9892578125 631.780273438 89.1494140625 646.669921875 97.2197265625 c 0
 661.26953125 105.139648438 675.739257812 112.989257812 700.989257812 112.989257812 c 0
 715.989257812 112.989257812 719.989257812 98.9892578125 719.989257812 77.9892578125 c 2
 719.989257812 64.9892578125 l 2
 719.989257812 40.9892578125 713.989257812 30.9892578125 700.989257812 30.9892578125 c 0x48
 675.739257812 30.9892578125 661.26953125 23.3896484375 646.669921875 15.7099609375 c 0
 631.780273438 7.8896484375 616.75 -0.0107421875 589.990234375 -0.0107421875 c 0x88
 562.549804688 -0.0107421875 545.299804688 8.298828125 528.66015625 16.30859375 c 0
 513.150390625 23.7783203125 498.180664062 30.98828125 475.990234375 30.98828125 c 0x48
 453.360351562 30.98828125 437.020507812 23.478515625 420.420898438 15.8583984375 c 0
 403.291015625 7.98828125 385.880859375 -0.01171875 361.000976562 -0.01171875 c 0x88
 335.340820312 -0.01171875 317.581054688 8.158203125 300.291015625 16.1083984375 c 0
 283.880859375 23.6484375 267.900390625 30.98828125 245.990234375 30.98828125 c 0x48
 223.810546875 30.98828125 208.830078125 23.7783203125 193.330078125 16.318359375 c 0
 176.690429688 8.298828125 159.430664062 -0.0107421875 131.990234375 -0.0107421875 c 0x88
 105.490234375 -0.0107421875 90.490234375 7.7392578125 75.490234375 15.4892578125 c 0
 60.490234375 23.2392578125 45.490234375 30.9892578125 18.990234375 30.9892578125 c 0x48
EndSplineSet
EndChar

StartChar: B.ss02
Encoding: 65560 -1 86
Width: 882
Flags: MW
HStem: 0 68<382.5 827 388 827> 204 68<456 533 456 533 456 572 572 640 679 737> 387 59<488.5 502 502 533 271 572 572 615>
VStem: 456 77<204 272 204 272> 572 68<204 272 204 272> 679 58<204 272 272 272>
LayerCount: 2
Back
Fore
SplineSet
502 387 m 2
 475 387 470 384 458 367 c 2
 447 349 l 1
 87 349 l 1
 61 411 l 2
 57 420 45 426 28 426 c 0
 14 426 10 423 10 416 c 2
 10 320 l 2
 10 302 22 287 40 281 c 2
 369 174 l 1
 397 116 l 2
 403 103 411 97 438 97 c 2
 727 97 l 2
 795 97 872 145 872 194 c 1
 776 329 l 2
 764 346 757 349 730 349 c 2
 670 349 l 1
 659 367 l 2
 647 384 642 387 615 387 c 2
 572 387 l 1
 572 446 l 1
 834 446 l 2
 840 446 843 451 843 458 c 2
 843 472 l 2
 843 479 840 484 834 484 c 2
 271 484 l 2
 265 484 262 479 262 472 c 2
 262 458 l 2
 262 451 265 446 271 446 c 2
 533 446 l 1
 533 387 l 1
 502 387 l 2
456 204 m 1
 456 272 l 1
 533 272 l 1
 533 204 l 1
 456 204 l 1
572 272 m 1
 640 272 l 1
 640 204 l 1
 572 204 l 1
 572 272 l 1
737 272 m 1
 776 204 l 1
 679 204 l 1
 679 272 l 1
 737 272 l 1
388 0 m 2
 377 0 372 9 372 21 c 2
 372 47 l 2
 372 59 377 68 388 68 c 2
 827 68 l 2
 838 68 843 59 843 47 c 2
 843 21 l 2
 843 9 838 0 827 0 c 2
 388 0 l 2
EndSplineSet
EndChar

StartChar: C.ss02
Encoding: 65561 -1 87
Width: 799
Flags: MW
HStem: 0 759<154 761.275 708 761.275>
VStem: 20 759<135.17 740.25 687.5 740.25>
LayerCount: 2
Back
Fore
SplineSet
749 759 m 0
 712 759 683 746 629 696 c 2
 490 559 l 1
 68 734 l 2
 66.2900390625 734.709960938 62 736 59 736 c 0
 51 736 41.490234375 730.389648438 35 720 c 2
 25 704 l 2
 21.900390625 699.040039062 20 693 20 690 c 0
 20 685 22 681 29 674 c 2
 323 415 l 1
 137 164 l 1
 43 164 l 2
 36 164 32 161 25 152 c 0
 20 144 20 141 20 138 c 0
 20 132.33984375 21.650390625 129.280273438 27 125 c 2
 99 80 l 1
 145 8 l 2
 149 2 153 0 155 0 c 0
 160 0 165 2 175 8 c 0
 182 13 183 19 183 26 c 2
 183 116 l 1
 435 303 l 1
 696 7 l 2
 701 2 706 0 710 0 c 0
 715.1796875 0 720.76953125 3.1103515625 727 7 c 0
 743 17 756 29 756 39 c 0
 756 42 755 46 753 51 c 2
 579 470 l 1
 715 609 l 2
 760 654 779 693 779 728 c 0
 779 752.5 773.549804688 759 749 759 c 0
EndSplineSet
EndChar

StartChar: D.ss02
Encoding: 65562 -1 88
Width: 864
Flags: MW
HStem: 8.00999 108
VStem: 20 858<94.0098 259>
LayerCount: 2
Back
Fore
SplineSet
878 250 m 0
 878 218.469726562 825.16015625 166.610351562 771 146.010742188 c 2
 383 9.0107421875 l 2
 363 2.0107421875 352 0.0107421875 334 0.0107421875 c 0
 304.0703125 0.0107421875 244.169921875 2.55078125 192.669921875 4.7412109375 c 0
 192.379882812 4.7509765625 192.08984375 4.7607421875 191.799804688 4.7705078125 c 0
 170.75 5.66015625 152.509765625 6.4296875 104 8.009765625 c 0
 91 8.009765625 82 14.009765625 73 26.009765625 c 2
 24 86.009765625 l 2
 21 90.009765625 20 93.009765625 20 95.009765625 c 0
 20 101.009765625 27 110.009765625 36 116.009765625 c 0
 46 123.009765625 49 123.009765625 53 123.009765625 c 0
 57 123.009765625 63 121.009765625 73 116.009765625 c 2
 141 78.009765625 l 1
 332 148.009765625 l 1
 73 395.009765625 l 2
 64.2998046875 403.299804688 59 411.4296875 59 416.479492188 c 0
 59 419.939453125 60.1796875 422.1796875 64 426 c 0
 83 445 102 454 109.830078125 454 c 0
 112.780273438 454 118.25 452.299804688 125.799804688 449.049804688 c 2
 606 242 l 1
 722 281 l 2
 745 288 756 290 773 290 c 0
 840 290 878 268 878 250 c 0
EndSplineSet
EndChar

StartChar: E.ss02
Encoding: 65563 -1 89
Width: 691
Flags: MW
HStem: -1 49<412.5 425.5> 30 48<332 345.5> 57 49<253 266.5>
VStem: 235 49<74.5 88> 314 49<47.5 60.5> 395 48<16.5 30>
LayerCount: 2
Back
Fore
SplineSet
587 155 m 2x54
 661 120 691 62 691 39 c 0
 691 36 691 35 690 33 c 0
 686 24 659 10 619 10 c 0
 596 10 569.059570312 15.1298828125 538 28 c 2
 217 161 l 2
 200.830078125 167.700195312 189.4296875 175.5703125 175 190 c 2
 14 357 l 2
 2.26953125 369.5703125 0 374 0 386.450195312 c 0
 0 396 9 458 10 464 c 0
 11 472 17 477 25 477 c 0
 28 477 32 476 42 472 c 0
 55 467 57 465 62 450 c 2
 89 373 l 1
 237 308 l 1
 262 298 l 1
 235 628 l 2
 234.9296875 628.860351562 234.889648438 629.700195312 234.889648438 630.540039062 c 0
 234.889648438 641.379882812 240.9296875 650 253 650 c 2
 279 650 l 2
 295 650 302 648 306 639 c 2
 507 193 l 1
 587 155 l 2x54
235 81 m 0x34
 235 95 246 106 260 106 c 0
 273 106 284 95 284 81 c 0
 284 68 273 57 260 57 c 0
 246 57 235 68 235 81 c 0x34
314 54 m 0x5c
 314 67 325 78 339 78 c 0
 352 78 363 67 363 54 c 0
 363 41 352 30 339 30 c 0
 325 30 314 41 314 54 c 0x5c
395 23 m 0x94
 395 37 406 48 419 48 c 0
 432 48 443 37 443 23 c 0
 443 10 432 -1 419 -1 c 0
 406 -1 395 10 395 23 c 0x94
EndSplineSet
EndChar

StartChar: F.ss02
Encoding: 65564 -1 90
Width: 903
Flags: MW
HStem: -8 38<152.5 221 152.5 233.5 684 751.5> 139 31<180.5 312 212 311 349 379> 282 37<152.5 198> 368 31<312 431 317 327 367 389 367 367 421 421 421 431> 492 31<503 598 508 587>
VStem: 23 37<122.5 191 122.5 202> 312 37<139 170> 389 32<189 368 189 368 189 368> 555 37<122.5 180 122.5 190> 844 38<122.5 191>
LayerCount: 2
Back
Fore
SplineSet
446 156 m 1
 446 135 431 120 413 120 c 0
 398 120 384 128 380 139 c 1
 349 139 l 1
 344 73 281 -8 186 -8 c 0
 99 -8 23 62 23 156 c 0
 23 248 99 319 186 319 c 0
 224 319 246 311 271 296 c 1
 327 368 l 1
 317 368 l 2
 307 368 301 376 301 384 c 0
 301 392 308 399 317 399 c 2
 431 399 l 2
 440 399 447 392 447 384 c 0
 447 376 441 368 431 368 c 2
 421 368 l 1
 421 189 l 1
 425 188 427 187 430 185 c 2
 618 398 l 1
 587 492 l 1
 508 492 l 2
 498 492 492 500 492 508 c 0
 492 516 499 523 508 523 c 2
 598 523 l 2
 608 523 612 516 616 503 c 2
 678 315 l 1
 690 318 708 320 718 320 c 0
 814 320 882 243 882 156 c 0
 882 59 805 -8 718 -8 c 0
 631 -8 555 59 555 156 c 0
 555 224 588 276 649 305 c 1
 630 363 l 1
 446 156 l 1
367 368 m 1
 295 277 l 1
 325 251 346 208 349 170 c 1
 379 170 l 1
 382 175 384 178 389 182 c 1
 389 368 l 1
 367 368 l 1
186 282 m 0
 119 282 60 226 60 156 c 0
 60 89 119 30 186 30 c 0
 256 30 306 89 311 139 c 1
 186 139 l 2
 175 139 166 144 166 153 c 0
 166 159 167 163 170 167 c 2
 248 267 l 1
 230 277 210 282 186 282 c 0
844 156 m 0
 844 226 786 282 718 282 c 0
 710 282 701 281 690 279 c 1
 728 167 l 2
 731 159 732 156 732 152 c 0
 732 143 725 137 717 137 c 0
 709 137 704 141 699 156 c 2
 661 269 l 1
 620 249 592 204 592 156 c 0
 592 89 650 30 718 30 c 0
 785 30 844 89 844 156 c 0
212 170 m 1
 312 170 l 1
 310 198 295 228 273 248 c 1
 212 170 l 1
EndSplineSet
EndChar

StartChar: G.ss02
Encoding: 65565 -1 91
Width: 752
Flags: MW
HStem: 122 73<134.5 155 597 617.5> 248 201<51 549 209 549 209 603 151 549 209 701>
VStem: 107 74<148 168> 571 73<148 168>
LayerCount: 2
Back
Fore
SplineSet
711 105 m 2
 714.139648438 134.299804688 716.549804688 156.169921875 718.299804688 172.0703125 c 0
 720.849609375 195.280273438 722 205.740234375 722 208 c 0
 722 223 715 236 701 248 c 2
 685 262 l 1
 611 506 l 2
 607.870117188 516.349609375 594 522 571 522 c 2
 181 522 l 2
 158 522 144.120117188 516.280273438 141 506 c 2
 67 262 l 1
 51 248 l 2
 37 236 30 223 30 208 c 0
 30 203.059570312 31.349609375 191.979492188 34.169921875 168.809570312 c 0
 36.08984375 153.069335938 38.6796875 131.759765625 42 103 c 2
 42 30 l 2
 42 9 56 -1 96 -1 c 2
 146 -1 l 2
 185 -1 196 9 196 42 c 1
 557 43 l 1
 557 10 570 0 608 0 c 2
 660 0 l 2
 696 0 711 10 711 31 c 2
 711 105 l 2
151 248 m 1
 209 449 l 1
 549 449 l 1
 603 248 l 1
 151 248 l 1
181 158 m 0
 181 138 165 122 145 122 c 0
 124 122 107 138 107 158 c 0
 107 178 124 195 145 195 c 0
 165 195 181 178 181 158 c 0
644 158 m 0
 644 138 628 122 607 122 c 0
 587 122 571 138 571 158 c 0
 571 178 587 195 607 195 c 0
 628 195 644 178 644 158 c 0
EndSplineSet
EndChar

StartChar: H.ss02
Encoding: 65566 -1 92
Width: 752
Flags: MW
HStem: 42.5 79.5 195 53 449 73
VStem: 42 65<29.998 167.998 102.998 167.998> 644 67
LayerCount: 2
Back
Fore
SplineSet
96 -1 m 2
 56 -1 42 8.998046875 42 29.998046875 c 2
 42 102.998046875 l 2
 38.6796875 131.7578125 36.08984375 153.078125 34.169921875 168.818359375 c 0
 31.349609375 191.978515625 30 203.05859375 30 207.999023438 c 0
 30 222.999023438 37 235.999023438 51 247.999023438 c 2
 67 261.999023438 l 1
 141 505.999023438 l 2
 144.139648438 516.348632812 158 521.999023438 181 521.999023438 c 2
 273 521.999023438 l 1
 280 545.999023438 l 2
 282.400390625 554.229492188 292 557.999023438 306 557.999023438 c 2
 451 557.999023438 l 2
 465 557.999023438 475.780273438 554.888671875 478 545.999023438 c 2
 484 521.999023438 l 1
 571 521.999023438 l 2
 594 521.999023438 607.950195312 516.069335938 611 505.999023438 c 2
 685 261.999023438 l 1
 701 247.999023438 l 2
 715 235.999023438 722 222.999023438 722 207.999023438 c 0
 722 205.739257812 720.849609375 195.26953125 718.299804688 172.059570312 c 0
 716.549804688 156.169921875 714.139648438 134.299804688 711 105 c 2
 711 31 l 2
 711 10 696 0 660 0 c 2
 608 0 l 2
 570 0 557 10 557 43 c 1
 196 42 l 1
 196 9 185 -1 146 -1 c 2
 96 -1 l 2
603 247.998046875 m 1
 549 448.998046875 l 1
 209 448.998046875 l 1
 151 247.998046875 l 1
 603 247.998046875 l 1
145 121.998046875 m 0
 165 121.998046875 181 137.998046875 181 157.998046875 c 0
 181 177.998046875 165 194.998046875 145 194.998046875 c 0
 124 194.998046875 107 177.998046875 107 157.998046875 c 0
 107 137.998046875 124 121.998046875 145 121.998046875 c 0
607 121.998046875 m 0
 628 121.998046875 644 137.998046875 644 157.998046875 c 0
 644 177.998046875 628 194.998046875 607 194.998046875 c 0
 587 194.998046875 571 177.998046875 571 157.998046875 c 0
 571 137.998046875 587 121.998046875 607 121.998046875 c 0
EndSplineSet
EndChar

StartChar: I.ss02
Encoding: 65567 -1 93
Width: 752
Flags: MW
HStem: 122 73 248 201 522 98 632 67<355 453 355 557> 711 40
VStem: 107 74 149.99 35 226 129 571 73
LayerCount: 2
Back
Fore
SplineSet
586 669 m 2x53
 586.830078125 667.919921875 587.090820312 666.23046875 587.090820312 664.830078125 c 0
 587.090820312 663.08984375 586.260742188 661.25 585.000976562 660 c 2
 556.000976562 634 l 2
 554.7109375 632.83984375 553.37109375 632.41015625 552.2109375 632.41015625 c 0
 550.701171875 632.41015625 549.331054688 633.25 548.000976562 635 c 2
 532.000976562 656 l 2
 530.701171875 657.709960938 529.541015625 658.459960938 528.44140625 658.459960938 c 0
 527.250976562 658.459960938 526.140625 657.559570312 525.000976562 656 c 2
 509.000976562 634 l 2
 507.80078125 632.400390625 506.661132812 631.610351562 505.510742188 631.610351562 c 0
 504.37109375 631.610351562 503.220703125 632.41015625 502.000976562 634 c 2
 485.000976562 656 l 2
 483.80078125 657.549804688 482.650390625 658.290039062 481.510742188 658.290039062 c 0
 480.350585938 658.290039062 479.190429688 657.490234375 478 656 c 2
 462 636 l 2
 460 633 456 632 453 632 c 2
 355 632 l 1
 355 609 339 592 310 590 c 0x11
 297.440429688 589 281.66015625 587.66015625 265.879882812 586.330078125 c 0
 234.330078125 583.66015625 202.770507812 581 196.990234375 581 c 0
 174.990234375 581 158.990234375 587 149.990234375 606 c 0
 146.990234375 614 140.990234375 640 140.990234375 666 c 0
 140.990234375 691 146.330078125 717.280273438 149.990234375 725 c 0
 158.990234375 744 174.990234375 751 196.990234375 751 c 0
 202.770507812 751 234.330078125 748.330078125 265.879882812 745.669921875 c 0
 281.66015625 744.330078125 297.440429688 743 310 742 c 0x2b
 339 740 355 722 355 699 c 1
 557 699 l 2
 561 699 565 697 566 695 c 2
 586 669 l 2x53
226.000976562 691.000976562 m 2x2b
 226.000976562 705.000976562 222.000976562 711.000976562 215.000976562 711.000976562 c 2
 196.000976562 711.000976562 l 2
 189.000976562 711.000976562 185.000976562 705.000976562 185.000976562 691.000976562 c 2
 185.000976562 640.000976562 l 2
 185.000976562 627.000976562 189.000976562 620.000976562 196.000976562 620.000976562 c 2
 215.000976562 620.000976562 l 2
 222.000976562 620.000976562 226.000976562 627.000976562 226.000976562 640.000976562 c 2
 226.000976562 691.000976562 l 2x2b
711.000976562 105.000976562 m 2
 714.140625 134.30078125 716.55078125 156.170898438 718.30078125 172.071289062 c 0
 720.850585938 195.28125 722.000976562 205.741210938 722.000976562 208.000976562 c 0
 722.000976562 223.000976562 715.000976562 236.000976562 701.000976562 248.000976562 c 2
 685.000976562 262.000976562 l 1
 611.000976562 506.000976562 l 2
 607.87109375 516.350585938 594.000976562 522.000976562 571.000976562 522.000976562 c 2
 181.000976562 522.000976562 l 2
 158.000976562 522.000976562 144.12109375 516.28125 141.000976562 506.000976562 c 2x12
 67.0009765625 262.000976562 l 1
 51.0009765625 248.000976562 l 2
 37.0009765625 236.000976562 30.0009765625 223.000976562 30.0009765625 208.000976562 c 0
 30.0009765625 203.060546875 31.3505859375 191.98046875 34.1708984375 168.810546875 c 0
 36.0908203125 153.0703125 38.6806640625 131.760742188 42.0009765625 103.000976562 c 2
 42.0009765625 30.0009765625 l 2
 42.0009765625 9.0009765625 56.0009765625 -0.9990234375 96.0009765625 -0.9990234375 c 2
 146.000976562 -0.9990234375 l 2
 185.000976562 -0.9990234375 196.000976562 9.0009765625 196.000976562 42.0009765625 c 1
 557.000976562 43.0009765625 l 1
 557.000976562 10.0009765625 570.000976562 0.0009765625 608.000976562 0.0009765625 c 2
 660.000976562 0.0009765625 l 2
 696.000976562 0.0009765625 711.000976562 10.0009765625 711.000976562 31.0009765625 c 2
 711.000976562 105.000976562 l 2
151.000976562 248.000976562 m 1x42
 209.000976562 449.000976562 l 1
 549.000976562 449.000976562 l 1
 603.000976562 248.000976562 l 1
 151.000976562 248.000976562 l 1x42
181.000976562 158.000976562 m 0x8480
 181.000976562 138.000976562 165.000976562 122.000976562 145.000976562 122.000976562 c 0
 124.000976562 122.000976562 107.000976562 138.000976562 107.000976562 158.000976562 c 0
 107.000976562 178.000976562 124.000976562 195.000976562 145.000976562 195.000976562 c 0
 165.000976562 195.000976562 181.000976562 178.000976562 181.000976562 158.000976562 c 0x8480
644.000976562 158.000976562 m 0
 644.000976562 138.000976562 628.000976562 122.000976562 607.000976562 122.000976562 c 0
 587.000976562 122.000976562 571.000976562 138.000976562 571.000976562 158.000976562 c 0
 571.000976562 178.000976562 587.000976562 195.000976562 607.000976562 195.000976562 c 0
 628.000976562 195.000976562 644.000976562 178.000976562 644.000976562 158.000976562 c 0
EndSplineSet
EndChar

StartChar: J.ss02
Encoding: 65568 -1 94
Width: 780
Flags: MW
HStem: 43 78<149 568 149 212> 194 54<149 169.5 613 633> 605 52<332 447 447 454 332 630> 697 49<325.5 332 332 447>
VStem: 40 83<147 248 147 252.5> 58 154<31 43 26.5 94 26.5 94> 568 154<26.5 31 31 43> 660 80<147 177>
LayerCount: 2
Back
Fore
SplineSet
740 177 m 2xf9
 740 169 739 164 737 157 c 2
 722 94 l 1
 722 31 l 2
 722 10 707 0 671 0 c 2xf9
 619 0 l 2
 581 0 568 10 568 43 c 1
 212 43 l 1
 212 10 201 0 162 0 c 2
 112 0 l 2
 72 0 58 10 58 31 c 2
 58 94 l 1xf6
 43 156 l 2
 41 164 40 169 40 177 c 2
 40 248 l 2
 40 257 41 271 42 280 c 2
 80 718 l 2
 82 743 85 746 119 746 c 2
 667 746 l 2
 694 746 697 742 699 718 c 2
 738 280 l 2
 739 271 740 257 740 248 c 2
 740 177 l 2xf9
467 686 m 2
 467 693 461 697 447 697 c 2
 332 697 l 2
 319 697 313 693 313 686 c 2
 313 668 l 2
 313 660 319 657 332 657 c 2
 447 657 l 2
 461 657 467 660 467 668 c 2
 467 686 l 2
630 605 m 1
 145 605 l 1
 121 248 l 1
 655 248 l 1
 630 605 l 1
123 157 m 0
 123 137 139 121 159 121 c 0
 180 121 196 137 196 157 c 0
 196 178 180 194 159 194 c 0
 139 194 123 178 123 157 c 0
660 157 m 0
 660 178 643 194 623 194 c 0
 603 194 587 178 587 157 c 0
 587 137 603 121 623 121 c 0
 643 121 660 137 660 157 c 0
EndSplineSet
EndChar

StartChar: K.ss02
Encoding: 65569 -1 95
Width: 704
Flags: MW
HStem: 177 80 330 55 603 52 696 49
VStem: 106 84.5 523 76
LayerCount: 2
Back
Fore
SplineSet
698 16 m 2
 702 12 703.999023438 9.0009765625 703.999023438 6.0009765625 c 0
 703.999023438 1.0009765625 697.999023438 0.0009765625 684.999023438 0.0009765625 c 2
 613.999023438 0.0009765625 l 2
 594.999023438 0.0009765625 589.999023438 4.0009765625 577.999023438 16.0009765625 c 2
 409.999023438 177.000976562 l 1
 294.999023438 177.000976562 l 1
 125.999023438 16.0009765625 l 2
 113.999023438 4.0009765625 109.999023438 0.0009765625 90.9990234375 0.0009765625 c 2
 19.9990234375 0.0009765625 l 2
 5.9990234375 0.0009765625 -0.0009765625 1.0009765625 -0.0009765625 6.0009765625 c 0
 -0.0009765625 9.0009765625 0.9990234375 11.0009765625 6.9990234375 16.0009765625 c 2
 198.999023438 177.000976562 l 1
 180.999023438 177.000976562 l 2
 154.999023438 177.000976562 137.999023438 188.000976562 132.999023438 212.000976562 c 2
 105.999023438 357.000976562 l 2
 105.109375 361.090820312 104.969726562 365.190429688 104.969726562 369.280273438 c 0
 104.969726562 381.490234375 105.16015625 385.259765625 106 395 c 2
 134 719 l 2
 137 740 142 745 169 745 c 2
 530 745 l 2
 562 745 568 740 570 720 c 2
 599 395 l 2
 599.629882812 387.940429688 600 382 600 375 c 0
 600 368 600 363 599 357 c 2
 571 212 l 2
 566 188 548 177 524 177 c 2
 503 177 l 1
 698 16 l 2
409.999023438 685.000976562 m 2
 409.999023438 692.000976562 402.999023438 696.000976562 389.999023438 696.000976562 c 2
 314.999023438 696.000976562 l 2
 301.999023438 696.000976562 295.999023438 692.000976562 295.999023438 685.000976562 c 2
 295.999023438 666.000976562 l 2
 295.999023438 659.000976562 301.999023438 655.000976562 314.999023438 655.000976562 c 2
 389.999023438 655.000976562 l 2
 402.999023438 655.000976562 409.999023438 659.000976562 409.999023438 666.000976562 c 2
 409.999023438 685.000976562 l 2
503.999023438 603.000976562 m 1
 198.999023438 603.000976562 l 1
 181.999023438 385.000976562 l 1
 522.999023438 385.000976562 l 1
 503.999023438 603.000976562 l 1
179.999023438 294.000976562 m 0
 179.999023438 274.000976562 195.999023438 257.000976562 215.999023438 257.000976562 c 0
 237.999023438 257.000976562 253.999023438 274.000976562 253.999023438 294.000976562 c 0
 253.999023438 314.000976562 237.999023438 330.000976562 215.999023438 330.000976562 c 0
 195.999023438 330.000976562 179.999023438 314.000976562 179.999023438 294.000976562 c 0
484.999023438 257.000976562 m 0
 504.999023438 257.000976562 522.999023438 274.000976562 522.999023438 294.000976562 c 0
 522.999023438 314.000976562 504.999023438 330.000976562 484.999023438 330.000976562 c 0
 464.999023438 330.000976562 448.999023438 314.000976562 448.999023438 294.000976562 c 0
 448.999023438 274.000976562 464.999023438 257.000976562 484.999023438 257.000976562 c 0
EndSplineSet
EndChar

StartChar: A.ss03
Encoding: 65570 -1 96
Width: 787
Flags: HMW
HStem: 0 68<70 666 121 666 121 703> 109.99 18.01 228 71<440.998 537.998 447.998 537.998> 294 17.99 625 75<121 666 121 121> 774 155<227.5 308 304 308 304 379 480 484>
VStem: 44 77<68 625 68 660 68 674> 190 38 207.94 49.06 237 42.5 331.01 17.99 430 50 515 19.01 666 77<68 625 625 625>
LayerCount: 2
Back
Fore
SplineSet
494 783 m 2xef3c
 490 776 486 774 482 774 c 0
 478 774 474 776 470 783 c 2
 398 909 l 2
 395.780273438 912.879882812 395 916 395 920 c 0
 395 925 398 929 409 929 c 2
 555 929 l 2
 564 929 570 925 570 919 c 0
 570 916 569 914 566 909 c 2
 494 783 l 2xef3c
390 794 m 2
 393 789 394 787 394 784 c 0
 394 778 388 774 379 774 c 2
 233 774 l 2
 222 774 219 778 219 783 c 0
 219 787 220.450195312 791.299804688 222 794 c 2
 294 920 l 2
 298 927 302 929 306 929 c 0
 310 929 314 927 318 920 c 2
 390 794 l 2
703 700 m 2
 731 700 743 688 743 660 c 2
 743 40 l 2
 743 12 731 0 703 0 c 2
 84 0 l 2
 56 0 44 12 44 40 c 2
 44 660 l 2
 44 688 56 700 84 700 c 2
 703 700 l 2
666 625 m 1
 121 625 l 1
 121 68 l 1
 666 68 l 1
 666 625 l 1
300 328 m 0x0880
 300 319 296.008789062 308.989257812 283.008789062 308.989257812 c 1
 276.008789062 120.989257812 l 2
 275.749023438 114.059570312 270.008789062 109.989257812 257.008789062 109.989257812 c 0
 245.008789062 109.989257812 237.008789062 113.989257812 237.008789062 120.989257812 c 2x2040
 237.008789062 306.989257812 l 1
 228.008789062 306.989257812 l 1
 228.008789062 120.989257812 l 2
 228.008789062 113.989257812 220.008789062 109.989257812 208.008789062 109.989257812 c 0
 196.008789062 109.989257812 190.008789062 113.989257812 190.008789062 120.989257812 c 2
 182.008789062 308.989257812 l 1
 169.008789062 308.989257812 165.008789062 317.989257812 165.008789062 327.989257812 c 0
 164.55859375 341.559570312 163.96875 357.909179688 163.369140625 374.249023438 c 0
 162.189453125 406.909179688 160.999023438 439.548828125 160.999023438 449.989257812 c 0
 160.999023438 461.989257812 165.678710938 473.87890625 180.999023438 478.989257812 c 0
 195.999023438 483.989257812 215.999023438 494.989257812 215.999023438 504.989257812 c 2
 215.999023438 512.989257812 l 2x41
 213.999023438 513.989257812 209.69921875 517.008789062 208.999023438 527.989257812 c 0
 208.499023438 535.849609375 207.939453125 558.009765625 207.939453125 561.379882812 c 0
 207.939453125 572.610351562 219.549804688 579.990234375 233 579.990234375 c 0
 246 579.990234375 257 571.990234375 257 559.990234375 c 0
 257 554.990234375 256.5 536.790039062 256 527.990234375 c 0
 255.370117188 516.959960938 251 513.990234375 249 512.990234375 c 2
 249 504.990234375 l 2
 249 494.990234375 269 483.990234375 284 478.990234375 c 0
 299.3203125 473.879882812 304 461.990234375 304 449.990234375 c 0
 304 434.330078125 301.330078125 368.66015625 300 328 c 0x0880
426.008789062 311.989257812 m 1x5028
 425.678710938 318.989257812 424.998046875 333 424.998046875 336 c 0
 424.998046875 336.990234375 424.998046875 337.959960938 424.998046875 338.91015625 c 0
 424.997622843 339.700000026 424.997198812 340.479623405 424.997198812 341.249455456 c 0
 424.997198812 358.209174761 425.202997987 370.416778806 430.1484375 382.459960938 c 0x1030
 433.728515625 391.169921875 438.998046875 404 438.998046875 413 c 2
 438.998046875 422 l 2
 436.998046875 423 429.998046875 427 429.998046875 438 c 2
 429.998046875 470 l 2
 429.998046875 482 442.998046875 491 454.998046875 491 c 0
 466.998046875 491 479.998046875 482 479.998046875 470 c 2
 479.998046875 437 l 2
 479.998046875 429 471.998046875 423 469.998046875 422 c 2
 469.998046875 418 l 2
 469.998046875 407 473.998046875 400 480.998046875 394 c 0
 488.59765625 387.490234375 493.998046875 380 497.998046875 362 c 2
 512.998046875 299 l 1
 537.998046875 299 l 2
 550.998046875 299 557.998046875 291 557.998046875 279 c 1
 561.998046875 279 l 2
 573.998046875 279 580.998046875 276 585.998046875 264 c 2
 628.998046875 165 l 2
 632.998046875 155 634.998046875 150 634.998046875 148 c 0
 634.998046875 145.580078125 633.698242188 144.459960938 632.047851562 143.040039062 c 0
 632.038085938 143.030273438 632.018554688 143.010742188 632.008789062 143.000976562 c 0
 627.838867188 139.411132812 616.108398438 134.000976562 611.008789062 134.000976562 c 0
 609.008789062 134.000976562 606.008789062 135.000976562 605.008789062 137.000976562 c 2
 558.008789062 228.000976562 l 1
 532.008789062 228.000976562 l 1x2018
 533.228515625 220.680664062 534.008789062 214.430664062 534.008789062 210.990234375 c 0
 534.008789062 154.990234375 488.008789062 109.990234375 432.008789062 109.990234375 c 0
 377.008789062 109.990234375 331.008789062 154.990234375 331.008789062 210.990234375 c 0
 331.008789062 264.58984375 372.168945312 307.26953125 426.008789062 311.989257812 c 1x5028
425.998046875 294 m 1
 377.998046875 288 348.998046875 253 348.998046875 211 c 0
 348.998046875 165 385.998046875 128 431.998046875 128 c 0
 477.998046875 128 514.998046875 165 514.998046875 211 c 0
 514.998046875 217 514.998046875 222 512.998046875 228 c 1
 447.998046875 228 l 2
 433.998046875 228 425.998046875 238 425.998046875 249 c 2x6028
 425.998046875 294 l 1
EndSplineSet
EndChar

StartChar: B.ss03
Encoding: 65571 -1 97
Width: 718
Flags: MW
HStem: 0 87<80 184 80 195 60 184> 282 83<576 688>
VStem: 556 132<294 345 345 350.5>
LayerCount: 2
Back
Fore
SplineSet
688 282 m 1
 195 0 l 1
 60 0 l 1
 60 67 l 2
 60 78 69 87 80 87 c 2
 184 87 l 1
 184 132 l 2
 184 143 193 152 204 152 c 2
 308 152 l 1
 308 204 l 2
 308 215 317 224 328 224 c 2
 432 224 l 1
 432 274 l 2
 432 285 441 294 452 294 c 2
 556 294 l 1
 556 345 l 2
 556 356 566 365 576 365 c 2
 688 365 l 1
 688 282 l 1
EndSplineSet
EndChar

StartChar: C.ss03
Encoding: 65572 -1 98
Width: 718
Flags: MW
HStem: 0 87 281.99 83
VStem: 556 132
LayerCount: 2
Back
Fore
SplineSet
121 495 m 2
 114 497 112.999023438 498.98828125 112.999023438 500.98828125 c 0
 112.999023438 501.98828125 113.189453125 503.928710938 113.999023438 506.98828125 c 2
 146.999023438 631.98828125 l 2
 149.418945312 641.16796875 153.87890625 647.208007812 160.999023438 650.98828125 c 2
 192.999023438 667.98828125 l 2
 196.338867188 669.768554688 197.71875 669.98828125 198.999023438 669.98828125 c 0
 199.999023438 669.98828125 200.999023438 668.98828125 200.999023438 667.98828125 c 0
 200.999023438 666.938476562 200.149414062 664.12890625 198.899414062 659.94921875 c 0
 198.069335938 657.189453125 197.059570312 653.83984375 196 650 c 2
 170 556 l 1
 429 706 l 2
 431.030273438 707.169921875 434 708 436 708 c 0
 441.099609375 708 444.349609375 705.549804688 448 699 c 2
 453 690 l 2
 456.91015625 682.950195312 458 680 458 677 c 0
 458 673 456 671 451 668 c 2
 192 518 l 1
 301 491 l 2
 305 490 306 489 306 487 c 0
 306 485 306 484 301 481 c 2
 270 463 l 2
 266.01953125 460.690429688 262 460 258 460 c 0
 255 460 250.879882812 460.23046875 248 461 c 2
 121 495 l 2
687.999023438 281.98828125 m 1
 194.999023438 -0.01171875 l 1
 59.9990234375 -0.01171875 l 1
 59.9990234375 66.98828125 l 2
 59.9990234375 77.98828125 68.9990234375 86.98828125 79.9990234375 86.98828125 c 2
 183.999023438 86.98828125 l 1
 183.999023438 131.98828125 l 2
 183.999023438 142.98828125 192.999023438 151.98828125 203.999023438 151.98828125 c 2
 307.999023438 151.98828125 l 1
 307.999023438 203.98828125 l 2
 307.999023438 214.98828125 316.999023438 223.98828125 327.999023438 223.98828125 c 2
 431.999023438 223.98828125 l 1
 431.999023438 273.98828125 l 2
 431.999023438 284.98828125 440.999023438 293.98828125 451.999023438 293.98828125 c 2
 555.999023438 293.98828125 l 1
 555.999023438 344.98828125 l 2
 555.999023438 355.98828125 565.999023438 364.98828125 575.999023438 364.98828125 c 2
 687.999023438 364.98828125 l 1
 687.999023438 281.98828125 l 1
EndSplineSet
EndChar

StartChar: D.ss03
Encoding: 65573 -1 99
Width: 718
Flags: MW
HStem: 0 87 281.99 83
VStem: 556 132
LayerCount: 2
Back
Fore
SplineSet
441 695 m 2
 448 693 448.998046875 690.989257812 448.998046875 688.989257812 c 0
 448.998046875 687.399414062 448.498046875 684.879882812 447.998046875 682.990234375 c 2
 414.998046875 557.990234375 l 2
 411.858398438 548.5703125 407.55859375 542.740234375 400.999023438 538.990234375 c 2
 368.999023438 521.990234375 l 2
 365.798828125 520.390625 364.598632812 519.990234375 362.999023438 519.990234375 c 0
 361.829101562 519.990234375 360.999023438 520.8203125 360.999023438 521.990234375 c 0
 360.999023438 524.310546875 362.409179688 529.100585938 363.809570312 533.890625 c 0
 364.219726562 535.270507812 364.620117188 536.66015625 365 537.990234375 c 2
 392 633.990234375 l 1
 133 483.990234375 l 2
 130.629882812 482.620117188 128 481.990234375 126 481.990234375 c 0
 121 481.990234375 116.219726562 485.549804688 112 493.990234375 c 2
 108 501.990234375 l 2
 104.940429688 508.100585938 104 510.700195312 104 512.990234375 c 0
 104 516.990234375 106 518.990234375 111 521.990234375 c 2
 370 671.990234375 l 1
 261 698.990234375 l 2
 257 699.990234375 256 700.990234375 256 702.990234375 c 0
 256 705.290039062 257.1796875 706.700195312 261 709 c 2
 292 727 l 2
 296 729 300 730 304 730 c 0
 308.349609375 730 312.129882812 729.620117188 314 729 c 2
 441 695 l 2
687.998046875 281.989257812 m 1
 194.998046875 -0.0107421875 l 1
 59.998046875 -0.0107421875 l 1
 59.998046875 66.9892578125 l 2
 59.998046875 77.9892578125 68.998046875 86.9892578125 79.998046875 86.9892578125 c 2
 183.998046875 86.9892578125 l 1
 183.998046875 131.989257812 l 2
 183.998046875 142.989257812 192.998046875 151.989257812 203.998046875 151.989257812 c 2
 307.998046875 151.989257812 l 1
 307.998046875 203.989257812 l 2
 307.998046875 214.989257812 316.998046875 223.989257812 327.998046875 223.989257812 c 2
 431.998046875 223.989257812 l 1
 431.998046875 273.989257812 l 2
 431.998046875 284.989257812 440.998046875 293.989257812 451.998046875 293.989257812 c 2
 555.998046875 293.989257812 l 1
 555.998046875 344.989257812 l 2
 555.998046875 355.989257812 565.998046875 364.989257812 575.998046875 364.989257812 c 2
 687.998046875 364.989257812 l 1
 687.998046875 281.989257812 l 1
EndSplineSet
EndChar

StartChar: E.ss03
Encoding: 65574 -1 100
Width: 856
Flags: MW
HStem: 0 126<129 233 129 248 78 233> 216 35<75.5 166 92 166 92 176> 368 36<773 773> 516 35<701 705 705 764 764 765>
VStem: 0 36<143.5 173.5 143.5 182.5> 605 168<333 368 300 384 300 389.5> 821 35<444.5 474.5>
LayerCount: 2
Back
Fore
SplineSet
856 461 m 0
 856 412 821 373 773 368 c 1
 773 300 l 1
 248 0 l 1
 78 0 l 1
 78 69 l 1
 33 76 0 114 0 158 c 0
 0 207 38 251 92 251 c 2
 166 251 l 1
 665 542 l 2
 675 548 683 551 691 551 c 2
 764 551 l 2
 817 551 856 509 856 461 c 0
109 104 m 1
 109 119 119 126 129 126 c 2
 233 126 l 1
 233 171 l 2
 233 182 242 191 253 191 c 2
 357 191 l 1
 357 243 l 2
 357 254 366 263 377 263 c 2
 481 263 l 1
 481 313 l 2
 481 324 490 333 501 333 c 2
 605 333 l 1
 605 384 l 2
 605 395 615 404 625 404 c 2
 765 404 l 2
 794 404 821 429 821 460 c 0
 821 489 795 516 765 516 c 2
 705 516 l 2
 697 516 689 514 682 510 c 2
 176 216 l 1
 92 216 l 2
 59 216 36 189 36 158 c 0
 36 129 63 104 92 104 c 2
 109 104 l 1
EndSplineSet
EndChar

StartChar: F.ss03
Encoding: 65575 -1 101
Width: 856
Flags: MW
HStem: 0 126 215.99 35 367.99 36 515.99 35
VStem: 0 36 605 168 821 35
LayerCount: 2
Back
Fore
SplineSet
171 495 m 2
 164 497 162.999023438 498.98828125 162.999023438 500.98828125 c 0
 162.999023438 501.98828125 163.189453125 503.928710938 163.999023438 506.98828125 c 2
 196.999023438 631.98828125 l 2
 199.418945312 641.16796875 203.87890625 647.208007812 210.999023438 650.98828125 c 2
 242.999023438 667.98828125 l 2
 246.338867188 669.768554688 247.71875 669.98828125 248.999023438 669.98828125 c 0
 249.999023438 669.98828125 250.999023438 668.98828125 250.999023438 667.98828125 c 0
 250.999023438 666.938476562 250.149414062 664.12890625 248.899414062 659.94921875 c 0
 248.069335938 657.189453125 247.059570312 653.83984375 246 650 c 2
 220 556 l 1
 479 706 l 2
 481.030273438 707.169921875 484 708 486 708 c 0
 491.099609375 708 494.349609375 705.549804688 498 699 c 2
 503 690 l 2
 506.91015625 682.950195312 508 680 508 677 c 0
 508 673 506 671 501 668 c 2
 242 518 l 1
 351 491 l 2
 355 490 356 489 356 487 c 0
 356 485 356 484 351 481 c 2
 320 463 l 2
 316.01953125 460.690429688 312 460 308 460 c 0
 305 460 300.879882812 460.23046875 298 461 c 2
 171 495 l 2
855.999023438 460.98828125 m 0
 855.999023438 411.98828125 820.999023438 372.98828125 772.999023438 367.98828125 c 1
 772.999023438 299.98828125 l 1
 247.999023438 -0.01171875 l 1
 77.9990234375 -0.01171875 l 1
 77.9990234375 68.98828125 l 1
 32.9990234375 75.98828125 -0.0009765625 113.98828125 -0.0009765625 157.98828125 c 0
 -0.0009765625 206.98828125 37.9990234375 250.98828125 91.9990234375 250.98828125 c 2
 165.999023438 250.98828125 l 1
 664.999023438 541.98828125 l 2
 674.999023438 547.98828125 682.999023438 550.98828125 690.999023438 550.98828125 c 2
 763.999023438 550.98828125 l 2
 816.999023438 550.98828125 855.999023438 508.98828125 855.999023438 460.98828125 c 0
108.999023438 103.98828125 m 1
 108.999023438 118.98828125 118.999023438 125.98828125 128.999023438 125.98828125 c 2
 232.999023438 125.98828125 l 1
 232.999023438 170.98828125 l 2
 232.999023438 181.98828125 241.999023438 190.98828125 252.999023438 190.98828125 c 2
 356.999023438 190.98828125 l 1
 356.999023438 242.98828125 l 2
 356.999023438 253.98828125 365.999023438 262.98828125 376.999023438 262.98828125 c 2
 480.999023438 262.98828125 l 1
 480.999023438 312.98828125 l 2
 480.999023438 323.98828125 489.999023438 332.98828125 500.999023438 332.98828125 c 2
 604.999023438 332.98828125 l 1
 604.999023438 383.98828125 l 2
 604.999023438 394.98828125 614.999023438 403.98828125 624.999023438 403.98828125 c 2
 764.999023438 403.98828125 l 2
 793.999023438 403.98828125 820.999023438 428.98828125 820.999023438 459.98828125 c 0
 820.999023438 488.98828125 794.999023438 515.98828125 764.999023438 515.98828125 c 2
 704.999023438 515.98828125 l 2
 696.999023438 515.98828125 688.999023438 513.98828125 681.999023438 509.98828125 c 2
 175.999023438 215.98828125 l 1
 91.9990234375 215.98828125 l 2
 58.9990234375 215.98828125 35.9990234375 188.98828125 35.9990234375 157.98828125 c 0
 35.9990234375 128.98828125 62.9990234375 103.98828125 91.9990234375 103.98828125 c 2
 108.999023438 103.98828125 l 1
EndSplineSet
EndChar

StartChar: G.ss03
Encoding: 65576 -1 102
Width: 856
Flags: MW
HStem: 0 126 215.99 35 367.99 36 515.99 35
VStem: 0 36 605 168 821 35
LayerCount: 2
Back
Fore
SplineSet
491 695 m 2
 498 693 498.998046875 690.989257812 498.998046875 688.989257812 c 0
 498.998046875 687.399414062 498.498046875 684.879882812 497.998046875 682.990234375 c 2
 464.998046875 557.990234375 l 2
 461.858398438 548.5703125 457.55859375 542.740234375 450.999023438 538.990234375 c 2
 418.999023438 521.990234375 l 2
 415.798828125 520.390625 414.598632812 519.990234375 412.999023438 519.990234375 c 0
 411.829101562 519.990234375 410.999023438 520.8203125 410.999023438 521.990234375 c 0
 410.999023438 524.310546875 412.409179688 529.100585938 413.809570312 533.890625 c 0
 414.219726562 535.270507812 414.620117188 536.66015625 415 537.990234375 c 2
 442 633.990234375 l 1
 183 483.990234375 l 2
 180.629882812 482.620117188 178 481.990234375 176 481.990234375 c 0
 171 481.990234375 166.219726562 485.549804688 162 493.990234375 c 2
 158 501.990234375 l 2
 154.940429688 508.100585938 154 510.700195312 154 512.990234375 c 0
 154 516.990234375 156 518.990234375 161 521.990234375 c 2
 420 671.990234375 l 1
 311 698.990234375 l 2
 307 699.990234375 306 700.990234375 306 702.990234375 c 0
 306 705.290039062 307.1796875 706.700195312 311 709 c 2
 342 727 l 2
 346 729 350 730 354 730 c 0
 358.349609375 730 362.129882812 729.620117188 364 729 c 2
 491 695 l 2
855.998046875 460.989257812 m 0
 855.998046875 411.989257812 820.998046875 372.989257812 772.998046875 367.989257812 c 1
 772.998046875 299.989257812 l 1
 247.998046875 -0.0107421875 l 1
 77.998046875 -0.0107421875 l 1
 77.998046875 68.9892578125 l 1
 32.998046875 75.9892578125 -0.001953125 113.989257812 -0.001953125 157.989257812 c 0
 -0.001953125 206.989257812 37.998046875 250.989257812 91.998046875 250.989257812 c 2
 165.998046875 250.989257812 l 1
 664.998046875 541.989257812 l 2
 674.998046875 547.989257812 682.998046875 550.989257812 690.998046875 550.989257812 c 2
 763.998046875 550.989257812 l 2
 816.998046875 550.989257812 855.998046875 508.989257812 855.998046875 460.989257812 c 0
108.998046875 103.989257812 m 1
 108.998046875 118.989257812 118.998046875 125.989257812 128.998046875 125.989257812 c 2
 232.998046875 125.989257812 l 1
 232.998046875 170.989257812 l 2
 232.998046875 181.989257812 241.998046875 190.989257812 252.998046875 190.989257812 c 2
 356.998046875 190.989257812 l 1
 356.998046875 242.989257812 l 2
 356.998046875 253.989257812 365.998046875 262.989257812 376.998046875 262.989257812 c 2
 480.998046875 262.989257812 l 1
 480.998046875 312.989257812 l 2
 480.998046875 323.989257812 489.998046875 332.989257812 500.998046875 332.989257812 c 2
 604.998046875 332.989257812 l 1
 604.998046875 383.989257812 l 2
 604.998046875 394.989257812 614.998046875 403.989257812 624.998046875 403.989257812 c 2
 764.998046875 403.989257812 l 2
 793.998046875 403.989257812 820.998046875 428.989257812 820.998046875 459.989257812 c 0
 820.998046875 488.989257812 794.998046875 515.989257812 764.998046875 515.989257812 c 2
 704.998046875 515.989257812 l 2
 696.998046875 515.989257812 688.998046875 513.989257812 681.998046875 509.989257812 c 2
 175.998046875 215.989257812 l 1
 91.998046875 215.989257812 l 2
 58.998046875 215.989257812 35.998046875 188.989257812 35.998046875 157.989257812 c 0
 35.998046875 128.989257812 62.998046875 103.989257812 91.998046875 103.989257812 c 2
 108.998046875 103.989257812 l 1
EndSplineSet
EndChar

StartChar: A.ss04
Encoding: 65577 -1 103
Width: 817
Flags: MW
HStem: -9 532<78.5 438 78.5 438>
VStem: 137 232<97 319> 447 232<97 97 97 319 319 360.375>
LayerCount: 2
Back
Fore
SplineSet
582 523 m 2
 495 523 447 484 408 445 c 1
 350.129882812 502.870117188 313.549804688 523 234 523 c 2
 90 523 l 2
 67 523 60 519 60 506 c 2
 60 46 l 2
 60 35 67 30 90 30 c 2
 273 30 l 2
 321 30 360 20 380 -9 c 1
 438 -9 l 1
 456 20 495 30 544 30 c 2
 727 30 l 2
 750 30 757 35 757 46 c 2
 757 506 l 2
 757 519 750 523 727 523 c 2
 582 523 l 2
369 78 m 1
 357 86 323 97 273 97 c 2
 137 97 l 1
 137 445 l 1
 244 445 l 2
 321.8203125 445 369 400.419921875 369 319 c 2
 369 78 l 1
679 97 m 1
 544 97 l 2
 494 97 459 86 447 78 c 1
 447 319 l 2
 447 401.75 498.889648438 445 573 445 c 2
 679 445 l 1
 679 97 l 1
EndSplineSet
EndChar

StartChar: B.ss04
Encoding: 65578 -1 104
Width: 797
Flags: MW
HStem: 0 67<68.5 673 124 673 124 717> 453 70<147 147 147 650>
VStem: 50 74<67 386 67 507> 673 74<67 386 386 386>
LayerCount: 2
Back
Fore
SplineSet
50 507 m 2
 50 518 57 523 80 523 c 2
 717 523 l 2
 740 523 747 518 747 507 c 2
 747 16 l 2
 747 5 740 0 717 0 c 2
 80 0 l 2
 57 0 50 5 50 16 c 2
 50 507 l 2
147 453 m 1
 161 447 l 1
 398 261 l 1
 636 447 l 1
 650 453 l 1
 147 453 l 1
673 386 m 1
 660 374 l 1
 446 211 l 2
 431.73046875 200.299804688 422.540039062 197 407 197 c 2
 391 197 l 2
 377.41015625 197 368.450195312 200.299804688 353 211 c 2
 137 374 l 1
 124 386 l 1
 124 67 l 1
 673 67 l 1
 673 386 l 1
EndSplineSet
EndChar

StartChar: C.ss04
Encoding: 65579 -1 105
Width: 651
Flags: MW
HStem: 0 68 156 38 281 68 494.07 32.98
VStem: 59 77<67.999 67.999 67.999 155.999 193.999 280.999> 62 38<415 451.005 415 454.5> 311 38<67.999 155.999 67.999 155.999 193.999 280.999> 524 77<67.999 155.999 155.999 155.999 193.999 280.999 280.999 280.999> 561.03 37.97
LayerCount: 2
Back
Fore
SplineSet
601 16 m 2xfb
 601 5 594 0 571 0 c 2
 89 0 l 2
 66 0 59 5 59 16 c 2
 59 329 l 2xa9
 59 339 69 349 89 349 c 2
 98 349 l 1
 74 366 62 398 62 428 c 0
 62 481 100 527.049804688 161.629882812 527.049804688 c 0
 193 527.049804688 223 515 243 484 c 2
 330 358 l 1
 417 484 l 2
 437 515 466 527.040039062 497.26953125 527.040039062 c 0
 556 527.040039062 599 483 599 430 c 0x3480
 599 399 586 367 563 349 c 1
 572 349 l 2
 592 349 601 339 601 329 c 2
 601 16 l 2xfb
214 465 m 2
 202 483 183 494.069335938 161.139648438 494.069335938 c 0
 129 494.069335938 100 469.009765625 100 433 c 0x34
 100 397 126 349 204 349 c 2
 291 349 l 1
 214 465 l 2
456 348.999023438 m 2x7a80
 536.379882812 348.999023438 561.030273438 398.008789062 561.030273438 434.7890625 c 0
 561 471.999023438 529 493.999023438 499 493.999023438 c 0
 482 493.999023438 460 485.999023438 446 464.999023438 c 2
 369 348.999023438 l 1
 456 348.999023438 l 2x7a80
136 193.999023438 m 1
 311 193.999023438 l 1
 311 280.999023438 l 1
 136 280.999023438 l 1
 136 193.999023438 l 1
349 193.999023438 m 1
 524 193.999023438 l 1
 524 280.999023438 l 1xeb
 349 280.999023438 l 1
 349 193.999023438 l 1
136 67.9990234375 m 1
 311 67.9990234375 l 1
 311 155.999023438 l 1
 136 155.999023438 l 1
 136 67.9990234375 l 1
524 155.999023438 m 1
 349 155.999023438 l 1
 349 67.9990234375 l 1
 524 67.9990234375 l 1
 524 155.999023438 l 1
EndSplineSet
EndChar

StartChar: D.ss04
Encoding: 65580 -1 106
Width: 801
Flags: MW
HStem: 0 67<68.5 674 127 674 127 721> 115 322<193.001 328.001 252.001 328.001 367.001 434.001 473.001 549.001 549.001 563.501 252.001 596.001> 488 35<367.001 434.001 367.001 367.001> 624 76<127 674 127 127> 759 43<227 261> 816 67<405 510 405 596 549 559 549 550.5 596 600 405 606 596 596.5> 889 42<237 242 227 261>
VStem: 50 77<67 624 67 684 67 689.5> 193 39 270 135<802.5 870 802.5 879.5> 328 39 434 39 674 77<67 624 624 624>
LayerCount: 2
Back
Fore
SplineSet
635 854 m 2xb5b8
 635 849 635 846 635 845 c 2
 606 816 l 2
 601 816 597 816 596 816 c 2
 578 835 l 1
 559 816 l 2
 556 816 552 816 549 816 c 2
 530 835 l 1
 510 816 l 1
 405 816 l 1x0440
 405 789 392 770 367 768 c 2
 242 759 l 2
 212 759 199 769 193 787 c 0
 186 806 184 826 184 845 c 0
 184 864 186 883 193 902 c 0
 199 920 212 931 242 931 c 2
 367 921 l 2x0ac0
 395 919 405 905 405 883 c 1x0440
 596 883 l 2
 604 883 611 880 616 874 c 2
 635 854 l 2xb5b8
270 870 m 2xdbc8
 270 889 270 889 261 889 c 2
 242 889 l 2
 232 889 232 889 232 870 c 2
 232 821 l 2
 232 802 232 802 242 802 c 2
 261 802 l 2
 270 802 270 802 270 821 c 2
 270 870 l 2xdbc8
50 684 m 2
 50 695 57 700 80 700 c 2
 721 700 l 2
 744 700 751 695 751 684 c 2
 751 16 l 2
 751 5 744 0 721 0 c 2
 80 0 l 2
 57 0 50 5 50 16 c 2
 50 684 l 2
674 624 m 1
 127 624 l 1
 127 67 l 1
 674 67 l 1
 674 624 l 1
626 144 m 0
 626 124 616.000976562 115 596.000976562 115 c 2
 203.000976562 115 l 2
 183.000976562 115 174.000976562 124 174.000976562 144 c 0
 174.000976562 161.349609375 177.130859375 226.109375 180.170898438 289.069335938 c 0
 181.571289062 318.01953125 182.951171875 346.58984375 184.000976562 370 c 0
 185.701171875 408.009765625 223.000976562 437 252.000976562 437 c 2
 328.000976562 437 l 1
 328.000976562 504 l 2
 328.000976562 514 328.000976562 523 338.000976562 523 c 2
 463.000976562 523 l 2
 473.000976562 523 473.000976562 514 473.000976562 504 c 2
 473.000976562 437 l 1
 549.000976562 437 l 2x6030
 578.000976562 437 614.291015625 408.080078125 616.000976562 370 c 0
 616.090820312 367.870117188 616.190429688 365.709960938 616.290039062 363.5 c 0
 619.709960938 288.530273438 626 168.610351562 626 144 c 0
434.000976562 488 m 1x6030
 367.000976562 488 l 1
 367.000976562 437 l 1
 434.000976562 437 l 1
 434.000976562 488 l 1x6030
EndSplineSet
EndChar

StartChar: E.ss04
Encoding: 65581 -1 107
Width: 552
Flags: MW
HStem: 0 246.99 297.99 34 453.99 34 726 34<154 168.5>
VStem: 100 35<568 699> 187 35<694.5 706> 291 38 401.01 39
LayerCount: 2
Back
Fore
SplineSet
135 568 m 1
 187 568 l 2
 209 568 218 563 218 551 c 0
 218 545 140 25 138 14 c 0
 136 4 133 0 124 0 c 2
 113 0 l 2
 103 0 100 4 98 14 c 0
 96 25 20 545 20 551 c 0
 20 563 26 568 51 568 c 2
 100 568 l 1
 100 699 l 2
 100 733 128 760 161 760 c 0
 195 760 222 733 222 699 c 0
 222 689 216 686 204 686 c 0
 191 686 187 690 187 699 c 0
 187 713 176 726 161 726 c 0
 147 726 135 713 135 699 c 2
 135 568 l 1
370 503 m 0
 370 493 375 487.990234375 392 487.990234375 c 2
 417 487.990234375 l 2
 434 487.990234375 437.120117188 497.990234375 437.120117188 508.16015625 c 0
 437.120117188 533.049804688 444 543.990234375 480 573.990234375 c 0
 514 601.990234375 538 624.990234375 538 668.990234375 c 0
 538 729.680664062 490.8203125 759.990234375 426 759.990234375 c 0
 402 759.990234375 380 756.990234375 360 749.990234375 c 0
 340 742.990234375 310 724.990234375 310 710.990234375 c 0
 310 704.990234375 314 695.990234375 321 684.990234375 c 0
 329 673.990234375 336 668.990234375 342 668.990234375 c 0
 344.790039062 668.990234375 352.139648438 672.690429688 360.409179688 676.850585938 c 0
 366.958984375 680.140625 374.088867188 683.73046875 379.989257812 686 c 0
 392.989257812 691 407.989257812 694 419.989257812 694 c 0
 444.989257812 694 457.989257812 683 457.989257812 664 c 0
 457.989257812 646.030273438 433.889648438 621.330078125 416.739257812 603.759765625 c 0
 386.849609375 573.129882812 370 544.889648438 370 503 c 0
362 389.990234375 m 2
 362 378.990234375 372 372.990234375 393 372.990234375 c 2
 409 372.990234375 l 2
 430 372.990234375 440 378.990234375 440 389.990234375 c 2
 440 436.990234375 l 2
 440 447.990234375 430 453.990234375 409 453.990234375 c 2
 393 453.990234375 l 2
 372 453.990234375 362 447.990234375 362 436.990234375 c 2
 362 389.990234375 l 2
291 315.990234375 m 2
 291 322.990234375 295.01171875 331.990234375 305.01171875 331.990234375 c 2
 425.01171875 331.990234375 l 2
 435.01171875 331.990234375 440.01171875 321.990234375 440.01171875 315.990234375 c 2
 440.01171875 246.990234375 l 1
 459.01171875 246.990234375 l 2
 492.01171875 246.990234375 523.122070312 221.009765625 529.01171875 181.990234375 c 0
 530.521484375 171.990234375 531.94140625 162.580078125 533.271484375 153.73046875 c 0
 547.291015625 60.900390625 552.000976562 29.7099609375 552.000976562 25 c 0
 552.000976562 16 548.000976562 0 523.000976562 0 c 2
 207.000976562 0 l 2
 182.000976562 0 178.000976562 16 178.000976562 25 c 0
 178.000976562 29.7099609375 182.7109375 60.900390625 196.73046875 153.73046875 c 0
 198.0703125 162.580078125 199.490234375 171.990234375 201 181.990234375 c 0
 206.889648438 221.009765625 238 246.990234375 271 246.990234375 c 2
 291 246.990234375 l 1
 291 315.990234375 l 2
401.01171875 297.990234375 m 1
 329.01171875 297.990234375 l 1
 329.01171875 246.990234375 l 1
 401.01171875 246.990234375 l 1
 401.01171875 297.990234375 l 1
EndSplineSet
EndChar

